<?xml version="1.0" standalone="no"?>
<!DOCTYPE svg PUBLIC "-//W3C//DTD SVG 1.1//EN" "http://www.w3.org/Graphics/SVG/1.1/DTD/svg11.dtd" >
<svg xmlns="http://www.w3.org/2000/svg" xmlns:xlink="http://www.w3.org/1999/xlink" version="1.1">
<metadata>
Created by FontForge 20170731 at Sun Aug 23 13:57:08 2020
 By Aleksey,,,
Generated in 2013 by FontLab Studio. Copyright info pending.
</metadata>
<defs>
<font id="CircularStd-Book" horiz-adv-x="1146" >
  <font-face 
    font-family="Circular Std Book"
    font-weight="400"
    font-stretch="normal"
    units-per-em="2048"
    panose-1="2 11 6 4 2 1 1 2 1 2"
    ascent="1657"
    descent="-391"
    x-height="985"
    cap-height="1452"
    bbox="-1139 -475 3045 2249"
    underline-thickness="163"
    underline-position="-562"
    unicode-range="U+000D-FEFF"
  />
<missing-glyph horiz-adv-x="1150" 
d="M164 1452h823v-1452h-823v1452zM825 162v1128h-499v-1128h499z" />
    <glyph glyph-name="f_f" unicode="ff" horiz-adv-x="1349" 
d="M1225 1309q-63 0 -109.5 -38.5t-46.5 -129.5v-156h238v-174h-238v-811h-199v811h-448v-811h-199v811h-182v174h182v166q0 159 92.5 248.5t231.5 89.5q43 0 74.5 -7.5t40.5 -13.5v-172q-33 13 -84 13q-63 0 -109.5 -38.5t-46.5 -129.5v-156h448v166q0 159 92.5 248.5
t231.5 89.5q44 0 75 -7.5t40 -13.5v-172q-33 13 -84 13z" />
    <glyph glyph-name="f_f_i" unicode="ffi" horiz-adv-x="1884" 
d="M1487 1362q0 58 40 98.5t97 40.5q58 0 98.5 -40.5t40.5 -98.5q0 -57 -40.5 -97t-98.5 -40q-57 0 -97 40t-40 97zM223 1151q0 159 92.5 248.5t231.5 89.5q43 0 74.5 -7.5t40.5 -13.5v-172q-33 13 -84 13q-63 0 -109.5 -38.5t-46.5 -129.5v-156h448v166q0 159 92.5 248.5
t231.5 89.5q44 0 75 -7.5t40 -13.5v-172q-33 13 -84 13q-63 0 -109.5 -38.5t-46.5 -129.5v-156h651v-985h-190v811h-461v-811h-199v811h-448v-811h-199v811h-182v174h182v166z" />
    <glyph glyph-name="f_f_l" unicode="ffl" horiz-adv-x="1884" 
d="M223 1151q0 159 92.5 248.5t231.5 89.5q43 0 74.5 -7.5t40.5 -13.5v-172q-33 13 -84 13q-63 0 -109.5 -38.5t-46.5 -129.5v-156h448v166q0 159 92.5 248.5t231.5 89.5q44 0 75 -7.5t40 -13.5v-172q-33 13 -84 13q-63 0 -109.5 -38.5t-46.5 -129.5v-156h461v498h190v-1483
h-190v811h-461v-811h-199v811h-448v-811h-199v811h-182v174h182v166z" />
    <glyph glyph-name="f_i" unicode="fi" horiz-adv-x="1236" 
d="M840 1362q0 58 40 98.5t97 40.5q59 0 99 -40.5t40 -98.5q0 -57 -40.5 -97t-98.5 -40q-57 0 -97 40t-40 97zM547 1489q43 0 74.5 -7.5t40.5 -13.5v-172q-33 13 -84 13q-63 0 -109.5 -37.5t-46.5 -128.5v-158h651v-985h-190v811h-461v-811h-199v811h-182v174h182v166
q0 159 92.5 248.5t231.5 89.5z" />
    <glyph glyph-name="f_l" unicode="fl" horiz-adv-x="1232" 
d="M578 1309q-63 0 -109.5 -38.5t-46.5 -129.5v-156h455v498h192v-1483h-192v811h-455v-811h-199v811h-182v174h182v166q0 159 92.5 248.5t231.5 89.5q43 0 74.5 -7.5t40.5 -13.5v-172q-33 13 -84 13z" />
    <glyph glyph-name=".notdef" horiz-adv-x="1150" 
d="M164 1452h823v-1452h-823v1452zM825 162v1128h-499v-1128h499z" />
    <glyph glyph-name=".null" horiz-adv-x="0" 
 />
    <glyph glyph-name=".null" horiz-adv-x="0" 
 />
    <glyph glyph-name="uni000D" unicode="&#xd;" horiz-adv-x="512" 
 />
    <glyph glyph-name="space" unicode=" " horiz-adv-x="512" 
 />
    <glyph glyph-name="exclam" unicode="!" horiz-adv-x="636" 
d="M387 416h-137l-53 1036h241zM184 123q0 56 39 95.5t94 39.5q56 0 96 -40t40 -95t-40 -94t-96 -39q-55 0 -94 39t-39 94z" />
    <glyph glyph-name="quotedbl" unicode="&#x22;" horiz-adv-x="765" 
d="M82 1227q0 55 35 90t90 35q54 0 88.5 -35t34.5 -90q0 -17 -4 -37l-86 -385h-70l-84 383q-4 20 -4 39zM436 1227q0 55 35 90t90 35q54 0 88.5 -35t34.5 -90q0 -17 -4 -37l-86 -385h-70l-84 383q-4 20 -4 39z" />
    <glyph glyph-name="numbersign" unicode="#" horiz-adv-x="1511" 
d="M203 985h295l73 342h172l-73 -342h291l73 342h172l-73 -342h276v-156h-309l-70 -327h279v-156h-314l-73 -346h-172l73 346h-291l-73 -346h-172l73 346h-258v156h293l70 327h-262v156zM567 502h291l70 327h-291z" />
    <glyph glyph-name="dollar" unicode="$" horiz-adv-x="1218" 
d="M549 -240v213q-103 10 -186 49.5t-136.5 97.5t-84.5 123.5t-40 135.5l195 61q10 -106 73.5 -185.5t178.5 -100.5v428l-51 10q-160 33 -250 129t-90 244q0 147 110 257t281 132v215h160v-217q90 -12 160.5 -46.5t114 -84t69 -99t39.5 -104.5l-185 -68q-10 68 -61 131.5
t-137 87.5v-419l30 -7q169 -33 267 -137.5t98 -243.5q0 -93 -43.5 -174.5t-135 -140.5t-216.5 -74v-213h-160zM360 973q0 -150 189 -187v390q-88 -17 -138.5 -72t-50.5 -131zM903 352q0 68 -49 121.5t-145 75.5v-395q96 18 145 71t49 127z" />
    <glyph glyph-name="percent" unicode="%" horiz-adv-x="1673" 
d="M113 1020q0 134 97 227.5t230 93.5q134 0 232 -93.5t98 -227.5q0 -135 -98 -229.5t-232 -94.5q-133 0 -230 94.5t-97 229.5zM276 0l955 1327h184l-950 -1327h-189zM283 1020q0 -70 45 -116t112 -46q68 0 113 46t45 116q0 69 -45 114.5t-113 45.5q-66 0 -111.5 -45.5
t-45.5 -114.5zM924 307q0 134 97 228t230 94t231.5 -94t98.5 -228q0 -135 -98 -229t-232 -94q-133 0 -230 94t-97 229zM1094 307q0 -70 45 -116t112 -46q68 0 113 46t45 116q0 69 -45 114.5t-113 45.5q-66 0 -111.5 -45.5t-45.5 -114.5z" />
    <glyph glyph-name="ampersand" unicode="&#x26;" horiz-adv-x="1427" 
d="M971 193q-95 -106 -193.5 -162t-214.5 -56q-99 0 -180.5 31.5t-133 84.5t-79 118.5t-27.5 136.5q0 69 17.5 125.5t54 106t78.5 88t106 86.5l21 16l-27 29q-30 32 -45.5 49t-44 54.5t-44 67t-28 71t-12.5 81.5q0 85 33 155.5t87 115t120 68.5t135 24q167 0 276 -97.5
t109 -257.5q0 -51 -17 -98.5t-48 -88t-64 -71.5t-76 -63l-74 -55l271 -281l323 360v-264l-196 -227l329 -340h-272zM418 1133q0 -88 110 -203l45 -49l99 73q61 44 84.5 87.5t23.5 93.5q0 73 -52.5 124.5t-131.5 51.5q-69 0 -123.5 -48.5t-54.5 -129.5zM565 160
q76 0 138.5 41t132.5 118l6 9l-295 309l-74 -55q-123 -93 -123 -220q0 -78 60 -140t155 -62z" />
    <glyph glyph-name="quotesingle" unicode="'" horiz-adv-x="411" 
d="M82 1227q0 55 35 90t90 35q54 0 88.5 -35t34.5 -90q0 -17 -4 -37l-86 -385h-70l-84 383q-4 20 -4 39z" />
    <glyph glyph-name="parenleft" unicode="(" horiz-adv-x="618" 
d="M113 649q0 581 389 977l116 -102q-339 -378 -339 -875q0 -496 339 -874l-116 -103q-389 396 -389 977z" />
    <glyph glyph-name="parenright" unicode=")" horiz-adv-x="618" 
d="M506 649q0 -581 -389 -977l-117 103q340 379 340 874q0 496 -340 875l117 102q389 -396 389 -977z" />
    <glyph glyph-name="asterisk" unicode="*" horiz-adv-x="901" 
d="M530 1178l252 86l47 -148l-254 -84l168 -215l-125 -94l-169 223l-160 -221l-125 94l162 213l-254 84l47 148l250 -88v276h161v-274z" />
    <glyph glyph-name="plus" unicode="+" horiz-adv-x="1161" 
d="M496 670v399h168v-399h385v-162h-385v-404h-168v404h-383v162h383z" />
    <glyph glyph-name="comma" unicode="," horiz-adv-x="602" 
d="M143 131q0 56 43 96.5t107 40.5q70 0 118 -51t48 -143q0 -96 -29 -173t-75.5 -123t-97 -72t-101.5 -32v107q73 17 120.5 81t49.5 140q-15 -10 -45 -10q-59 0 -98.5 37.5t-39.5 101.5z" />
    <glyph glyph-name="hyphen" unicode="-" horiz-adv-x="739" 
d="M92 504v168h555v-168h-555z" />
    <glyph glyph-name="period" unicode="." horiz-adv-x="571" 
d="M143 131q0 60 41 101.5t101 41.5t101.5 -41.5t41.5 -101.5t-41.5 -100.5t-101.5 -40.5t-101 40.5t-41 100.5z" />
    <glyph glyph-name="slash" unicode="/" horiz-adv-x="888" 
d="M186 0h-186l702 1452h187z" />
    <glyph glyph-name="zero" unicode="0" horiz-adv-x="1257" 
d="M102 664q0 304 119 481q142 213 408 213q265 0 407 -213q119 -177 119 -481q0 -305 -119 -482q-142 -213 -407 -213q-266 0 -408 213q-119 177 -119 482zM301 664q0 -308 117 -431q83 -86 211 -86t211 86q116 122 116 431q0 308 -116 430q-83 86 -211 86t-211 -86
q-117 -123 -117 -430z" />
    <glyph glyph-name="one" unicode="1" horiz-adv-x="722" 
d="M373 0v936h-322v141q135 3 226.5 72t115.5 178h176v-1327h-196z" />
    <glyph glyph-name="two" unicode="2" horiz-adv-x="1083" 
d="M88 874q-2 18 -2 54q0 115 53 212t159.5 157.5t246.5 60.5q206 0 327 -117.5t121 -290.5q0 -127 -66 -230.5t-184 -178.5l-262 -168q-67 -43 -108.5 -87t-53.5 -100h682v-186h-929q3 167 76.5 294.5t238.5 233.5l221 144q183 117 183 276q0 98 -65.5 166t-184.5 68
q-125 0 -190.5 -76.5t-65.5 -196.5q0 -19 4 -59z" />
    <glyph glyph-name="three" unicode="3" horiz-adv-x="1132" 
d="M362 782l392 361h-635v184h901v-180l-379 -350q75 0 146.5 -25.5t131 -74t96 -127.5t36.5 -177q0 -84 -32.5 -160.5t-92 -136t-152.5 -94.5t-205 -35q-111 0 -204 34.5t-153.5 93t-95.5 133.5t-40 157l196 45q6 -130 89.5 -208.5t205.5 -78.5q131 0 206 70.5t75 175.5
q0 63 -23.5 112t-62.5 78t-86 43.5t-98 14.5q-56 0 -117 -21z" />
    <glyph glyph-name="four" unicode="4" horiz-adv-x="1175" 
d="M72 530l569 797h277v-842h227v-186h-227v-299h-195v299h-651v231zM723 1135l-467 -650h467v650z" />
    <glyph glyph-name="five" unicode="5" horiz-adv-x="1122" 
d="M264 418q9 -123 91.5 -199t207.5 -76q121 0 203 74.5t82 194.5q0 131 -82.5 202.5t-204.5 71.5q-70 0 -134.5 -25.5t-107.5 -70.5q-29 11 -93.5 37.5t-102.5 40.5l172 659h700v-184h-567l-98 -381q43 48 115.5 73t154.5 25q199 0 325 -119t126 -321q0 -93 -35 -176
t-98 -144.5t-155 -97t-200 -35.5q-205 0 -341 115t-150 278z" />
    <glyph glyph-name="six" unicode="6" horiz-adv-x="1187" 
d="M1014 1120q-98 58 -238 58q-203 0 -329 -133.5t-138 -342.5q44 73 135 122.5t215 49.5q202 0 328.5 -120t126.5 -332q0 -104 -40 -190.5t-108 -143.5t-156.5 -88t-186.5 -31q-78 0 -151.5 21.5t-141 69.5t-117.5 118t-79.5 174.5t-29.5 231.5q0 181 52.5 328.5
t144.5 244.5t217 149t270 52q88 0 164 -20.5t123 -53.5zM338 422q0 -125 86 -202t201 -77q121 0 203.5 75.5t82.5 203.5q0 129 -82.5 204.5t-203.5 75.5t-204 -75.5t-83 -204.5z" />
    <glyph glyph-name="seven" unicode="7" horiz-adv-x="989" 
d="M979 1135q-34 -27 -67 -57t-86.5 -88t-99.5 -121.5t-99 -157.5t-92.5 -196t-71.5 -236.5t-45 -278.5h-207q9 124 34 242.5t59 213.5t75 183t84.5 155.5t86 125.5t80 98.5t66 69t45.5 42.5l17 13h-748v184h969v-192z" />
    <glyph glyph-name="eight" unicode="8" 
d="M573 -31q-222 0 -351.5 108t-129.5 273q0 117 70.5 204t181.5 124q-94 35 -155.5 119.5t-61.5 191.5q0 162 127 265.5t319 103.5t319.5 -104t127.5 -265q0 -105 -61.5 -191t-155.5 -120q110 -35 181 -123t71 -205q0 -165 -129.5 -273t-352.5 -108zM573 762
q107 2 176.5 61.5t69.5 155.5q0 91 -68 152t-178 61t-177.5 -61t-67.5 -152q0 -96 69 -155.5t176 -61.5zM573 143q130 0 204.5 63.5t74.5 160.5q0 98 -75 162.5t-204 64.5q-128 0 -203 -64.5t-75 -162.5q0 -97 74 -160.5t204 -63.5z" />
    <glyph glyph-name="nine" unicode="9" horiz-adv-x="1189" 
d="M182 213q44 -27 111.5 -45t130.5 -18q117 0 206 36.5t143 102t81.5 148.5t30.5 184q-39 -72 -128 -121t-216 -49q-87 0 -168.5 29.5t-146.5 84t-104.5 141.5t-39.5 193q0 100 40 187t107 146t156 92.5t186 33.5q100 0 190.5 -36.5t164.5 -108.5t117.5 -192t43.5 -273
q0 -372 -167 -575.5t-496 -203.5q-78 0 -168 22.5t-139 55.5zM858 903q0 124 -86 201.5t-201 77.5q-116 0 -201 -77t-85 -202q0 -130 83 -205t203 -75q116 0 201.5 76.5t85.5 203.5z" />
    <glyph glyph-name="colon" unicode=":" horiz-adv-x="593" 
d="M154 852q0 60 40.5 101.5t100.5 41.5t101.5 -41.5t41.5 -101.5t-41.5 -100.5t-101.5 -40.5t-100.5 40.5t-40.5 100.5zM156 131q0 60 40.5 101.5t100.5 41.5t101.5 -41.5t41.5 -101.5t-41.5 -100.5t-101.5 -40.5t-100.5 40.5t-40.5 100.5z" />
    <glyph glyph-name="semicolon" unicode=";" horiz-adv-x="608" 
d="M156 852q0 60 40.5 101.5t100.5 41.5t101.5 -41.5t41.5 -101.5t-41.5 -100.5t-101.5 -40.5t-100.5 40.5t-40.5 100.5zM154 127q0 53 41 91t102 38q67 0 112.5 -48t45.5 -136q0 -91 -27.5 -164t-72 -116.5t-92.5 -68t-97 -30.5v100q70 17 115 78t47 133q-15 -10 -43 -10
q-56 0 -93.5 36t-37.5 97z" />
    <glyph glyph-name="less" unicode="&#x3c;" horiz-adv-x="987" 
d="M72 674l843 422v-195l-634 -313l634 -314v-194l-843 420v174z" />
    <glyph glyph-name="equal" unicode="=" horiz-adv-x="1214" 
d="M133 709v157h948v-157h-948zM133 309v162h948v-162h-948z" />
    <glyph glyph-name="greater" unicode="&#x3e;" horiz-adv-x="987" 
d="M915 500l-843 -420v194l639 314l-639 313v195l843 -422v-174z" />
    <glyph glyph-name="question" unicode="?" horiz-adv-x="1044" 
d="M401 416q-2 25 -2 71q0 103 40.5 181.5t129.5 138.5l90 61q52 35 80.5 88t28.5 113q0 98 -63.5 166t-180.5 68q-85 0 -144.5 -39.5t-85.5 -97.5t-26 -126q0 -57 15 -100l-199 25q-12 43 -12 98q0 58 16.5 116t52.5 113t87.5 97.5t128 68t167.5 25.5q104 0 190.5 -35
t142 -93t86 -131.5t30.5 -152.5q0 -215 -209 -356l-94 -64q-90 -61 -90 -196q0 -19 2 -39h-181zM356 123q0 56 39 95.5t94 39.5q56 0 96 -40t40 -95t-40 -94t-96 -39q-55 0 -94 39t-39 94z" />
    <glyph glyph-name="at" unicode="@" horiz-adv-x="1691" 
d="M1231 281q-76 0 -131 33t-72 98q-45 -65 -110.5 -100.5t-133.5 -35.5q-139 0 -226 97t-87 254q0 203 121 340t289 137q71 0 134 -35t85 -100l18 108h162l-111 -514q-6 -30 -6 -57q0 -84 78 -84q86 0 153.5 118t67.5 271q0 227 -158.5 374.5t-414.5 147.5q-179 0 -322 -81
t-225 -230.5t-82 -341.5q0 -134 44.5 -249t126.5 -199t205.5 -131.5t274.5 -47.5q239 0 420 144l84 -111q-87 -83 -228 -132.5t-276 -49.5q-238 0 -424 97t-290.5 274.5t-104.5 406.5q0 117 29 224t81 195t125.5 159.5t161.5 120.5t189.5 75.5t208.5 26.5q205 0 373 -87
t264 -240.5t96 -342.5q0 -112 -31 -211.5t-83.5 -169.5t-124 -110.5t-150.5 -40.5zM1055 758q0 91 -44.5 141.5t-127.5 50.5q-106 0 -175 -91t-69 -210q0 -223 174 -223q103 0 170 93t72 239z" />
    <glyph glyph-name="A" unicode="A" horiz-adv-x="1427" 
d="M1032 406h-643l-153 -406h-216l578 1452h231l578 -1452h-217zM461 592h500l-252 651z" />
    <glyph glyph-name="B" unicode="B" horiz-adv-x="1232" 
d="M657 1452q203 0 321 -109t118 -284q0 -114 -59 -196t-158 -118q121 -30 191.5 -127.5t70.5 -222.5q0 -173 -125.5 -284t-323.5 -111h-508v1452h473zM635 817q119 0 188.5 64.5t69.5 167.5q0 104 -71 165.5t-195 61.5h-242v-459h250zM664 176q122 0 197 63.5t75 168.5
q0 108 -68 172.5t-196 64.5h-287v-469h279z" />
    <glyph glyph-name="C" unicode="C" horiz-adv-x="1536" 
d="M813 -31q-113 0 -219 32t-197 96t-159 153.5t-107 212t-39 264.5q0 141 40.5 264t110 212t161 153t196 95.5t213.5 31.5q246 0 414.5 -124t224.5 -337l-186 -66q-41 165 -158 253.5t-295 88.5q-101 0 -192.5 -36.5t-164.5 -106t-116 -180.5t-43 -248q0 -111 28.5 -205
t77.5 -161t114.5 -114t140.5 -70t155 -23q179 0 297.5 95.5t165.5 252.5l178 -66q-60 -211 -228.5 -339t-412.5 -128z" />
    <glyph glyph-name="D" unicode="D" horiz-adv-x="1474" 
d="M184 0v1452h508q111 0 213 -29.5t189 -90t151 -146.5t100.5 -204.5t36.5 -258.5q0 -173 -56.5 -312.5t-152.5 -228t-220.5 -135.5t-264.5 -47h-504zM682 178q102 0 190.5 34.5t157 100.5t107.5 171.5t39 238.5q0 134 -38.5 240.5t-106 173.5t-155.5 102t-190 35h-301
v-1096h297z" />
    <glyph glyph-name="E" unicode="E" horiz-adv-x="1189" 
d="M184 0v1452h883v-186h-682v-447h619v-188h-619v-445h682v-186h-883z" />
    <glyph glyph-name="F" unicode="F" horiz-adv-x="1128" 
d="M184 0v1452h883v-186h-682v-467h619v-189h-619v-610h-201z" />
    <glyph glyph-name="G" unicode="G" horiz-adv-x="1566" 
d="M1280 0l-18 205q-53 -97 -174 -166.5t-291 -69.5q-139 0 -264.5 50t-224.5 143.5t-157.5 239.5t-58.5 325q0 143 40.5 267t109.5 212.5t161 151.5t196 94t212 31q234 0 406.5 -120t236.5 -319l-182 -77q-49 157 -170.5 244t-290.5 87q-100 0 -190.5 -36t-163.5 -104.5
t-116.5 -180t-43.5 -250.5q0 -140 42 -251.5t113.5 -181t161.5 -106t189 -36.5q93 0 170 25t126 64.5t83.5 91t50 100.5t18.5 97h-503v181h694v-711h-162z" />
    <glyph glyph-name="H" unicode="H" horiz-adv-x="1511" 
d="M1126 0v645h-741v-645h-201v1452h201v-621h741v621h201v-1452h-201z" />
    <glyph glyph-name="I" unicode="I" horiz-adv-x="573" 
d="M184 0v1452h205v-1452h-205z" />
    <glyph glyph-name="J" unicode="J" horiz-adv-x="1093" 
d="M41 526l201 45v-137q0 -139 68 -208.5t182 -69.5q111 0 174 69.5t63 194.5v1032h201v-1018q0 -128 -52 -233t-152.5 -168.5t-231.5 -63.5q-212 0 -332.5 126t-120.5 337v94z" />
    <glyph glyph-name="K" unicode="K" horiz-adv-x="1368" 
d="M592 659l-207 -221v-438h-201v1452h201v-747l680 747h264l-604 -647l612 -805h-254z" />
    <glyph glyph-name="L" unicode="L" horiz-adv-x="1122" 
d="M184 0v1452h201v-1264h686v-188h-887z" />
    <glyph glyph-name="M" unicode="M" horiz-adv-x="1937" 
d="M1554 0v1130l-495 -1130h-185l-491 1130v-1130h-199v1452h273l512 -1182l516 1182h268v-1452h-199z" />
    <glyph glyph-name="N" unicode="N" horiz-adv-x="1562" 
d="M1169 0l-784 1184v-1184h-201v1452h269l725 -1114v1114h200v-1452h-209z" />
    <glyph glyph-name="O" unicode="O" horiz-adv-x="1642" 
d="M92 727q0 141 40.5 264t111 212t163 153t198.5 95.5t216 31.5t216 -31.5t198.5 -95.5t163 -153t111 -212t40.5 -264t-40.5 -264.5t-111 -212.5t-163 -153.5t-198.5 -96t-216 -31.5t-216 31.5t-198.5 96t-163 153.5t-111 212.5t-40.5 264.5zM297 727q0 -137 43.5 -248.5
t117.5 -181t167 -106.5t196 -37t196 37t167 106.5t118 181t44 248.5t-44 248t-118 180.5t-167 106t-196 36.5t-196 -36.5t-167 -106t-117.5 -180.5t-43.5 -248z" />
    <glyph glyph-name="P" unicode="P" horiz-adv-x="1222" 
d="M385 594v-594h-201v1452h529q199 0 323.5 -122.5t124.5 -307.5q0 -186 -124.5 -307t-323.5 -121h-328zM676 774q130 0 205 66.5t75 179.5q0 116 -75 184t-205 68h-291v-498h291z" />
    <glyph glyph-name="Q" unicode="Q" horiz-adv-x="1642" 
d="M92 727q0 141 40.5 264t111 212t163 153t198.5 95.5t216 31.5t216 -31.5t198.5 -95.5t163 -153t111 -212t40.5 -264q0 -326 -204 -537l170 -190l-138 -121l-176 195q-172 -105 -381 -105q-110 0 -216 31.5t-198.5 96t-163 153.5t-111 212.5t-40.5 264.5zM297 727
q0 -137 43.5 -248.5t117.5 -181t167 -106.5t196 -37q140 0 254 63l-252 283l140 121l254 -287q129 155 129 393q0 137 -44 248t-118 180.5t-167 106t-196 36.5t-196 -36.5t-167 -106t-117.5 -180.5t-43.5 -248z" />
    <glyph glyph-name="R" unicode="R" horiz-adv-x="1267" 
d="M604 594h-217v-594h-203v1452h547q201 0 323 -123.5t122 -308.5q0 -158 -95 -269.5t-258 -142.5l346 -608h-233zM694 774q124 0 199.5 67t75.5 179q0 115 -75.5 183.5t-199.5 68.5h-307v-498h307z" />
    <glyph glyph-name="S" unicode="S" horiz-adv-x="1214" 
d="M930 1059q-6 42 -26.5 83t-56 79.5t-94 62t-130.5 23.5q-122 0 -201.5 -70t-79.5 -172q0 -80 47.5 -135.5t138.5 -75.5l217 -47q180 -39 278.5 -147t98.5 -261q0 -85 -35.5 -162.5t-98.5 -137t-158.5 -95t-208.5 -35.5q-126 0 -228 38t-166 101t-101 137.5t-48 155.5
l192 62q5 -62 30 -117t67 -99t107 -69.5t144 -25.5q145 0 222.5 65.5t77.5 165.5q0 81 -56 141.5t-162 83.5l-206 45q-162 35 -258.5 138t-96.5 260q0 112 63 211.5t174 160t242 60.5q94 0 173.5 -22.5t132.5 -58.5t93 -85t61 -96.5t32 -98.5z" />
    <glyph glyph-name="T" unicode="T" horiz-adv-x="1212" 
d="M707 1266v-1266h-201v1266h-486v186h1172v-186h-485z" />
    <glyph glyph-name="U" unicode="U" horiz-adv-x="1372" 
d="M686 -31q-149 0 -266 59.5t-186.5 180.5t-69.5 287v956h198v-950q0 -165 85.5 -255.5t238.5 -90.5q154 0 238 90t84 256v950h200v-956q0 -166 -69.5 -287t-186.5 -180.5t-266 -59.5z" />
    <glyph glyph-name="V" unicode="V" horiz-adv-x="1345" 
d="M1114 1452h211l-559 -1452h-199l-547 1452h213l439 -1194z" />
    <glyph glyph-name="W" unicode="W" horiz-adv-x="2056" 
d="M1819 1452h206l-413 -1452h-207l-379 1178l-375 -1178h-200l-420 1452h207l319 -1137l365 1137h211l372 -1149z" />
    <glyph glyph-name="X" unicode="X" horiz-adv-x="1263" 
d="M750 727l487 -727h-240l-366 567l-375 -567h-236l496 727l-491 725h241l367 -569l373 569h237z" />
    <glyph glyph-name="Y" unicode="Y" horiz-adv-x="1265" 
d="M20 1452h242l377 -647l377 647h229l-512 -831v-621h-201v621z" />
    <glyph glyph-name="Z" unicode="Z" horiz-adv-x="1294" 
d="M92 0v201l866 1065h-845v186h1089v-195l-870 -1069h880v-188h-1120z" />
    <glyph glyph-name="bracketleft" unicode="[" horiz-adv-x="589" 
d="M184 -303v1911h396v-156h-228v-1602h228v-153h-396z" />
    <glyph glyph-name="backslash" unicode="\" horiz-adv-x="888" 
d="M0 1452h190l699 -1452h-191z" />
    <glyph glyph-name="bracketright" unicode="]" horiz-adv-x="589" 
d="M10 -303v153h228v1602h-228v156h396v-1911h-396z" />
    <glyph glyph-name="asciicircum" unicode="^" horiz-adv-x="1067" 
d="M813 725l-278 528l-281 -528h-203l398 729h169l398 -729h-203z" />
    <glyph glyph-name="underscore" unicode="_" horiz-adv-x="1110" 
d="M31 -162v162h1048v-162h-1048z" />
    <glyph glyph-name="a" unicode="a" horiz-adv-x="1071" 
d="M102 264q0 127 82.5 203t216.5 96l267 39q75 10 75 74q0 77 -53 126.5t-160 49.5q-98 0 -156 -54.5t-67 -144.5l-184 43q15 140 129 230t274 90q107 0 188 -29t128.5 -79.5t70.5 -114t23 -138.5v-493q0 -87 12 -162h-188q-10 62 -10 133q-40 -66 -119.5 -115t-198.5 -49
q-146 0 -238 87t-92 208zM459 131q129 0 206.5 69.5t77.5 221.5v45l-301 -45q-65 -9 -104 -47t-39 -101q0 -58 44.5 -100.5t115.5 -42.5z" />
    <glyph glyph-name="b" unicode="b" horiz-adv-x="1214" 
d="M164 0v1483h190v-637q38 71 124 119.5t202 48.5q145 0 249 -70t154 -185t50 -261q0 -227 -123 -376t-336 -149q-108 0 -191 45t-129 125v-143h-190zM936 498q0 160 -78.5 253t-212.5 93q-129 0 -211 -94t-82 -252t82 -255.5t211 -97.5q132 0 211.5 96.5t79.5 256.5z" />
    <glyph glyph-name="c" unicode="c" horiz-adv-x="1085" 
d="M578 838q-125 0 -212 -90.5t-87 -253.5q0 -162 87 -254.5t214 -92.5q65 0 116.5 20t82 53t48 64.5t27.5 65.5l170 -74q-19 -56 -54 -108t-88.5 -98t-131.5 -73.5t-170 -27.5q-141 0 -255.5 68.5t-178.5 188.5t-64 268q0 228 141.5 375t354.5 147q94 0 172.5 -27.5
t130.5 -74t85.5 -100t49.5 -112.5l-174 -73q-23 87 -86.5 148t-177.5 61z" />
    <glyph glyph-name="d" unicode="d" horiz-adv-x="1204" 
d="M854 150q-38 -77 -117 -127t-188 -50q-141 0 -248.5 70t-163 188t-55.5 265q0 140 57.5 257t165.5 188t244 71q120 0 196.5 -48.5t104.5 -117.5v637h190v-1301q0 -94 11 -182h-187q-10 58 -10 133v17zM279 496q0 -156 76.5 -254.5t211.5 -98.5q130 0 207.5 101t77.5 256
q0 154 -76 248t-207 94t-210.5 -96t-79.5 -250z" />
    <glyph glyph-name="e" unicode="e" horiz-adv-x="1110" 
d="M1022 281q-43 -137 -160 -224.5t-282 -87.5q-134 0 -245.5 61t-181 183t-69.5 283q0 113 39 211t103.5 165t150 105.5t178.5 38.5q223 0 348 -140.5t125 -375.5q0 -38 -4 -62h-741q3 -131 87.5 -215t209.5 -84q210 0 276 199zM827 594q-3 111 -73.5 181.5t-196.5 70.5
q-116 0 -189 -75t-79 -177h538z" />
    <glyph glyph-name="f" unicode="f" horiz-adv-x="702" 
d="M422 811v-811h-199v811h-182v174h182v166q0 159 92.5 248.5t231.5 89.5q43 0 74.5 -7.5t40.5 -13.5v-172q-33 13 -84 13q-63 0 -109.5 -38.5t-46.5 -129.5v-156h237v-174h-237z" />
    <glyph glyph-name="g" unicode="g" horiz-adv-x="1183" 
d="M279 -10q11 -105 84.5 -173.5t183.5 -68.5q154 0 227.5 79.5t73.5 240.5v141q-37 -71 -116 -116.5t-185 -45.5q-197 0 -325 134t-128 343q0 203 127 341.5t326 138.5q225 0 303 -156v137h190v-911q0 -78 -15.5 -147.5t-52 -134t-91.5 -111t-140.5 -74t-193.5 -27.5
q-183 0 -309.5 103.5t-145.5 263.5zM575 209q125 0 203 86.5t78 228.5t-78 229t-203 87q-128 0 -206 -87t-78 -229q0 -145 76.5 -230t207.5 -85z" />
    <glyph glyph-name="h" unicode="h" horiz-adv-x="1150" 
d="M356 0h-192v1483h192v-613q100 144 299 144q171 0 262 -108.5t91 -280.5v-625h-193v592q0 113 -54 180.5t-175 67.5q-106 0 -166.5 -73t-63.5 -187v-580z" />
    <glyph glyph-name="i" unicode="i" horiz-adv-x="518" 
d="M121 1358q0 58 40 98.5t97 40.5q58 0 98.5 -40.5t40.5 -98.5q0 -57 -40.5 -97t-98.5 -40q-57 0 -97 40t-40 97zM164 0v985h190v-985h-190z" />
    <glyph glyph-name="j" unicode="j" horiz-adv-x="520" 
d="M121 1362q0 58 40 98.5t97 40.5q58 0 98.5 -40.5t40.5 -98.5q0 -57 -40.5 -97t-98.5 -40q-57 0 -97 40t-40 97zM164 985h192v-1100q0 -136 -73 -220.5t-199 -84.5q-73 0 -115 14v162q30 -6 62 -6q72 0 102.5 36.5t30.5 107.5v1091z" />
    <glyph glyph-name="k" unicode="k" horiz-adv-x="1075" 
d="M627 569l428 -569h-242l-321 434l-138 -137v-297h-190v1483h190v-934l426 436h267z" />
    <glyph glyph-name="l" unicode="l" horiz-adv-x="520" 
d="M164 0v1483h192v-1483h-192z" />
    <glyph glyph-name="m" unicode="m" horiz-adv-x="1755" 
d="M164 0v985h184v-131q44 78 126 119t173 41q97 0 177 -47.5t118 -139.5q103 187 330 187q66 0 126 -23t108.5 -67.5t77 -118t28.5 -166.5v-639h-191v618q0 102 -52.5 164t-156.5 62q-100 0 -163.5 -70.5t-63.5 -177.5v-596h-192v618q0 101 -52 163.5t-157 62.5
q-102 0 -166 -69.5t-64 -180.5v-594h-190z" />
    <glyph glyph-name="n" unicode="n" horiz-adv-x="1150" 
d="M356 0h-192v985h188v-141q51 88 130.5 129t172.5 41q171 0 262 -108.5t91 -280.5v-625h-193v592q0 113 -54 180.5t-175 67.5q-110 0 -170 -76.5t-60 -194.5v-569z" />
    <glyph glyph-name="o" unicode="o" horiz-adv-x="1171" 
d="M586 1016q220 0 362 -148.5t142 -373.5q0 -227 -142 -376t-362 -149t-362 149t-142 376q0 225 142 373.5t362 148.5zM586 141q130 0 218.5 94t88.5 259q0 163 -89 256.5t-218 93.5t-218 -93.5t-89 -256.5q0 -165 88.5 -259t218.5 -94z" />
    <glyph glyph-name="p" unicode="p" horiz-adv-x="1214" 
d="M164 -389v1374h186v-154q42 78 128.5 127.5t201.5 49.5q143 0 247.5 -69.5t155 -184t50.5 -260.5q0 -226 -124 -373.5t-335 -147.5q-109 0 -193.5 45t-126.5 115v-522h-190zM936 494q0 151 -79 247.5t-212 96.5q-131 0 -212 -97.5t-81 -246.5q0 -153 81 -251t212 -98
q132 0 211.5 97.5t79.5 251.5z" />
    <glyph glyph-name="q" unicode="q" horiz-adv-x="1189" 
d="M856 -389v528q-39 -77 -119.5 -121.5t-187.5 -44.5q-138 0 -245.5 71t-164.5 189.5t-57 262.5q0 141 54.5 257t161.5 186.5t247 70.5q119 0 200 -51t115 -125v151h187v-1374h-191zM279 496q0 -155 79 -254t209 -99q129 0 210 99.5t81 253.5q0 153 -80.5 248.5
t-210.5 95.5q-132 0 -210 -95t-78 -249z" />
    <glyph glyph-name="r" unicode="r" horiz-adv-x="751" 
d="M711 791q-43 6 -84 6q-128 0 -199.5 -73.5t-71.5 -229.5v-494h-192v985h188v-172q89 188 295 188q34 0 64 -6v-204z" />
    <glyph glyph-name="s" unicode="s" horiz-adv-x="925" 
d="M246 317q9 -81 69 -132.5t160 -51.5q78 0 123 38t45 93q0 46 -33 80t-94 47l-168 37q-115 25 -180.5 98.5t-65.5 178.5q0 127 103.5 219t247.5 92q77 0 140.5 -19.5t102.5 -48t68 -66t42.5 -68.5t20.5 -62l-170 -64q-3 18 -9 37t-21.5 42.5t-36.5 41.5t-57 30.5t-80 12.5
q-71 0 -117.5 -39t-46.5 -92q0 -95 112 -119l160 -35q132 -29 202.5 -106t70.5 -187q0 -54 -22.5 -106.5t-65.5 -97.5t-114 -73t-159 -28q-96 0 -173.5 28.5t-123.5 73.5t-71.5 92t-32.5 93z" />
    <glyph glyph-name="t" unicode="t" horiz-adv-x="727" 
d="M422 985h213v-174h-213v-512q0 -69 32 -102t105 -33q44 0 76 8v-164q-48 -18 -131 -18q-127 0 -201 74t-74 206v541h-188v174h53q76 0 114 42t38 110v159h176v-311z" />
    <glyph glyph-name="u" unicode="u" horiz-adv-x="1159" 
d="M813 119q-38 -73 -118.5 -111.5t-172.5 -38.5q-168 0 -268 112t-100 284v620h192v-592q0 -111 54.5 -182.5t168.5 -71.5t174 68t60 184v594h192v-803q0 -86 11 -182h-185q-8 46 -8 119z" />
    <glyph glyph-name="v" unicode="v" horiz-adv-x="1028" 
d="M614 0h-194l-400 985h218l280 -760l283 760h207z" />
    <glyph glyph-name="w" unicode="w" horiz-adv-x="1624" 
d="M918 985l256 -741l217 741h202l-319 -985h-199l-262 750l-256 -750h-203l-323 985h211l221 -741l256 741h199z" />
    <glyph glyph-name="x" unicode="x" horiz-adv-x="1005" 
d="M387 502l-354 483h233l242 -346l237 346h228l-350 -483q30 -40 181.5 -251t180.5 -251h-231l-254 362l-250 -362h-230z" />
    <glyph glyph-name="y" unicode="y" horiz-adv-x="1071" 
d="M199 -412l245 521l-424 876h222l307 -680l295 680h207l-641 -1397h-211z" />
    <glyph glyph-name="z" unicode="z" horiz-adv-x="954" 
d="M82 0v168l541 643h-533v174h772v-168l-540 -643h550v-174h-790z" />
    <glyph glyph-name="braceleft" unicode="{" horiz-adv-x="722" 
d="M92 739q98 0 161.5 50t63.5 157v281q0 189 94 285t275 96h27v-154h-27q-112 0 -156.5 -50t-44.5 -165v-336q0 -101 -56.5 -167t-156.5 -85q100 -19 156.5 -85t56.5 -167v-333q0 -115 44.5 -165.5t156.5 -50.5h27v-153h-27q-181 0 -275 96t-94 285v278q0 107 -63.5 157
t-161.5 50v176z" />
    <glyph glyph-name="bar" unicode="|" horiz-adv-x="536" 
d="M184 -303v1911h168v-1911h-168z" />
    <glyph glyph-name="braceright" unicode="}" horiz-adv-x="722" 
d="M631 563q-98 0 -161.5 -50t-63.5 -157v-278q0 -189 -94 -285t-275 -96h-27v153h27q112 0 156.5 50.5t44.5 165.5v333q0 101 56.5 167t156.5 85q-100 19 -156.5 85t-56.5 167v336q0 115 -44.5 165t-156.5 50h-27v154h27q181 0 275 -96t94 -285v-281q0 -107 63.5 -157
t161.5 -50v-176z" />
    <glyph glyph-name="asciitilde" unicode="~" horiz-adv-x="1167" 
d="M496 541q-58 30 -111 30q-112 0 -197 -116l-116 94q57 94 137 144t174 50q100 0 195 -53l94 -51q56 -33 116 -33q57 0 107 29.5t84 83.5l117 -94q-57 -93 -136 -142t-172 -49q-97 0 -198 55z" />
    <glyph glyph-name="uni00A0" unicode="&#xa0;" horiz-adv-x="512" 
 />
    <glyph glyph-name="exclamdown" unicode="&#xa1;" horiz-adv-x="567" 
d="M150 881q0 56 39 95.5t94 39.5t95 -40t40 -95t-39.5 -94t-95.5 -39q-55 0 -94 39t-39 94zM403 -444h-241l53 1034h137z" />
    <glyph glyph-name="cent" unicode="&#xa2;" horiz-adv-x="1110" 
d="M489 0v193q-172 31 -279.5 163.5t-107.5 315.5q0 186 107.5 316t279.5 161v180h156v-176q145 -16 233.5 -97.5t120.5 -189.5l-165 -67q-17 64 -64 116.5t-125 69.5v-629q84 17 133 70t66 113l164 -68q-35 -104 -128 -185.5t-235 -97.5v-188h-156zM293 672
q0 -119 54 -198.5t142 -108.5v612q-88 -29 -142 -107.5t-54 -197.5z" />
    <glyph glyph-name="sterling" unicode="&#xa3;" horiz-adv-x="1214" 
d="M289 735q-62 140 -62 242q0 163 117.5 272t288.5 109q91 0 164 -22.5t119 -58.5t77.5 -85t45 -98t16.5 -101l-201 -35q-1 110 -60 167t-157 57q-87 0 -148 -55t-61 -150q0 -40 11 -85.5t22.5 -75t34.5 -81.5h397v-176h-344q4 -36 4 -55q0 -107 -51.5 -193t-143.5 -133
h416q98 0 147.5 62.5t49.5 154.5l192 -28q0 -163 -91.5 -265t-248.5 -102h-690v195q103 42 164 120.5t61 165.5q0 45 -8 78h-205v176h144z" />
    <glyph glyph-name="currency" unicode="&#xa4;" horiz-adv-x="1191" 
d="M168 489q0 135 76 248l-154 158l123 121l154 -160q112 72 237 72q121 0 227 -64l148 152l123 -121l-144 -150q84 -119 84 -256q0 -143 -81 -251l141 -146l-121 -121l-143 148q-108 -68 -234 -68q-131 0 -244 76l-149 -156l-121 121l150 156q-72 112 -72 241zM338 489
q0 -118 77 -194t189 -76t187 75.5t75 194.5q0 117 -75.5 193t-186.5 76q-112 0 -189 -76t-77 -193z" />
    <glyph glyph-name="yen" unicode="&#xa5;" horiz-adv-x="1191" 
d="M707 317v-317h-199v317h-346v148h346v164h-346v145h239l-350 553h234l321 -534l305 534h230l-334 -553h244v-145h-344v-164h344v-148h-344z" />
    <glyph glyph-name="brokenbar" unicode="&#xa6;" horiz-adv-x="536" 
d="M352 1608v-817h-168v817h168zM352 514v-817h-168v817h168z" />
    <glyph glyph-name="section" unicode="&#xa7;" horiz-adv-x="1173" 
d="M991 489q0 -87 -53.5 -157.5t-118.5 -98.5q85 -54 132.5 -132.5t47.5 -163.5q0 -111 -58.5 -198.5t-153.5 -133t-207 -45.5q-192 0 -296.5 103.5t-107.5 277.5l182 36q0 -117 57.5 -186.5t168.5 -69.5q97 0 157 51.5t60 143.5q0 56 -32 102t-89 76l-213 111
q-66 34 -110 63t-88 71t-65.5 96t-21.5 120q0 88 54.5 158.5t119.5 95.5q-87 53 -134.5 132.5t-47.5 166.5q0 111 58.5 198t154 132t207.5 45q190 0 296.5 -107t106.5 -272l-184 -37q0 118 -56.5 186t-166.5 68q-97 0 -158 -54t-61 -141q0 -113 123 -176l211 -110
q52 -27 89 -50t77 -55.5t64 -66.5t40 -80t16 -99zM467 750q-38 -16 -68 -63t-30 -101q0 -58 30.5 -101t100.5 -79l205 -111q37 17 67.5 63t30.5 101q0 58 -30.5 101t-100.5 79z" />
    <glyph glyph-name="dieresis" unicode="&#xa8;" horiz-adv-x="776" 
d="M78 1272q0 50 34 84.5t83 34.5q51 0 85.5 -34.5t34.5 -84.5q0 -51 -34.5 -85t-85.5 -34q-50 0 -83.5 34t-33.5 85zM461 1272q0 50 34 84.5t85 34.5q49 0 83.5 -34.5t34.5 -84.5q0 -51 -34 -85t-84 -34q-51 0 -85 34t-34 85z" />
    <glyph glyph-name="copyright" unicode="&#xa9;" horiz-adv-x="1681" 
d="M92 727q0 205 99.5 379t271.5 275.5t375 101.5q153 0 292.5 -60t239.5 -161.5t159.5 -241.5t59.5 -293t-59.5 -293.5t-159.5 -242t-239.5 -162t-292.5 -60.5q-203 0 -375 102t-271.5 276.5t-99.5 379.5zM252 727q0 -127 46 -240t124 -193.5t186.5 -127.5t229.5 -47
q162 0 296 79.5t211.5 219.5t77.5 309t-77.5 308.5t-211.5 218.5t-296 79q-121 0 -229.5 -46.5t-187 -127t-124 -193t-45.5 -239.5zM842 1012q-102 0 -173 -74t-71 -207q0 -132 71 -207t175 -75q53 0 95 16t67 43.5t39 52.5t22 53l139 -61q-16 -46 -44.5 -88t-72 -79.5
t-107 -60t-138.5 -22.5q-174 0 -290 122.5t-116 305.5q0 186 115.5 306t288.5 120q77 0 141 -22.5t106.5 -60.5t70 -81.5t40.5 -91.5l-143 -59q-7 32 -22.5 60t-40 54t-64 41t-88.5 15z" />
    <glyph glyph-name="ordfeminine" unicode="&#xaa;" horiz-adv-x="876" 
d="M135 821q0 88 59 143t152 68l180 25q54 8 54 51q0 50 -35.5 82.5t-104.5 32.5q-65 0 -104 -37t-45 -96l-141 32q9 97 88.5 162.5t199.5 65.5q150 0 221.5 -72.5t71.5 -185.5v-347q0 -80 8 -112h-145q-8 32 -8 90q-28 -46 -82 -78.5t-133 -32.5q-105 0 -170.5 61.5
t-65.5 147.5zM395 735q83 0 134 45.5t51 145.5v30l-195 -30q-43 -6 -69.5 -30.5t-26.5 -66.5q0 -39 28.5 -66.5t77.5 -27.5z" />
    <glyph glyph-name="guillemotleft" unicode="&#xab;" horiz-adv-x="964" 
d="M334 203l-273 391l273 391h190l-268 -391l268 -391h-190zM733 203l-272 391l272 391h191l-269 -391l269 -391h-191z" />
    <glyph glyph-name="logicalnot" unicode="&#xac;" horiz-adv-x="1173" 
d="M868 305v400h-776v167h948v-567h-172z" />
    <glyph glyph-name="uni00AD" unicode="&#xad;" horiz-adv-x="739" 
d="M92 504v168h555v-168h-555z" />
    <glyph glyph-name="registered" unicode="&#xae;" horiz-adv-x="1681" 
d="M92 727q0 205 99.5 379t271.5 275.5t375 101.5q153 0 292.5 -60t239.5 -161.5t159.5 -241.5t59.5 -293t-59.5 -293.5t-159.5 -242t-239.5 -162t-292.5 -60.5q-203 0 -375 102t-271.5 276.5t-99.5 379.5zM252 727q0 -127 46 -240t124 -193.5t186.5 -127.5t229.5 -47
q162 0 296 79.5t211.5 219.5t77.5 309t-77.5 308.5t-211.5 218.5t-296 79q-121 0 -229.5 -46.5t-187 -127t-124 -193t-45.5 -239.5zM743 322h-155v823h284q119 0 199 -74.5t80 -183.5q0 -85 -49.5 -151t-130.5 -93l184 -321h-178l-172 307h-62v-307zM850 764q69 0 106 32
t37 89q0 60 -37 92.5t-106 32.5h-107v-246h107z" />
    <glyph glyph-name="macron" unicode="&#xaf;" horiz-adv-x="702" 
d="M72 1182v166h559v-166h-559z" />
    <glyph glyph-name="degree" unicode="&#xb0;" horiz-adv-x="759" 
d="M51 1028q0 134 97.5 228t230.5 94t231.5 -94t98.5 -228q0 -135 -98 -229t-232 -94t-231 94t-97 229zM221 1028q0 -70 45.5 -116t112.5 -46q68 0 113 46t45 116q0 69 -45 114.5t-113 45.5q-67 0 -112.5 -46t-45.5 -114z" />
    <glyph glyph-name="plusminus" unicode="&#xb1;" horiz-adv-x="1161" 
d="M496 791v278h168v-278h364v-158h-364v-275h-168v275h-363v158h363zM1028 266v-162h-895v162h895z" />
    <glyph glyph-name="uni00B2" unicode="&#xb2;" horiz-adv-x="796" 
d="M137 1163q-6 30 -6 64q0 100 74 169.5t196 69.5t195.5 -68.5t73.5 -166.5q0 -135 -144 -225l-147 -93q-56 -36 -64 -75h359v-133h-549v26q0 191 174 297l123 76q88 54 88 129q0 42 -29.5 72t-81.5 30q-53 0 -84.5 -32t-31.5 -86q0 -27 6 -54h-152z" />
    <glyph glyph-name="uni00B3" unicode="&#xb3;" horiz-adv-x="843" 
d="M305 1157l195 162h-350v133h555v-129l-205 -164q94 -8 157.5 -66t63.5 -157q0 -104 -83 -176t-214 -72q-125 0 -202.5 61.5t-98.5 149.5l137 55q9 -58 54 -94.5t108 -36.5q62 0 100.5 32.5t38.5 80.5q0 60 -40.5 87.5t-98.5 27.5q-26 0 -57 -9z" />
    <glyph glyph-name="uni00B5" unicode="&#xb5;" horiz-adv-x="1169" 
d="M823 119q-38 -73 -118.5 -111.5t-172.5 -38.5q-96 0 -176 41v-399h-192v1374h192v-592q0 -111 55 -182.5t169 -71.5t173.5 68t59.5 184v594h193v-803q0 -114 10 -182h-185q-8 46 -8 119z" />
    <glyph glyph-name="paragraph" unicode="&#xb6;" horiz-adv-x="1282" 
d="M672 -412h-170v1069h-33q-163 0 -280 113.5t-117 276.5q0 127 64 220.5t167.5 139t231.5 45.5h696v-166h-199v-1698h-170v1698h-190v-1698z" />
    <glyph glyph-name="periodcentered" unicode="&#xb7;" horiz-adv-x="571" 
d="M143 582q0 60 41 101.5t101 41.5t101.5 -41.5t41.5 -101.5t-41.5 -101t-101.5 -41t-101 41t-41 101z" />
    <glyph glyph-name="cedilla" unicode="&#xb8;" horiz-adv-x="602" 
d="M168 -127l98 156h146l-80 -123q87 0 142.5 -46t55.5 -122q0 -78 -60.5 -131t-178.5 -53q-72 0 -132 27t-93 67l75 92q65 -70 148 -70q40 0 68 17.5t28 50.5q0 29 -24 47t-66 18q-32 0 -59 -10z" />
    <glyph glyph-name="uni00B9" unicode="&#xb9;" horiz-adv-x="600" 
d="M279 705v501h-177v107q74 1 126 41t63 98h145v-747h-157z" />
    <glyph glyph-name="ordmasculine" unicode="&#xba;" horiz-adv-x="991" 
d="M496 1350q155 0 256.5 -104.5t101.5 -264.5t-101.5 -264.5t-256.5 -104.5q-156 0 -257.5 104.5t-101.5 264.5t101.5 264.5t257.5 104.5zM496 750q85 0 143.5 61t58.5 170t-58.5 169t-143.5 60q-87 0 -146 -60t-59 -169t59 -170t146 -61z" />
    <glyph glyph-name="guillemotright" unicode="&#xbb;" horiz-adv-x="964" 
d="M41 203l268 391l-268 391h190l273 -391l-273 -391h-190zM440 203l269 391l-269 391h191l272 -391l-272 -391h-191z" />
    <glyph glyph-name="onequarter" unicode="&#xbc;" horiz-adv-x="1597" 
d="M289 580v501h-176v107q73 1 125 41t63 98h145v-747h-157zM166 0l954 1327h185l-951 -1327h-188zM827 297l363 451h174v-467h131v-134h-131v-147h-158v147h-379v150zM1206 565l-227 -284h227v284z" />
    <glyph glyph-name="onehalf" unicode="&#xbd;" horiz-adv-x="1595" 
d="M289 580v501h-176v107q73 1 125 41t63 98h145v-747h-157zM164 0l954 1327h185l-951 -1327h-188zM961 459q-7 35 -7 63q0 100 74.5 170t196.5 70t195 -69t73 -167q0 -136 -143 -225l-148 -92q-55 -35 -63 -76h358v-133h-549v27q0 191 174 297l123 75q88 54 88 129
q0 42 -29.5 72.5t-80.5 30.5q-53 0 -85 -32.5t-32 -86.5q0 -26 6 -53h-151z" />
    <glyph glyph-name="threequarters" unicode="&#xbe;" horiz-adv-x="1740" 
d="M295 1032l194 162h-350v133h555v-129l-205 -164q94 -8 158 -66t64 -157q0 -104 -83 -176t-214 -72q-125 0 -202.5 61.5t-98.5 149.5l137 55q9 -58 54 -94.5t108 -36.5q62 0 100.5 32.5t38.5 80.5q0 60 -40.5 87.5t-98.5 27.5q-30 0 -58 -8zM346 0l954 1327h185
l-950 -1327h-189zM971 297l362 451h174v-467h131v-134h-131v-147h-157v147h-379v150zM1350 565l-228 -284h228v284z" />
    <glyph glyph-name="questiondown" unicode="&#xbf;" horiz-adv-x="1044" 
d="M655 883q0 -56 -39 -95.5t-94 -39.5q-56 0 -95.5 40t-39.5 95t39.5 94t95.5 39t94.5 -39t38.5 -94zM612 592q2 -25 2 -72q0 -103 -40.5 -181t-129.5 -138l-90 -62q-108 -73 -108 -200q0 -98 63 -166t180 -68q85 0 144.5 39.5t85.5 97t26 125.5q0 61 -14 101l199 -25
q12 -44 12 -98q0 -58 -16.5 -116t-52.5 -113t-88 -97.5t-128.5 -68t-167.5 -25.5q-138 0 -242 60t-155 152.5t-51 199.5q0 215 209 356l94 63q90 61 90 197q0 25 -2 39h180z" />
    <glyph glyph-name="Agrave" unicode="&#xc0;" horiz-adv-x="1427" 
d="M479 1821h221l86 -254h-145zM1032 406h-643l-153 -406h-216l578 1452h231l578 -1452h-217zM461 592h500l-252 651z" />
    <glyph glyph-name="Aacute" unicode="&#xc1;" horiz-adv-x="1427" 
d="M809 1567h-145l86 254h221zM1032 406h-643l-153 -406h-216l578 1452h231l578 -1452h-217zM461 592h500l-252 651z" />
    <glyph glyph-name="Acircumflex" unicode="&#xc2;" horiz-adv-x="1427" 
d="M420 1595l194 260h199l195 -260h-164l-131 152l-131 -152h-162zM1032 406h-643l-153 -406h-216l578 1452h231l578 -1452h-217zM461 592h500l-252 651z" />
    <glyph glyph-name="Atilde" unicode="&#xc3;" horiz-adv-x="1427" 
d="M1008 1815q0 -99 -50.5 -151t-130.5 -52q-59 0 -125 41l-24 16q-48 27 -70 27q-27 0 -40 -18t-13 -64h-135v28q0 99 51 151t131 52q63 0 125 -41l27 -16q4 -2 13.5 -8t14 -8t12 -5.5t14 -4.5t13.5 -1q28 0 40.5 18.5t12.5 63.5h134v-28zM1032 406h-643l-153 -406h-216
l578 1452h231l578 -1452h-217zM461 592h500l-252 651z" />
    <glyph glyph-name="Adieresis" unicode="&#xc4;" horiz-adv-x="1427" 
d="M291 1677q0 51 35 86t86 35t85.5 -35t34.5 -86t-34.5 -86t-85.5 -35t-86 35t-35 86zM887 1677q0 51 35 86t86 35t85.5 -35t34.5 -86t-34.5 -86t-85.5 -35t-86 35t-35 86zM1032 406h-643l-153 -406h-216l578 1452h231l578 -1452h-217zM461 592h500l-252 651z" />
    <glyph glyph-name="Aring" unicode="&#xc5;" horiz-adv-x="1427" 
d="M961 1556q0 -115 -97 -192l543 -1364h-217l-158 406h-643l-153 -406h-216l541 1360q-102 75 -102 196q0 103 74.5 175.5t175.5 72.5q103 0 177.5 -72t74.5 -176zM813 1556q0 43 -31.5 75t-76.5 32q-42 0 -72.5 -32t-30.5 -75q0 -44 30 -74t73 -30q46 0 77 30t31 74z
M461 592h500l-252 651z" />
    <glyph glyph-name="AE" unicode="&#xc6;" horiz-adv-x="2101" 
d="M1096 0v401h-570l-258 -401h-258l967 1452h1001v-186h-682v-447h619v-188h-619v-445h682v-186h-882zM1096 582v704l-455 -704h455z" />
    <glyph glyph-name="Ccedilla" unicode="&#xc7;" horiz-adv-x="1536" 
d="M692 -127l62 98q-133 10 -251.5 65.5t-210.5 149t-146 233.5t-54 308q0 141 40.5 264t110 212t161 153t196 95.5t213.5 31.5q246 0 414.5 -124t224.5 -337l-186 -66q-41 165 -158 253.5t-295 88.5q-101 0 -192.5 -36.5t-164.5 -106t-116 -180.5t-43 -248
q0 -111 28.5 -205t77.5 -161t114.5 -114t140.5 -70t155 -23q175 0 296 96t167 252l178 -66q-55 -190 -201.5 -315t-353.5 -148l-43 -67q87 0 143 -46t56 -122q0 -78 -61 -131t-179 -53q-72 0 -132 27t-93 67l76 92q65 -70 147 -70q40 0 68 17.5t28 50.5q0 29 -24 47t-66 18
q-32 0 -59 -10z" />
    <glyph glyph-name="Egrave" unicode="&#xc8;" horiz-adv-x="1189" 
d="M360 1821h222l86 -254h-146zM184 0v1452h883v-186h-682v-447h619v-188h-619v-445h682v-186h-883z" />
    <glyph glyph-name="Eacute" unicode="&#xc9;" horiz-adv-x="1189" 
d="M690 1567h-145l86 254h221zM184 0v1452h883v-186h-682v-447h619v-188h-619v-445h682v-186h-883z" />
    <glyph glyph-name="Ecircumflex" unicode="&#xca;" horiz-adv-x="1189" 
d="M301 1595l195 260h198l195 -260h-164l-131 152l-131 -152h-162zM184 0v1452h883v-186h-682v-447h619v-188h-619v-445h682v-186h-883z" />
    <glyph glyph-name="Edieresis" unicode="&#xcb;" horiz-adv-x="1189" 
d="M272 1677q0 51 35 86t86 35t86 -35t35 -86t-35 -86t-86 -35t-86 35t-35 86zM745 1677q0 51 35 86t86 35t86 -35t35 -86t-35 -86t-86 -35t-86 35t-35 86zM184 0v1452h883v-186h-682v-447h619v-188h-619v-445h682v-186h-883z" />
    <glyph glyph-name="Igrave" unicode="&#xcc;" horiz-adv-x="573" 
d="M51 1821h221l86 -254h-145zM184 0v1452h205v-1452h-205z" />
    <glyph glyph-name="Iacute" unicode="&#xcd;" horiz-adv-x="573" 
d="M381 1567h-145l86 254h221zM184 0v1452h205v-1452h-205z" />
    <glyph glyph-name="Icircumflex" unicode="&#xce;" horiz-adv-x="573" 
d="M-57 1554l229 244h246l239 -244h-188l-174 132l-166 -132h-186zM184 0v1452h205v-1452h-205z" />
    <glyph glyph-name="Idieresis" unicode="&#xcf;" horiz-adv-x="573" 
d="M23 1677q0 46 31 77.5t77 31.5t78.5 -31.5t32.5 -77.5t-32.5 -78t-78.5 -32t-77 32t-31 78zM336 1677q0 46 32 77.5t78 31.5t77.5 -31.5t31.5 -77.5t-31.5 -78t-77.5 -32t-78 32t-32 78zM184 0v1452h205v-1452h-205z" />
    <glyph glyph-name="Eth" unicode="&#xd0;" horiz-adv-x="1482" 
d="M193 0v666h-156v168h156v618h507q140 0 264 -47.5t219.5 -137t151.5 -230t56 -314.5q0 -173 -56.5 -312.5t-153 -228t-221 -135.5t-264.5 -47h-503zM690 178q102 0 190.5 34.5t157 100.5t107.5 171.5t39 238.5q0 134 -38.5 240.5t-106 173.5t-155.5 102t-190 35h-301
v-440h250v-168h-250v-488h297z" />
    <glyph glyph-name="Ntilde" unicode="&#xd1;" horiz-adv-x="1562" 
d="M1112 1772q0 -110 -54.5 -169t-142.5 -59q-79 0 -145 47l-31 21q-47 28 -75 28q-72 0 -72 -90h-139v33q0 110 55 168.5t143 58.5q73 0 150 -47l30 -18q53 -29 78 -29q29 0 47.5 17.5t18.5 54.5v16h137v-32zM1169 0l-784 1184v-1184h-201v1452h269l725 -1114v1114h200
v-1452h-209z" />
    <glyph glyph-name="Ograve" unicode="&#xd2;" horiz-adv-x="1642" 
d="M586 1821h221l86 -254h-145zM92 727q0 141 40.5 264t111 212t163 153t198.5 95.5t216 31.5t216 -31.5t198.5 -95.5t163 -153t111 -212t40.5 -264t-40.5 -264.5t-111 -212.5t-163 -153.5t-198.5 -96t-216 -31.5t-216 31.5t-198.5 96t-163 153.5t-111 212.5t-40.5 264.5z
M297 727q0 -137 43.5 -248.5t117.5 -181t167 -106.5t196 -37t196 37t167 106.5t118 181t44 248.5t-44 248t-118 180.5t-167 106t-196 36.5t-196 -36.5t-167 -106t-117.5 -180.5t-43.5 -248z" />
    <glyph glyph-name="Oacute" unicode="&#xd3;" horiz-adv-x="1642" 
d="M915 1567h-145l86 254h221zM92 727q0 141 40.5 264t111 212t163 153t198.5 95.5t216 31.5t216 -31.5t198.5 -95.5t163 -153t111 -212t40.5 -264t-40.5 -264.5t-111 -212.5t-163 -153.5t-198.5 -96t-216 -31.5t-216 31.5t-198.5 96t-163 153.5t-111 212.5t-40.5 264.5z
M297 727q0 -137 43.5 -248.5t117.5 -181t167 -106.5t196 -37t196 37t167 106.5t118 181t44 248.5t-44 248t-118 180.5t-167 106t-196 36.5t-196 -36.5t-167 -106t-117.5 -180.5t-43.5 -248z" />
    <glyph glyph-name="Ocircumflex" unicode="&#xd4;" horiz-adv-x="1642" 
d="M526 1595l195 260h199l194 -260h-164l-131 152l-131 -152h-162zM92 727q0 141 40.5 264t111 212t163 153t198.5 95.5t216 31.5t216 -31.5t198.5 -95.5t163 -153t111 -212t40.5 -264t-40.5 -264.5t-111 -212.5t-163 -153.5t-198.5 -96t-216 -31.5t-216 31.5t-198.5 96
t-163 153.5t-111 212.5t-40.5 264.5zM297 727q0 -137 43.5 -248.5t117.5 -181t167 -106.5t196 -37t196 37t167 106.5t118 181t44 248.5t-44 248t-118 180.5t-167 106t-196 36.5t-196 -36.5t-167 -106t-117.5 -180.5t-43.5 -248z" />
    <glyph glyph-name="Otilde" unicode="&#xd5;" horiz-adv-x="1642" 
d="M1114 1815q0 -99 -50 -151t-130 -52q-59 0 -125 41l-25 16q-48 27 -69 27q-27 0 -40 -18t-13 -64h-136v28q0 99 51 151t132 52q63 0 125 -41l26 -16q48 -27 68 -27q28 0 40.5 18.5t12.5 63.5h133v-28zM92 727q0 141 40.5 264t111 212t163 153t198.5 95.5t216 31.5
t216 -31.5t198.5 -95.5t163 -153t111 -212t40.5 -264t-40.5 -264.5t-111 -212.5t-163 -153.5t-198.5 -96t-216 -31.5t-216 31.5t-198.5 96t-163 153.5t-111 212.5t-40.5 264.5zM297 727q0 -137 43.5 -248.5t117.5 -181t167 -106.5t196 -37t196 37t167 106.5t118 181
t44 248.5t-44 248t-118 180.5t-167 106t-196 36.5t-196 -36.5t-167 -106t-117.5 -180.5t-43.5 -248z" />
    <glyph glyph-name="Odieresis" unicode="&#xd6;" horiz-adv-x="1642" 
d="M383 1677q0 51 35 86t86 35t86 -35t35 -86t-35 -86t-86 -35t-86 35t-35 86zM1020 1677q0 51 35 86t86 35t86 -35t35 -86t-35 -86t-86 -35t-86 35t-35 86zM92 727q0 141 40.5 264t111 212t163 153t198.5 95.5t216 31.5t216 -31.5t198.5 -95.5t163 -153t111 -212t40.5 -264
t-40.5 -264.5t-111 -212.5t-163 -153.5t-198.5 -96t-216 -31.5t-216 31.5t-198.5 96t-163 153.5t-111 212.5t-40.5 264.5zM297 727q0 -137 43.5 -248.5t117.5 -181t167 -106.5t196 -37t196 37t167 106.5t118 181t44 248.5t-44 248t-118 180.5t-167 106t-196 36.5t-196 -36.5
t-167 -106t-117.5 -180.5t-43.5 -248z" />
    <glyph glyph-name="multiply" unicode="&#xd7;" horiz-adv-x="1085" 
d="M541 471l-344 -356l-115 114l346 361l-344 356l117 117l342 -356l342 356l116 -115l-346 -358l349 -361l-115 -116z" />
    <glyph glyph-name="Oslash" unicode="&#xd8;" horiz-adv-x="1642" 
d="M92 727q0 141 40.5 264t111 212t163 153t198.5 95.5t216 31.5q212 0 391 -113l148 189l139 -107l-149 -192q200 -210 200 -533q0 -141 -40.5 -264.5t-111 -212.5t-163 -153.5t-198.5 -96t-216 -31.5q-210 0 -387 109l-139 -182l-143 104l145 188q-205 212 -205 539z
M297 727q0 -235 121 -385l680 879q-124 77 -277 77q-103 0 -196 -36.5t-167 -106t-117.5 -180.5t-43.5 -248zM1346 727q0 224 -117 377l-680 -879q119 -71 272 -71q103 0 196 37t167 106.5t118 181t44 248.5z" />
    <glyph glyph-name="Ugrave" unicode="&#xd9;" horiz-adv-x="1372" 
d="M451 1821h221l86 -254h-146zM686 -31q-149 0 -266 59.5t-186.5 180.5t-69.5 287v956h198v-950q0 -165 85.5 -255.5t238.5 -90.5q154 0 238 90t84 256v950h200v-956q0 -166 -69.5 -287t-186.5 -180.5t-266 -59.5z" />
    <glyph glyph-name="Uacute" unicode="&#xda;" horiz-adv-x="1372" 
d="M780 1567h-145l86 254h221zM686 -31q-149 0 -266 59.5t-186.5 180.5t-69.5 287v956h198v-950q0 -165 85.5 -255.5t238.5 -90.5q154 0 238 90t84 256v950h200v-956q0 -166 -69.5 -287t-186.5 -180.5t-266 -59.5z" />
    <glyph glyph-name="Ucircumflex" unicode="&#xdb;" horiz-adv-x="1372" 
d="M330 1554l229 244h246l239 -244h-188l-174 132l-166 -132h-186zM686 -31q-149 0 -266 59.5t-186.5 180.5t-69.5 287v956h198v-950q0 -165 85.5 -255.5t238.5 -90.5q154 0 238 90t84 256v950h200v-956q0 -166 -69.5 -287t-186.5 -180.5t-266 -59.5z" />
    <glyph glyph-name="Udieresis" unicode="&#xdc;" horiz-adv-x="1372" 
d="M340 1677q0 51 35 86t86 35t86 -35t35 -86t-35 -86t-86 -35t-86 35t-35 86zM793 1677q0 51 34.5 86t85.5 35t86 -35t35 -86t-35 -86t-86 -35t-85.5 35t-34.5 86zM686 -31q-149 0 -266 59.5t-186.5 180.5t-69.5 287v956h198v-950q0 -165 85.5 -255.5t238.5 -90.5
q154 0 238 90t84 256v950h200v-956q0 -166 -69.5 -287t-186.5 -180.5t-266 -59.5z" />
    <glyph glyph-name="Yacute" unicode="&#xdd;" horiz-adv-x="1265" 
d="M727 1567h-145l86 254h221zM20 1452h242l377 -647l377 647h229l-512 -831v-621h-201v621z" />
    <glyph glyph-name="Thorn" unicode="&#xde;" horiz-adv-x="1212" 
d="M385 322v-322h-201v1452h201v-281h317q200 0 329.5 -121t129.5 -305q0 -185 -127.5 -304t-328.5 -119h-320zM680 500q130 0 203 65t73 178q0 116 -73 183t-203 67h-295v-493h295z" />
    <glyph glyph-name="germandbls" unicode="&#xdf;" horiz-adv-x="1161" 
d="M731 702q0 -36 21 -55t73 -43l72 -35q93 -45 153 -123.5t60 -179.5q0 -53 -20.5 -104.5t-60 -95t-105.5 -70.5t-148 -27q-88 0 -155.5 28t-105.5 72.5t-56.5 92.5t-18.5 96l170 45q0 -28 8.5 -56.5t26.5 -56t52 -44.5t79 -17q68 0 106 38.5t38 82.5q0 52 -26 87t-81 62
l-70 33q-45 21 -75 38.5t-66 48.5t-55 74.5t-19 98.5q0 137 129 221l66 43q117 74 117 174q0 77 -61.5 130t-164.5 53q-110 0 -184 -82t-74 -232v-999h-192v1010q0 219 128 346t322 127q185 0 302.5 -99t117.5 -247q0 -110 -49 -181t-131 -122l-59 -37q-64 -40 -64 -95z" />
    <glyph glyph-name="agrave" unicode="&#xe0;" horiz-adv-x="1071" 
d="M301 1354h221l86 -254h-145zM102 264q0 127 82.5 203t216.5 96l267 39q75 10 75 74q0 77 -53 126.5t-160 49.5q-98 0 -156 -54.5t-67 -144.5l-184 43q15 140 129 230t274 90q107 0 188 -29t128.5 -79.5t70.5 -114t23 -138.5v-493q0 -87 12 -162h-188q-10 62 -10 133
q-40 -66 -119.5 -115t-198.5 -49q-146 0 -238 87t-92 208zM459 131q129 0 206.5 69.5t77.5 221.5v45l-301 -45q-65 -9 -104 -47t-39 -101q0 -58 44.5 -100.5t115.5 -42.5z" />
    <glyph glyph-name="aacute" unicode="&#xe1;" horiz-adv-x="1071" 
d="M631 1100h-146l86 254h222zM102 264q0 127 82.5 203t216.5 96l267 39q75 10 75 74q0 77 -53 126.5t-160 49.5q-98 0 -156 -54.5t-67 -144.5l-184 43q15 140 129 230t274 90q107 0 188 -29t128.5 -79.5t70.5 -114t23 -138.5v-493q0 -87 12 -162h-188q-10 62 -10 133
q-40 -66 -119.5 -115t-198.5 -49q-146 0 -238 87t-92 208zM459 131q129 0 206.5 69.5t77.5 221.5v45l-301 -45q-65 -9 -104 -47t-39 -101q0 -58 44.5 -100.5t115.5 -42.5z" />
    <glyph glyph-name="acircumflex" unicode="&#xe2;" horiz-adv-x="1071" 
d="M242 1128l194 261h199l194 -261h-163l-131 152l-132 -152h-161zM102 264q0 127 82.5 203t216.5 96l267 39q75 10 75 74q0 77 -53 126.5t-160 49.5q-98 0 -156 -54.5t-67 -144.5l-184 43q15 140 129 230t274 90q107 0 188 -29t128.5 -79.5t70.5 -114t23 -138.5v-493
q0 -87 12 -162h-188q-10 62 -10 133q-40 -66 -119.5 -115t-198.5 -49q-146 0 -238 87t-92 208zM459 131q129 0 206.5 69.5t77.5 221.5v45l-301 -45q-65 -9 -104 -47t-39 -101q0 -58 44.5 -100.5t115.5 -42.5z" />
    <glyph glyph-name="atilde" unicode="&#xe3;" horiz-adv-x="1071" 
d="M829 1348q0 -99 -50 -151t-130 -52q-59 0 -125 41l-24 16q-48 27 -70 27q-27 0 -40 -18t-13 -64h-135v29q0 99 50.5 150.5t131.5 51.5q63 0 125 -41l26 -16q48 -27 68 -27q28 0 40.5 18.5t12.5 63.5h133v-28zM102 264q0 127 82.5 203t216.5 96l267 39q75 10 75 74
q0 77 -53 126.5t-160 49.5q-98 0 -156 -54.5t-67 -144.5l-184 43q15 140 129 230t274 90q107 0 188 -29t128.5 -79.5t70.5 -114t23 -138.5v-493q0 -87 12 -162h-188q-10 62 -10 133q-40 -66 -119.5 -115t-198.5 -49q-146 0 -238 87t-92 208zM459 131q129 0 206.5 69.5
t77.5 221.5v45l-301 -45q-65 -9 -104 -47t-39 -101q0 -58 44.5 -100.5t115.5 -42.5z" />
    <glyph glyph-name="adieresis" unicode="&#xe4;" horiz-adv-x="1071" 
d="M225 1272q0 50 34 84.5t83 34.5q51 0 86 -34.5t35 -84.5q0 -51 -35 -85t-86 -34q-50 0 -83.5 34t-33.5 85zM608 1272q0 50 34 84.5t85 34.5q49 0 84 -34.5t35 -84.5q0 -51 -34.5 -85t-84.5 -34q-51 0 -85 34t-34 85zM102 264q0 127 82.5 203t216.5 96l267 39q75 10 75 74
q0 77 -53 126.5t-160 49.5q-98 0 -156 -54.5t-67 -144.5l-184 43q15 140 129 230t274 90q107 0 188 -29t128.5 -79.5t70.5 -114t23 -138.5v-493q0 -87 12 -162h-188q-10 62 -10 133q-40 -66 -119.5 -115t-198.5 -49q-146 0 -238 87t-92 208zM459 131q129 0 206.5 69.5
t77.5 221.5v45l-301 -45q-65 -9 -104 -47t-39 -101q0 -58 44.5 -100.5t115.5 -42.5z" />
    <glyph glyph-name="aring" unicode="&#xe5;" horiz-adv-x="1071" 
d="M764 1313q0 -93 -67.5 -158t-161.5 -65q-92 0 -160 65t-68 158q0 94 68 159.5t160 65.5q94 0 161.5 -65t67.5 -160zM633 1313q0 41 -29.5 70.5t-71.5 29.5q-41 0 -68.5 -29t-27.5 -71t27.5 -70.5t68.5 -28.5q43 0 72 29t29 70zM102 264q0 127 82.5 203t216.5 96l267 39
q75 10 75 74q0 77 -53 126.5t-160 49.5q-98 0 -156 -54.5t-67 -144.5l-184 43q15 140 129 230t274 90q107 0 188 -29t128.5 -79.5t70.5 -114t23 -138.5v-493q0 -87 12 -162h-188q-10 62 -10 133q-40 -66 -119.5 -115t-198.5 -49q-146 0 -238 87t-92 208zM459 131
q129 0 206.5 69.5t77.5 221.5v45l-301 -45q-65 -9 -104 -47t-39 -101q0 -58 44.5 -100.5t115.5 -42.5z" />
    <glyph glyph-name="ae" unicode="&#xe6;" horiz-adv-x="1789" 
d="M1702 281q-43 -135 -163.5 -223.5t-278.5 -88.5q-126 0 -234 55t-176 158q-117 -213 -395 -213q-162 0 -257.5 86t-95.5 209q0 127 82.5 203t216.5 96l285 39q78 12 78 74q0 75 -59 126.5t-166 51.5q-100 0 -163.5 -55t-72.5 -137l-180 34q9 95 73.5 170t155.5 112.5
t187 37.5q122 0 211.5 -44t138.5 -120q67 77 157 120.5t189 43.5q223 0 348 -140.5t125 -375.5q0 -42 -4 -62h-741q3 -130 88 -214.5t209 -84.5q208 0 274 199zM1507 594q-3 110 -74 181t-196 71q-116 0 -189 -75t-79 -177h538zM469 131q55 0 104.5 15.5t93.5 48t70.5 90.5
t26.5 135v47l-322 -45q-67 -9 -105 -47.5t-38 -104.5q0 -57 46 -98t124 -41z" />
    <glyph glyph-name="ccedilla" unicode="&#xe7;" horiz-adv-x="1085" 
d="M451 -129l65 102q-190 23 -312 170t-122 351q0 226 142 374t354 148q94 0 172.5 -27.5t130.5 -74t85.5 -100t49.5 -112.5l-174 -73q-23 87 -86.5 148t-177.5 61q-124 0 -211.5 -92t-87.5 -252q0 -161 87.5 -254t213.5 -93q63 0 114 20t82 53t49.5 64.5t28.5 65.5l170 -74
q-17 -51 -46 -97t-72.5 -89t-106.5 -73.5t-137 -41.5l-48 -71q87 0 143 -46t56 -122q0 -77 -61 -128.5t-179 -51.5q-73 0 -132.5 25.5t-92.5 64.5l76 92q65 -70 147 -70q40 0 68.5 17.5t28.5 50.5q0 29 -24 47t-66 18q-33 0 -60 -10z" />
    <glyph glyph-name="egrave" unicode="&#xe8;" horiz-adv-x="1110" 
d="M319 1354h222l86 -254h-146zM1022 281q-43 -137 -160 -224.5t-282 -87.5q-134 0 -245.5 61t-181 183t-69.5 283q0 113 39 211t103.5 165t150 105.5t178.5 38.5q223 0 348 -140.5t125 -375.5q0 -38 -4 -62h-741q3 -131 87.5 -215t209.5 -84q210 0 276 199zM827 594
q-3 111 -73.5 181.5t-196.5 70.5q-116 0 -189 -75t-79 -177h538z" />
    <glyph glyph-name="eacute" unicode="&#xe9;" horiz-adv-x="1110" 
d="M649 1100h-145l86 254h221zM1022 281q-43 -137 -160 -224.5t-282 -87.5q-134 0 -245.5 61t-181 183t-69.5 283q0 113 39 211t103.5 165t150 105.5t178.5 38.5q223 0 348 -140.5t125 -375.5q0 -38 -4 -62h-741q3 -131 87.5 -215t209.5 -84q210 0 276 199zM827 594
q-3 111 -73.5 181.5t-196.5 70.5q-116 0 -189 -75t-79 -177h538z" />
    <glyph glyph-name="ecircumflex" unicode="&#xea;" horiz-adv-x="1110" 
d="M260 1128l195 261h198l195 -261h-164l-131 152l-131 -152h-162zM1022 281q-43 -137 -160 -224.5t-282 -87.5q-134 0 -245.5 61t-181 183t-69.5 283q0 113 39 211t103.5 165t150 105.5t178.5 38.5q223 0 348 -140.5t125 -375.5q0 -38 -4 -62h-741q3 -131 87.5 -215
t209.5 -84q210 0 276 199zM827 594q-3 111 -73.5 181.5t-196.5 70.5q-116 0 -189 -75t-79 -177h538z" />
    <glyph glyph-name="edieresis" unicode="&#xeb;" horiz-adv-x="1110" 
d="M258 1272q0 50 34 84.5t83 34.5q51 0 86 -34.5t35 -84.5q0 -51 -35 -85t-86 -34q-50 0 -83.5 34t-33.5 85zM641 1272q0 50 34 84.5t85 34.5q50 0 84.5 -34.5t34.5 -84.5q0 -51 -34.5 -85t-84.5 -34q-51 0 -85 34t-34 85zM1022 281q-43 -137 -160 -224.5t-282 -87.5
q-134 0 -245.5 61t-181 183t-69.5 283q0 113 39 211t103.5 165t150 105.5t178.5 38.5q223 0 348 -140.5t125 -375.5q0 -38 -4 -62h-741q3 -131 87.5 -215t209.5 -84q210 0 276 199zM827 594q-3 111 -73.5 181.5t-196.5 70.5q-116 0 -189 -75t-79 -177h538z" />
    <glyph glyph-name="igrave" unicode="&#xec;" horiz-adv-x="518" 
d="M25 1354h221l86 -254h-146zM164 0v985h190v-985h-190z" />
    <glyph glyph-name="iacute" unicode="&#xed;" horiz-adv-x="518" 
d="M354 1100h-145l86 254h221zM164 0v985h190v-985h-190z" />
    <glyph glyph-name="icircumflex" unicode="&#xee;" horiz-adv-x="518" 
d="M-61 1116l213 285h219l213 -285h-181l-143 166l-143 -166h-178zM164 0v985h190v-985h-190z" />
    <glyph glyph-name="idieresis" unicode="&#xef;" horiz-adv-x="518" 
d="M6 1272q0 46 31.5 78t77.5 32t78 -32t32 -78t-32 -77.5t-78 -31.5t-77.5 31.5t-31.5 77.5zM295 1272q0 46 31 78t77 32t78.5 -32t32.5 -78t-32.5 -77.5t-78.5 -31.5t-77 31.5t-31 77.5zM164 0v985h190v-985h-190z" />
    <glyph glyph-name="eth" unicode="&#xf0;" horiz-adv-x="1167" 
d="M807 1227q280 -260 280 -692q0 -120 -34.5 -223t-98.5 -178.5t-159 -119t-211 -43.5q-220 0 -361 140t-141 354q0 110 40.5 203t107 153.5t151 94.5t174.5 34q199 0 287 -102q-64 170 -207 293l-268 -133l-60 129l193 96q-93 52 -230 94l60 156q185 -42 356 -158l223 113
l64 -129zM584 143q129 0 217 85.5t88 236.5q0 152 -87.5 236.5t-217.5 84.5q-129 0 -218.5 -86t-89.5 -235q0 -150 89 -236t219 -86z" />
    <glyph glyph-name="ntilde" unicode="&#xf1;" horiz-adv-x="1150" 
d="M926 1356q0 -110 -55 -166.5t-144 -56.5q-65 0 -135 45l-29 18q-49 29 -76 29q-31 0 -45 -19.5t-14 -68.5h-147v30q0 110 55.5 167t144.5 57q67 0 137 -45l29 -19q49 -29 74 -29q31 0 45 19.5t14 68.5h146v-30zM356 0h-192v985h188v-141q51 88 130.5 129t172.5 41
q171 0 262 -108.5t91 -280.5v-625h-193v592q0 113 -54 180.5t-175 67.5q-110 0 -170 -76.5t-60 -194.5v-569z" />
    <glyph glyph-name="ograve" unicode="&#xf2;" horiz-adv-x="1171" 
d="M350 1354h221l86 -254h-145zM586 1016q220 0 362 -148.5t142 -373.5q0 -227 -142 -376t-362 -149t-362 149t-142 376q0 225 142 373.5t362 148.5zM586 141q130 0 218.5 94t88.5 259q0 163 -89 256.5t-218 93.5t-218 -93.5t-89 -256.5q0 -165 88.5 -259t218.5 -94z" />
    <glyph glyph-name="oacute" unicode="&#xf3;" horiz-adv-x="1171" 
d="M680 1100h-145l86 254h221zM586 1016q220 0 362 -148.5t142 -373.5q0 -227 -142 -376t-362 -149t-362 149t-142 376q0 225 142 373.5t362 148.5zM586 141q130 0 218.5 94t88.5 259q0 163 -89 256.5t-218 93.5t-218 -93.5t-89 -256.5q0 -165 88.5 -259t218.5 -94z" />
    <glyph glyph-name="ocircumflex" unicode="&#xf4;" horiz-adv-x="1171" 
d="M291 1128l194 261h199l195 -261h-164l-131 152l-131 -152h-162zM586 1016q220 0 362 -148.5t142 -373.5q0 -227 -142 -376t-362 -149t-362 149t-142 376q0 225 142 373.5t362 148.5zM586 141q130 0 218.5 94t88.5 259q0 163 -89 256.5t-218 93.5t-218 -93.5t-89 -256.5
q0 -165 88.5 -259t218.5 -94z" />
    <glyph glyph-name="otilde" unicode="&#xf5;" horiz-adv-x="1171" 
d="M879 1348q0 -99 -50.5 -151t-130.5 -52q-59 0 -125 41l-24 16q-48 27 -70 27q-27 0 -40 -18t-13 -64h-135v29q0 99 50.5 150.5t131.5 51.5q63 0 125 -41l27 -16q4 -2 13.5 -8t14 -8t12 -5.5t14 -4.5t13.5 -1q28 0 40.5 18.5t12.5 63.5h134v-28zM586 1016
q220 0 362 -148.5t142 -373.5q0 -227 -142 -376t-362 -149t-362 149t-142 376q0 225 142 373.5t362 148.5zM586 141q130 0 218.5 94t88.5 259q0 163 -89 256.5t-218 93.5t-218 -93.5t-89 -256.5q0 -165 88.5 -259t218.5 -94z" />
    <glyph glyph-name="odieresis" unicode="&#xf6;" horiz-adv-x="1171" 
d="M274 1272q0 50 34 84.5t83 34.5q51 0 86 -34.5t35 -84.5q0 -51 -35 -85t-86 -34q-50 0 -83.5 34t-33.5 85zM657 1272q0 50 34 84.5t85 34.5q50 0 84.5 -34.5t34.5 -84.5q0 -51 -34.5 -85t-84.5 -34q-51 0 -85 34t-34 85zM586 1016q220 0 362 -148.5t142 -373.5
q0 -227 -142 -376t-362 -149t-362 149t-142 376q0 225 142 373.5t362 148.5zM586 141q130 0 218.5 94t88.5 259q0 163 -89 256.5t-218 93.5t-218 -93.5t-89 -256.5q0 -165 88.5 -259t218.5 -94z" />
    <glyph glyph-name="divide" unicode="&#xf7;" horiz-adv-x="1161" 
d="M446 952q0 54 40 92.5t94 38.5t92.5 -38.5t38.5 -92.5t-38.5 -93.5t-92.5 -39.5t-94 39.5t-40 93.5zM113 674h936v-170h-936v170zM446 225q0 54 40 92.5t94 38.5t92.5 -38.5t38.5 -92.5t-38.5 -93.5t-92.5 -39.5t-94 39.5t-40 93.5z" />
    <glyph glyph-name="oslash" unicode="&#xf8;" horiz-adv-x="1171" 
d="M586 1016q137 0 256 -66l102 133l123 -98l-104 -135q127 -146 127 -356q0 -227 -142 -376t-362 -149q-136 0 -254 64l-101 -129l-122 98l100 131q-127 146 -127 361q0 225 142 373.5t362 148.5zM279 494q0 -117 51 -207l401 520q-67 37 -145 37q-129 0 -218 -93.5
t-89 -256.5zM586 141q130 0 218.5 94t88.5 259q0 118 -49 202l-402 -520q60 -35 144 -35z" />
    <glyph glyph-name="ugrave" unicode="&#xf9;" horiz-adv-x="1159" 
d="M344 1354h221l86 -254h-145zM813 119q-38 -73 -118.5 -111.5t-172.5 -38.5q-168 0 -268 112t-100 284v620h192v-592q0 -111 54.5 -182.5t168.5 -71.5t174 68t60 184v594h192v-803q0 -86 11 -182h-185q-8 46 -8 119z" />
    <glyph glyph-name="uacute" unicode="&#xfa;" horiz-adv-x="1159" 
d="M674 1100h-146l86 254h222zM813 119q-38 -73 -118.5 -111.5t-172.5 -38.5q-168 0 -268 112t-100 284v620h192v-592q0 -111 54.5 -182.5t168.5 -71.5t174 68t60 184v594h192v-803q0 -86 11 -182h-185q-8 46 -8 119z" />
    <glyph glyph-name="ucircumflex" unicode="&#xfb;" horiz-adv-x="1159" 
d="M252 1116l213 285h219l213 -285h-180l-144 166l-143 -166h-178zM813 119q-38 -73 -118.5 -111.5t-172.5 -38.5q-168 0 -268 112t-100 284v620h192v-592q0 -111 54.5 -182.5t168.5 -71.5t174 68t60 184v594h192v-803q0 -86 11 -182h-185q-8 46 -8 119z" />
    <glyph glyph-name="udieresis" unicode="&#xfc;" horiz-adv-x="1159" 
d="M262 1272q0 50 34 84.5t83 34.5q51 0 86 -34.5t35 -84.5q0 -51 -35 -85t-86 -34q-50 0 -83.5 34t-33.5 85zM645 1272q0 50 34 84.5t85 34.5q50 0 84.5 -34.5t34.5 -84.5q0 -51 -34.5 -85t-84.5 -34q-51 0 -85 34t-34 85zM813 119q-38 -73 -118.5 -111.5t-172.5 -38.5
q-168 0 -268 112t-100 284v620h192v-592q0 -111 54.5 -182.5t168.5 -71.5t174 68t60 184v594h192v-803q0 -86 11 -182h-185q-8 46 -8 119z" />
    <glyph glyph-name="yacute" unicode="&#xfd;" horiz-adv-x="1071" 
d="M631 1100h-146l86 254h222zM199 -412l245 521l-424 876h222l307 -680l295 680h207l-641 -1397h-211z" />
    <glyph glyph-name="thorn" unicode="&#xfe;" horiz-adv-x="1214" 
d="M164 -389v1872h192v-641q44 73 129 119.5t195 46.5q143 0 247.5 -69.5t155 -184t50.5 -260.5q0 -226 -124 -373.5t-335 -147.5q-109 0 -193.5 45t-126.5 115v-522h-190zM936 494q0 151 -79 247.5t-212 96.5q-131 0 -212 -97.5t-81 -246.5q0 -153 81 -251t212 -98
q132 0 211.5 97.5t79.5 251.5z" />
    <glyph glyph-name="ydieresis" unicode="&#xff;" horiz-adv-x="1071" 
d="M225 1272q0 50 34 84.5t83 34.5q51 0 86 -34.5t35 -84.5q0 -51 -35 -85t-86 -34q-50 0 -83.5 34t-33.5 85zM608 1272q0 50 34 84.5t85 34.5q49 0 84 -34.5t35 -84.5q0 -51 -34.5 -85t-84.5 -34q-51 0 -85 34t-34 85zM199 -412l245 521l-424 876h222l307 -680l295 680h207
l-641 -1397h-211z" />
    <glyph glyph-name="Abreve" unicode="&#x102;" horiz-adv-x="1427" 
d="M715 1595q-125 0 -198 80t-75 187h138q2 -50 36 -86.5t99 -36.5t99 37t36 86h137q-2 -108 -73.5 -187.5t-198.5 -79.5zM1032 406h-643l-153 -406h-216l578 1452h231l578 -1452h-217zM461 592h500l-252 651z" />
    <glyph glyph-name="abreve" unicode="&#x103;" horiz-adv-x="1071" 
d="M537 1128q-125 0 -198 80t-75 187h137q2 -50 36.5 -86.5t99.5 -36.5t99 37t36 86h137q-2 -108 -73.5 -187.5t-198.5 -79.5zM102 264q0 127 82.5 203t216.5 96l267 39q75 10 75 74q0 77 -53 126.5t-160 49.5q-98 0 -156 -54.5t-67 -144.5l-184 43q15 140 129 230t274 90
q107 0 188 -29t128.5 -79.5t70.5 -114t23 -138.5v-493q0 -87 12 -162h-188q-10 62 -10 133q-40 -66 -119.5 -115t-198.5 -49q-146 0 -238 87t-92 208zM459 131q129 0 206.5 69.5t77.5 221.5v45l-301 -45q-65 -9 -104 -47t-39 -101q0 -58 44.5 -100.5t115.5 -42.5z" />
    <glyph glyph-name="Dcroat" unicode="&#x110;" horiz-adv-x="1482" 
d="M193 0v666h-156v168h156v618h507q140 0 264 -47.5t219.5 -137t151.5 -230t56 -314.5q0 -173 -56.5 -312.5t-153 -228t-221 -135.5t-264.5 -47h-503zM690 178q102 0 190.5 34.5t157 100.5t107.5 171.5t39 238.5q0 134 -38.5 240.5t-106 173.5t-155.5 102t-190 35h-301
v-440h250v-168h-250v-488h297z" />
    <glyph glyph-name="dcroat" unicode="&#x111;" horiz-adv-x="1204" 
d="M1126 1133h-86v-951q0 -94 11 -182h-187q-10 58 -10 133v17q-38 -77 -117 -127t-188 -50q-141 0 -248.5 70t-163 188t-55.5 265q0 140 57.5 257t165.5 188t244 71q120 0 196.5 -48.5t104.5 -117.5v287h-279v127h279v223h190v-223h86v-127zM567 143q130 0 207.5 101
t77.5 256q0 154 -76 248t-207 94t-210.5 -96t-79.5 -250q0 -156 76.5 -254.5t211.5 -98.5z" />
    <glyph glyph-name="Itilde" unicode="&#x128;" horiz-adv-x="573" 
d="M580 1815q0 -99 -50.5 -151t-130.5 -52q-59 0 -125 41l-24 16q-48 27 -70 27q-27 0 -40 -18t-13 -64h-135v28q0 99 51 151t131 52q63 0 125 -41l27 -16q4 -2 13.5 -8t14 -8t12 -5.5t14 -4.5t13.5 -1q28 0 40.5 18.5t12.5 63.5h134v-28zM184 0v1452h205v-1452h-205z" />
    <glyph glyph-name="itilde" unicode="&#x129;" horiz-adv-x="518" 
d="M553 1348q0 -99 -50 -151t-130 -52q-59 0 -125 41l-25 16q-48 27 -69 27q-28 0 -41 -18.5t-13 -63.5h-135v29q0 99 50.5 150.5t131.5 51.5q63 0 125 -41l27 -16q48 -27 68 -27q28 0 40.5 18.5t12.5 63.5h133v-28zM164 0v985h190v-985h-190z" />
    <glyph glyph-name="dotlessi" unicode="&#x131;" horiz-adv-x="518" 
d="M164 0v985h190v-985h-190z" />
    <glyph glyph-name="Lslash" unicode="&#x141;" horiz-adv-x="1144" 
d="M207 0v592l-197 -86v178l197 86v682h201v-592l321 141v-178l-321 -143v-492h686v-188h-887z" />
    <glyph glyph-name="lslash" unicode="&#x142;" horiz-adv-x="589" 
d="M193 0v557l-183 -80v178l183 80v748h192v-662l195 86v-178l-195 -86v-643h-192z" />
    <glyph glyph-name="OE" unicode="&#x152;" horiz-adv-x="2351" 
d="M1346 0v190q-102 -108 -239.5 -164.5t-285.5 -56.5q-110 0 -216 31.5t-198.5 96t-163 153.5t-111 212.5t-40.5 264.5t40.5 264t111 212t163 153t198.5 95.5t216 31.5q148 0 285.5 -56.5t239.5 -164.5v190h882v-186h-682v-447h619v-188h-619v-445h682v-186h-882zM297 727
q0 -137 43.5 -248.5t117.5 -181t167 -106.5t196 -37t196 37t167 106.5t118 181t44 248.5t-44 248t-118 180.5t-167 106t-196 36.5t-196 -36.5t-167 -106t-117.5 -180.5t-43.5 -248z" />
    <glyph glyph-name="oe" unicode="&#x153;" horiz-adv-x="1918" 
d="M1831 281q-43 -137 -160 -224.5t-282 -87.5q-121 0 -226.5 51.5t-173.5 147.5q-67 -94 -171.5 -146.5t-231.5 -52.5q-220 0 -362 149t-142 376q0 225 142 373.5t362 148.5q127 0 231.5 -53.5t171.5 -147.5q66 94 165.5 147.5t209.5 53.5q223 0 348 -140.5t125 -375.5
q0 -38 -4 -62h-741q3 -130 88 -214.5t209 -84.5q210 0 276 199zM1636 594q-3 110 -74 181t-196 71q-116 0 -189 -75t-79 -177h538zM586 141q130 0 218.5 94t88.5 259q0 163 -89 256.5t-218 93.5t-218 -93.5t-89 -256.5q0 -165 88.5 -259t218.5 -94z" />
    <glyph glyph-name="Scaron" unicode="&#x160;" horiz-adv-x="1214" 
d="M459 1798l166 -131l174 131h188l-239 -244h-246l-230 244h187zM930 1059q-6 42 -26.5 83t-56 79.5t-94 62t-130.5 23.5q-122 0 -201.5 -70t-79.5 -172q0 -80 47.5 -135.5t138.5 -75.5l217 -47q180 -39 278.5 -147t98.5 -261q0 -85 -35.5 -162.5t-98.5 -137t-158.5 -95
t-208.5 -35.5q-126 0 -228 38t-166 101t-101 137.5t-48 155.5l192 62q5 -62 30 -117t67 -99t107 -69.5t144 -25.5q145 0 222.5 65.5t77.5 165.5q0 81 -56 141.5t-162 83.5l-206 45q-162 35 -258.5 138t-96.5 260q0 112 63 211.5t174 160t242 60.5q94 0 173.5 -22.5
t132.5 -58.5t93 -85t61 -96.5t32 -98.5z" />
    <glyph glyph-name="scaron" unicode="&#x161;" horiz-adv-x="925" 
d="M319 1407l144 -166l143 166h180l-208 -291h-228l-209 291h178zM246 317q9 -81 69 -132.5t160 -51.5q78 0 123 38t45 93q0 46 -33 80t-94 47l-168 37q-115 25 -180.5 98.5t-65.5 178.5q0 127 103.5 219t247.5 92q77 0 140.5 -19.5t102.5 -48t68 -66t42.5 -68.5t20.5 -62
l-170 -64q-3 18 -9 37t-21.5 42.5t-36.5 41.5t-57 30.5t-80 12.5q-71 0 -117.5 -39t-46.5 -92q0 -95 112 -119l160 -35q132 -29 202.5 -106t70.5 -187q0 -54 -22.5 -106.5t-65.5 -97.5t-114 -73t-159 -28q-96 0 -173.5 28.5t-123.5 73.5t-71.5 92t-32.5 93z" />
    <glyph glyph-name="Utilde" unicode="&#x168;" horiz-adv-x="1372" 
d="M979 1815q0 -99 -50 -151t-130 -52q-59 0 -125 41l-25 16q-48 27 -69 27q-28 0 -41 -18.5t-13 -63.5h-135v28q0 99 51 151t131 52q63 0 125 -41l27 -16q48 -27 68 -27q28 0 40.5 18.5t12.5 63.5h133v-28zM686 -31q-149 0 -266 59.5t-186.5 180.5t-69.5 287v956h198v-950
q0 -165 85.5 -255.5t238.5 -90.5q154 0 238 90t84 256v950h200v-956q0 -166 -69.5 -287t-186.5 -180.5t-266 -59.5z" />
    <glyph glyph-name="utilde" unicode="&#x169;" horiz-adv-x="1159" 
d="M872 1348q0 -99 -50 -151t-130 -52q-59 0 -125 41l-24 16q-48 27 -70 27q-27 0 -40 -18t-13 -64h-135v29q0 99 50.5 150.5t131.5 51.5q63 0 125 -41l26 -16q48 -27 68 -27q28 0 40.5 18.5t12.5 63.5h133v-28zM813 119q-38 -73 -118.5 -111.5t-172.5 -38.5
q-168 0 -268 112t-100 284v620h192v-592q0 -111 54.5 -182.5t168.5 -71.5t174 68t60 184v594h192v-803q0 -86 11 -182h-185q-8 46 -8 119z" />
    <glyph glyph-name="Ydieresis" unicode="&#x178;" horiz-adv-x="1265" 
d="M276 1677q0 51 35 86t86 35t86 -35t35 -86t-35 -86t-86 -35t-86 35t-35 86zM750 1677q0 51 34.5 86t85.5 35t86 -35t35 -86t-35 -86t-86 -35t-85.5 35t-34.5 86zM20 1452h242l377 -647l377 647h229l-512 -831v-621h-201v621z" />
    <glyph glyph-name="Zcaron" unicode="&#x17d;" horiz-adv-x="1294" 
d="M492 1798l165 -131l174 131h189l-240 -244h-245l-230 244h187zM92 0v201l866 1065h-845v186h1089v-195l-870 -1069h880v-188h-1120z" />
    <glyph glyph-name="zcaron" unicode="&#x17e;" horiz-adv-x="954" 
d="M338 1407l143 -166l144 166h180l-209 -291h-227l-209 291h178zM82 0v168l541 643h-533v174h772v-168l-540 -643h550v-174h-790z" />
    <glyph glyph-name="florin" unicode="&#x192;" horiz-adv-x="985" 
d="M403 815h-225v170h260l47 232q29 148 122.5 222t215.5 74q87 0 152 -20v-170q-51 14 -109 14q-25 0 -45 -3t-44.5 -14.5t-43.5 -31t-36 -55t-27 -84.5l-33 -164h264v-170h-299l-168 -842q-29 -148 -122.5 -222.5t-215.5 -74.5q-89 0 -157 21v170q51 -14 114 -14
q32 0 57.5 6.5t54.5 24t51 57.5t34 100z" />
    <glyph glyph-name="Ohorn" unicode="&#x1a0;" horiz-adv-x="1642" 
d="M1212 1372q154 -97 246 -262t92 -383q0 -141 -40.5 -264.5t-111 -212.5t-163 -153.5t-198.5 -96t-216 -31.5t-216 31.5t-198.5 96t-163 153.5t-111 212.5t-40.5 264.5t40.5 264t111 212t163 153t198.5 95.5t216 31.5q104 0 209 -31q44 4 70.5 25.5t34.5 47t10 62.5h166
q-7 -132 -99 -215zM821 154q103 0 196 37t167 106.5t118 181t44 248.5t-44 248t-118 180.5t-167 106t-196 36.5t-196 -36.5t-167 -106t-117.5 -180.5t-43.5 -248t43.5 -248.5t117.5 -181t167 -106.5t196 -37z" />
    <glyph glyph-name="ohorn" unicode="&#x1a1;" horiz-adv-x="1171" 
d="M928 887q77 -71 119.5 -172.5t42.5 -220.5q0 -227 -142 -376t-362 -149t-362 149t-142 376q0 225 142 373.5t362 148.5q95 0 180 -31q65 4 89 40.5t28 94.5h166q-5 -69 -34.5 -131t-86.5 -102zM586 141q130 0 218.5 94t88.5 259q0 163 -89 256.5t-218 93.5t-218 -93.5
t-89 -256.5q0 -165 88.5 -259t218.5 -94z" />
    <glyph glyph-name="Uhorn" unicode="&#x1af;" horiz-adv-x="1372" 
d="M1403 1587q-5 -88 -54 -164t-141 -106v-821q0 -166 -69.5 -287t-186.5 -180.5t-266 -59.5t-266 59.5t-186.5 180.5t-69.5 287v956h198v-950q0 -165 85.5 -255.5t238.5 -90.5q154 0 238 90t84 256v950h96q75 0 102 36t31 99h166z" />
    <glyph glyph-name="uhorn" unicode="&#x1b0;" horiz-adv-x="1159" 
d="M1212 1120q-3 -60 -25.5 -114t-72 -99.5t-119.5 -62.5v-662q0 -86 11 -182h-185q-8 46 -8 119q-38 -73 -118.5 -111.5t-172.5 -38.5q-168 0 -268 112t-100 284v620h192v-592q0 -111 54.5 -182.5t168.5 -71.5t174 68t60 184v594h110q75 0 102.5 36.5t31.5 98.5h165z" />
    <glyph glyph-name="caron" unicode="&#x2c7;" horiz-adv-x="788" 
d="M250 1407l143 -166l144 166h180l-209 -291h-227l-209 291h178z" />
    <glyph glyph-name="uni02C9" unicode="&#x2c9;" horiz-adv-x="702" 
d="M72 1182v166h559v-166h-559z" />
    <glyph glyph-name="dotaccent" unicode="&#x2d9;" horiz-adv-x="356" 
d="M51 1262q0 52 37.5 89.5t89.5 37.5t89.5 -37.5t37.5 -89.5t-37.5 -89.5t-89.5 -37.5t-89.5 37.5t-37.5 89.5z" />
    <glyph glyph-name="ring" unicode="&#x2da;" horiz-adv-x="600" 
d="M528 1313q0 -93 -67.5 -158t-161.5 -65q-92 0 -159.5 65t-67.5 158q0 94 67.5 159.5t159.5 65.5q94 0 161.5 -65t67.5 -160zM397 1313q0 42 -29 71t-71 29q-41 0 -68.5 -29t-27.5 -71t27.5 -70.5t68.5 -28.5q43 0 71.5 29t28.5 70z" />
    <glyph glyph-name="ogonek" unicode="&#x2db;" horiz-adv-x="477" 
d="M68 -236q0 176 208 269l130 -33q-175 -83 -175 -199q0 -49 31.5 -72.5t77.5 -23.5q34 0 66 8v-139q-43 -16 -103 -16q-99 0 -167 55.5t-68 150.5z" />
    <glyph glyph-name="hungarumlaut" unicode="&#x2dd;" horiz-adv-x="751" 
d="M207 1112h-135l104 299h215zM475 1112h-135l125 299h215z" />
    <glyph glyph-name="gravecomb" unicode="&#x300;" horiz-adv-x="0" 
d="M-395 1391h221l86 -254h-145z" />
    <glyph glyph-name="acutecomb" unicode="&#x301;" horiz-adv-x="0" 
d="M-324 1137h-145l86 254h221z" />
    <glyph glyph-name="uni0302" unicode="&#x302;" horiz-adv-x="0" 
d="M-688 1128l194 261h199l195 -261h-164l-131 152l-131 -152h-162z" />
    <glyph glyph-name="tildecomb" unicode="&#x303;" horiz-adv-x="0" 
d="M-92 1348q0 -99 -50 -151t-130 -52q-59 0 -125 41l-25 16q-48 27 -70 27q-27 0 -40 -18t-13 -64h-135v29q0 99 50.5 150.5t131.5 51.5q63 0 125 -41l27 -16q4 -2 13.5 -8t14 -8t12 -5.5t14 -4.5t13.5 -1q28 0 41 18.5t13 63.5h133v-28z" />
    <glyph glyph-name="uni0306" unicode="&#x306;" horiz-adv-x="0" 
d="M-371 1128q-125 0 -197.5 79.5t-74.5 187.5h137q2 -50 36 -86.5t99 -36.5t99 37t36 86h138q-2 -108 -74 -187.5t-199 -79.5z" />
    <glyph glyph-name="hookabovecomb" unicode="&#x309;" horiz-adv-x="0" 
d="M-752 1143l54 57q13 15 24.5 42.5t11.5 43.5q0 24 -17 41.5t-48 18.5q-32 1 -50 -19.5t-18 -48.5q0 -19 2 -23l-114 25q-5 22 -4 29q36 149 184 149q79 0 133.5 -40t54.5 -130q0 -75 -55 -121l-82 -69z" />
    <glyph glyph-name="uni031B" unicode="&#x31b;" horiz-adv-x="0" 
d="M-410 836v149q75 0 102.5 36.5t31.5 98.5h165q-3 -52 -21.5 -100t-53 -90.5t-92.5 -68t-132 -25.5z" />
    <glyph glyph-name="dotbelowcomb" unicode="&#x323;" horiz-adv-x="0" 
d="M-293 -225q0 47 34 81.5t81 34.5t82 -34.5t35 -81.5q0 -46 -35 -80.5t-82 -34.5t-81 34.5t-34 80.5z" />
    <glyph glyph-name="uni0326" unicode="&#x326;" horiz-adv-x="0" 
d="M-326 1350q0 48 36 77t85 29q53 0 93 -36.5t40 -112.5q0 -75 -36 -129t-87 -77.5t-110 -23.5v82q51 0 90.5 30t42.5 68q-12 -12 -43 -12q-49 0 -80 27t-31 78z" />
    <glyph glyph-name="uni0394" unicode="&#x394;" horiz-adv-x="1355" 
d="M569 1452h215l572 -1452h-1356zM285 184h784l-395 1039z" />
    <glyph glyph-name="uni03A9" unicode="&#x3a9;" horiz-adv-x="1630" 
d="M815 1303q-96 0 -187.5 -33.5t-166 -95.5t-119.5 -160.5t-45 -218.5q0 -107 38 -200.5t101 -158t137.5 -107t153.5 -59.5v-270h-625v180h414q-81 29 -155 84.5t-135 131.5t-97.5 179.5t-36.5 217.5q0 158 60 290t160.5 218.5t230.5 134t272 47.5t272 -47.5t230.5 -134
t160.5 -218.5t60 -290q0 -114 -36.5 -217.5t-97.5 -179.5t-136 -131.5t-156 -84.5h416v-180h-625v270q79 17 153.5 59.5t137.5 107t101 158t38 200.5q0 120 -45 218.5t-119.5 160.5t-166 95.5t-187.5 33.5z" />
    <glyph glyph-name="uni03BC" unicode="&#x3bc;" horiz-adv-x="1169" 
d="M823 119q-38 -73 -118.5 -111.5t-172.5 -38.5q-96 0 -176 41v-399h-192v1374h192v-592q0 -111 55 -182.5t169 -71.5t173.5 68t59.5 184v594h193v-803q0 -114 10 -182h-185q-8 46 -8 119z" />
    <glyph glyph-name="pi" unicode="&#x3c0;" horiz-adv-x="1259" 
d="M1157 10q-60 -24 -125 -24q-119 0 -180 70.5t-61 172.5v588h-338v-817h-193v817h-168v168h1061v-168h-170v-567q0 -52 30.5 -76t80.5 -24q36 0 63 8v-148z" />
    <glyph glyph-name="uni1EA0" unicode="&#x1ea0;" horiz-adv-x="1427" 
d="M1032 406h-643l-153 -406h-216l578 1452h231l578 -1452h-217zM461 592h500l-252 651zM600 -266q0 47 34 81.5t81 34.5t81.5 -34.5t34.5 -81.5q0 -46 -34.5 -80.5t-81.5 -34.5t-81 34.5t-34 80.5z" />
    <glyph glyph-name="uni1EA1" unicode="&#x1ea1;" horiz-adv-x="1071" 
d="M102 264q0 127 82.5 203t216.5 96l267 39q75 10 75 74q0 77 -53 126.5t-160 49.5q-98 0 -156 -54.5t-67 -144.5l-184 43q15 140 129 230t274 90q107 0 188 -29t128.5 -79.5t70.5 -114t23 -138.5v-493q0 -87 12 -162h-188q-10 62 -10 133q-40 -66 -119.5 -115t-198.5 -49
q-146 0 -238 87t-92 208zM459 131q129 0 206.5 69.5t77.5 221.5v45l-301 -45q-65 -9 -104 -47t-39 -101q0 -58 44.5 -100.5t115.5 -42.5zM422 -266q0 47 34 81.5t81 34.5t81.5 -34.5t34.5 -81.5q0 -46 -34.5 -80.5t-81.5 -34.5t-81 34.5t-34 80.5z" />
    <glyph glyph-name="uni1EA2" unicode="&#x1ea2;" horiz-adv-x="1427" 
d="M688 1610l53 57q13 15 25 43t12 43q0 24 -17 41t-48 18q-32 1 -50 -19t-18 -48q0 -19 2 -23l-115 25q-5 22 -4 29q36 149 185 149q79 0 133.5 -40t54.5 -130q0 -75 -55 -121l-82 -69zM1032 406h-643l-153 -406h-216l578 1452h231l578 -1452h-217zM461 592h500l-252 651z
" />
    <glyph glyph-name="uni1EA3" unicode="&#x1ea3;" horiz-adv-x="1071" 
d="M510 1143l53 57q13 15 25 43t12 43q0 24 -17 41.5t-48 18.5q-32 1 -50 -19.5t-18 -48.5q0 -19 2 -23l-115 25q-5 22 -4 29q36 149 185 149q79 0 133.5 -40t54.5 -130q0 -75 -55 -121l-82 -69zM102 264q0 127 82.5 203t216.5 96l267 39q75 10 75 74q0 77 -53 126.5
t-160 49.5q-98 0 -156 -54.5t-67 -144.5l-184 43q15 140 129 230t274 90q107 0 188 -29t128.5 -79.5t70.5 -114t23 -138.5v-493q0 -87 12 -162h-188q-10 62 -10 133q-40 -66 -119.5 -115t-198.5 -49q-146 0 -238 87t-92 208zM459 131q129 0 206.5 69.5t77.5 221.5v45
l-301 -45q-65 -9 -104 -47t-39 -101q0 -58 44.5 -100.5t115.5 -42.5z" />
    <glyph glyph-name="uni1EA4" unicode="&#x1ea4;" horiz-adv-x="1427" 
d="M1081 1776h-145l86 254h221zM420 1595l194 260h199l195 -260h-164l-131 152l-131 -152h-162zM1032 406h-643l-153 -406h-216l578 1452h231l578 -1452h-217zM461 592h500l-252 651z" />
    <glyph glyph-name="uni1EA5" unicode="&#x1ea5;" horiz-adv-x="1071" 
d="M903 1309h-145l86 254h221zM242 1128l194 261h199l194 -261h-163l-131 152l-132 -152h-161zM102 264q0 127 82.5 203t216.5 96l267 39q75 10 75 74q0 77 -53 126.5t-160 49.5q-98 0 -156 -54.5t-67 -144.5l-184 43q15 140 129 230t274 90q107 0 188 -29t128.5 -79.5
t70.5 -114t23 -138.5v-493q0 -87 12 -162h-188q-10 62 -10 133q-40 -66 -119.5 -115t-198.5 -49q-146 0 -238 87t-92 208zM459 131q129 0 206.5 69.5t77.5 221.5v45l-301 -45q-65 -9 -104 -47t-39 -101q0 -58 44.5 -100.5t115.5 -42.5z" />
    <glyph glyph-name="uni1EA6" unicode="&#x1ea6;" horiz-adv-x="1427" 
d="M805 2044h221l86 -254h-145zM420 1595l194 260h199l195 -260h-164l-131 152l-131 -152h-162zM1032 406h-643l-153 -406h-216l578 1452h231l578 -1452h-217zM461 592h500l-252 651z" />
    <glyph glyph-name="uni1EA7" unicode="&#x1ea7;" horiz-adv-x="1071" 
d="M627 1577h221l86 -254h-146zM242 1128l194 261h199l194 -261h-163l-131 152l-132 -152h-161zM102 264q0 127 82.5 203t216.5 96l267 39q75 10 75 74q0 77 -53 126.5t-160 49.5q-98 0 -156 -54.5t-67 -144.5l-184 43q15 140 129 230t274 90q107 0 188 -29t128.5 -79.5
t70.5 -114t23 -138.5v-493q0 -87 12 -162h-188q-10 62 -10 133q-40 -66 -119.5 -115t-198.5 -49q-146 0 -238 87t-92 208zM459 131q129 0 206.5 69.5t77.5 221.5v45l-301 -45q-65 -9 -104 -47t-39 -101q0 -58 44.5 -100.5t115.5 -42.5z" />
    <glyph glyph-name="uni1EA8" unicode="&#x1ea8;" horiz-adv-x="1427" 
d="M932 1833l53 57q13 15 25 43t12 43q0 24 -17.5 41.5t-48.5 18.5q-32 1 -49.5 -19t-17.5 -49q0 -18 2 -22l-115 24q-5 22 -4 29q36 149 184 149q79 0 134 -40t55 -130q0 -74 -55 -120l-82 -70zM420 1595l194 260h199l195 -260h-164l-131 152l-131 -152h-162zM1032 406
h-643l-153 -406h-216l578 1452h231l578 -1452h-217zM461 592h500l-252 651z" />
    <glyph glyph-name="uni1EA9" unicode="&#x1ea9;" horiz-adv-x="1071" 
d="M754 1366l53 57q13 15 25 43t12 43q0 24 -17.5 41.5t-48.5 18.5q-32 1 -49.5 -19t-17.5 -49q0 -18 2 -22l-115 24q-5 22 -4 29q36 149 184 149q79 0 134 -40t55 -130q0 -73 -56 -120l-82 -70zM242 1128l194 261h199l194 -261h-163l-131 152l-132 -152h-161zM102 264
q0 127 82.5 203t216.5 96l267 39q75 10 75 74q0 77 -53 126.5t-160 49.5q-98 0 -156 -54.5t-67 -144.5l-184 43q15 140 129 230t274 90q107 0 188 -29t128.5 -79.5t70.5 -114t23 -138.5v-493q0 -87 12 -162h-188q-10 62 -10 133q-40 -66 -119.5 -115t-198.5 -49
q-146 0 -238 87t-92 208zM459 131q129 0 206.5 69.5t77.5 221.5v45l-301 -45q-65 -9 -104 -47t-39 -101q0 -58 44.5 -100.5t115.5 -42.5z" />
    <glyph glyph-name="uni1EAA" unicode="&#x1eaa;" horiz-adv-x="1427" 
d="M1008 2136q0 -99 -50.5 -151t-130.5 -52q-59 0 -125 41l-24 17q-46 26 -70 26q-27 0 -40 -18t-13 -64h-135v29q0 99 51 151t131 52q63 0 125 -41l27 -17q46 -26 67 -26q28 0 40.5 18.5t12.5 63.5h134v-29zM420 1595l194 260h199l195 -260h-164l-131 152l-131 -152h-162z
M1032 406h-643l-153 -406h-216l578 1452h231l578 -1452h-217zM461 592h500l-252 651z" />
    <glyph glyph-name="uni1EAB" unicode="&#x1eab;" horiz-adv-x="1071" 
d="M829 1669q0 -99 -50 -151t-130 -52q-59 0 -125 41l-24 17q-46 26 -70 26q-27 0 -40 -18t-13 -64h-135v29q0 99 51 151t131 52q63 0 125 -41l26 -17q46 -26 68 -26q28 0 40.5 18.5t12.5 63.5h133v-29zM242 1128l194 261h199l194 -261h-163l-131 152l-132 -152h-161z
M102 264q0 127 82.5 203t216.5 96l267 39q75 10 75 74q0 77 -53 126.5t-160 49.5q-98 0 -156 -54.5t-67 -144.5l-184 43q15 140 129 230t274 90q107 0 188 -29t128.5 -79.5t70.5 -114t23 -138.5v-493q0 -87 12 -162h-188q-10 62 -10 133q-40 -66 -119.5 -115t-198.5 -49
q-146 0 -238 87t-92 208zM459 131q129 0 206.5 69.5t77.5 221.5v45l-301 -45q-65 -9 -104 -47t-39 -101q0 -58 44.5 -100.5t115.5 -42.5z" />
    <glyph glyph-name="uni1EAC" unicode="&#x1eac;" horiz-adv-x="1427" 
d="M420 1595l194 260h199l195 -260h-164l-131 152l-131 -152h-162zM1032 406h-643l-153 -406h-216l578 1452h231l578 -1452h-217zM461 592h500l-252 651zM600 -266q0 47 34 81.5t81 34.5t81.5 -34.5t34.5 -81.5q0 -46 -34.5 -80.5t-81.5 -34.5t-81 34.5t-34 80.5z" />
    <glyph glyph-name="uni1EAD" unicode="&#x1ead;" horiz-adv-x="1071" 
d="M242 1128l194 261h199l194 -261h-163l-131 152l-132 -152h-161zM102 264q0 127 82.5 203t216.5 96l267 39q75 10 75 74q0 77 -53 126.5t-160 49.5q-98 0 -156 -54.5t-67 -144.5l-184 43q15 140 129 230t274 90q107 0 188 -29t128.5 -79.5t70.5 -114t23 -138.5v-493
q0 -87 12 -162h-188q-10 62 -10 133q-40 -66 -119.5 -115t-198.5 -49q-146 0 -238 87t-92 208zM459 131q129 0 206.5 69.5t77.5 221.5v45l-301 -45q-65 -9 -104 -47t-39 -101q0 -58 44.5 -100.5t115.5 -42.5zM422 -266q0 47 34 81.5t81 34.5t81.5 -34.5t34.5 -81.5
q0 -46 -34.5 -80.5t-81.5 -34.5t-81 34.5t-34 80.5z" />
    <glyph glyph-name="uni1EAE" unicode="&#x1eae;" horiz-adv-x="1427" 
d="M782 1903h-145l86 254h221zM715 1595q-125 0 -198 80t-75 187h138q2 -50 36 -86.5t99 -36.5t99 37t36 86h137q-2 -108 -73.5 -187.5t-198.5 -79.5zM1032 406h-643l-153 -406h-216l578 1452h231l578 -1452h-217zM461 592h500l-252 651z" />
    <glyph glyph-name="uni1EAF" unicode="&#x1eaf;" horiz-adv-x="1071" 
d="M604 1436h-145l86 254h221zM537 1128q-125 0 -198 80t-75 187h137q2 -50 36.5 -86.5t99.5 -36.5t99 37t36 86h137q-2 -108 -73.5 -187.5t-198.5 -79.5zM102 264q0 127 82.5 203t216.5 96l267 39q75 10 75 74q0 77 -53 126.5t-160 49.5q-98 0 -156 -54.5t-67 -144.5
l-184 43q15 140 129 230t274 90q107 0 188 -29t128.5 -79.5t70.5 -114t23 -138.5v-493q0 -87 12 -162h-188q-10 62 -10 133q-40 -66 -119.5 -115t-198.5 -49q-146 0 -238 87t-92 208zM459 131q129 0 206.5 69.5t77.5 221.5v45l-301 -45q-65 -9 -104 -47t-39 -101
q0 -58 44.5 -100.5t115.5 -42.5z" />
    <glyph glyph-name="uni1EB0" unicode="&#x1eb0;" horiz-adv-x="1427" 
d="M498 2150h221l86 -254h-146zM715 1595q-125 0 -198 80t-75 187h138q2 -50 36 -86.5t99 -36.5t99 37t36 86h137q-2 -108 -73.5 -187.5t-198.5 -79.5zM1032 406h-643l-153 -406h-216l578 1452h231l578 -1452h-217zM461 592h500l-252 651z" />
    <glyph glyph-name="uni1EB1" unicode="&#x1eb1;" horiz-adv-x="1071" 
d="M319 1683h222l86 -253h-146zM537 1128q-125 0 -198 80t-75 187h137q2 -50 36.5 -86.5t99.5 -36.5t99 37t36 86h137q-2 -108 -73.5 -187.5t-198.5 -79.5zM102 264q0 127 82.5 203t216.5 96l267 39q75 10 75 74q0 77 -53 126.5t-160 49.5q-98 0 -156 -54.5t-67 -144.5
l-184 43q15 140 129 230t274 90q107 0 188 -29t128.5 -79.5t70.5 -114t23 -138.5v-493q0 -87 12 -162h-188q-10 62 -10 133q-40 -66 -119.5 -115t-198.5 -49q-146 0 -238 87t-92 208zM459 131q129 0 206.5 69.5t77.5 221.5v45l-301 -45q-65 -9 -104 -47t-39 -101
q0 -58 44.5 -100.5t115.5 -42.5z" />
    <glyph glyph-name="uni1EB2" unicode="&#x1eb2;" horiz-adv-x="1427" 
d="M645 1933l53 58q13 15 25 43t12 43q0 24 -17 41t-48 18q-32 1 -50 -19.5t-18 -48.5q0 -18 2 -22l-115 25q-5 21 -4 28q36 150 185 150q79 0 133.5 -40t54.5 -130q0 -75 -55 -121l-82 -70zM715 1595q-125 0 -198 80t-75 187h138q2 -50 36 -86.5t99 -36.5t99 37t36 86h137
q-2 -108 -73.5 -187.5t-198.5 -79.5zM1032 406h-643l-153 -406h-216l578 1452h231l578 -1452h-217zM461 592h500l-252 651z" />
    <glyph glyph-name="uni1EB3" unicode="&#x1eb3;" horiz-adv-x="1071" 
d="M467 1466l53 58q13 15 25 43t12 43q0 24 -17 41t-48 18q-32 1 -50 -19t-18 -48q0 -19 2 -23l-115 25q-5 21 -4 28q36 150 185 150q79 0 133.5 -40t54.5 -130q0 -75 -55 -121l-82 -70zM537 1128q-125 0 -198 80t-75 187h137q2 -50 36.5 -86.5t99.5 -36.5t99 37t36 86h137
q-2 -108 -73.5 -187.5t-198.5 -79.5zM102 264q0 127 82.5 203t216.5 96l267 39q75 10 75 74q0 77 -53 126.5t-160 49.5q-98 0 -156 -54.5t-67 -144.5l-184 43q15 140 129 230t274 90q107 0 188 -29t128.5 -79.5t70.5 -114t23 -138.5v-493q0 -87 12 -162h-188q-10 62 -10 133
q-40 -66 -119.5 -115t-198.5 -49q-146 0 -238 87t-92 208zM459 131q129 0 206.5 69.5t77.5 221.5v45l-301 -45q-65 -9 -104 -47t-39 -101q0 -58 44.5 -100.5t115.5 -42.5z" />
    <glyph glyph-name="uni1EB4" unicode="&#x1eb4;" horiz-adv-x="1427" 
d="M1022 2134q0 -99 -50 -151t-130 -52q-59 0 -125 41l-25 17q-46 26 -69 26q-28 0 -41 -18.5t-13 -63.5h-135v29q0 99 51 151t131 52q63 0 125 -41l27 -17q46 -26 68 -26q28 0 40.5 18.5t12.5 63.5h133v-29zM715 1595q-125 0 -198 80t-75 187h138q2 -50 36 -86.5t99 -36.5
t99 37t36 86h137q-2 -108 -73.5 -187.5t-198.5 -79.5zM1032 406h-643l-153 -406h-216l578 1452h231l578 -1452h-217zM461 592h500l-252 651z" />
    <glyph glyph-name="uni1EB5" unicode="&#x1eb5;" horiz-adv-x="1071" 
d="M844 1667q0 -99 -50 -151t-130 -52q-59 0 -125 41l-25 17q-46 26 -70 26q-27 0 -40 -18t-13 -64h-135v29q0 99 51 151t131 52q63 0 125 -41l27 -17q46 -26 67 -26q28 0 41 18.5t13 63.5h133v-29zM537 1128q-125 0 -198 80t-75 187h137q2 -50 36.5 -86.5t99.5 -36.5t99 37
t36 86h137q-2 -108 -73.5 -187.5t-198.5 -79.5zM102 264q0 127 82.5 203t216.5 96l267 39q75 10 75 74q0 77 -53 126.5t-160 49.5q-98 0 -156 -54.5t-67 -144.5l-184 43q15 140 129 230t274 90q107 0 188 -29t128.5 -79.5t70.5 -114t23 -138.5v-493q0 -87 12 -162h-188
q-10 62 -10 133q-40 -66 -119.5 -115t-198.5 -49q-146 0 -238 87t-92 208zM459 131q129 0 206.5 69.5t77.5 221.5v45l-301 -45q-65 -9 -104 -47t-39 -101q0 -58 44.5 -100.5t115.5 -42.5z" />
    <glyph glyph-name="uni1EB6" unicode="&#x1eb6;" horiz-adv-x="1427" 
d="M715 1595q-125 0 -198 80t-75 187h138q2 -50 36 -86.5t99 -36.5t99 37t36 86h137q-2 -108 -73.5 -187.5t-198.5 -79.5zM1032 406h-643l-153 -406h-216l578 1452h231l578 -1452h-217zM461 592h500l-252 651zM600 -266q0 47 34 81.5t81 34.5t81.5 -34.5t34.5 -81.5
q0 -46 -34.5 -80.5t-81.5 -34.5t-81 34.5t-34 80.5z" />
    <glyph glyph-name="uni1EB7" unicode="&#x1eb7;" horiz-adv-x="1071" 
d="M537 1128q-125 0 -198 80t-75 187h137q2 -50 36.5 -86.5t99.5 -36.5t99 37t36 86h137q-2 -108 -73.5 -187.5t-198.5 -79.5zM102 264q0 127 82.5 203t216.5 96l267 39q75 10 75 74q0 77 -53 126.5t-160 49.5q-98 0 -156 -54.5t-67 -144.5l-184 43q15 140 129 230t274 90
q107 0 188 -29t128.5 -79.5t70.5 -114t23 -138.5v-493q0 -87 12 -162h-188q-10 62 -10 133q-40 -66 -119.5 -115t-198.5 -49q-146 0 -238 87t-92 208zM459 131q129 0 206.5 69.5t77.5 221.5v45l-301 -45q-65 -9 -104 -47t-39 -101q0 -58 44.5 -100.5t115.5 -42.5zM422 -266
q0 47 34 81.5t81 34.5t81.5 -34.5t34.5 -81.5q0 -46 -34.5 -80.5t-81.5 -34.5t-81 34.5t-34 80.5z" />
    <glyph glyph-name="uni1EB8" unicode="&#x1eb8;" horiz-adv-x="1189" 
d="M184 0v1452h883v-186h-682v-447h619v-188h-619v-445h682v-186h-883zM481 -266q0 47 34 81.5t81 34.5t82 -34.5t35 -81.5q0 -46 -35 -80.5t-82 -34.5t-81 34.5t-34 80.5z" />
    <glyph glyph-name="uni1EB9" unicode="&#x1eb9;" horiz-adv-x="1110" 
d="M1022 281q-43 -137 -160 -224.5t-282 -87.5q-134 0 -245.5 61t-181 183t-69.5 283q0 113 39 211t103.5 165t150 105.5t178.5 38.5q223 0 348 -140.5t125 -375.5q0 -38 -4 -62h-741q3 -131 87.5 -215t209.5 -84q210 0 276 199zM827 594q-3 111 -73.5 181.5t-196.5 70.5
q-116 0 -189 -75t-79 -177h538zM440 -266q0 47 34 81.5t81 34.5t82 -34.5t35 -81.5q0 -46 -35 -80.5t-82 -34.5t-81 34.5t-34 80.5z" />
    <glyph glyph-name="uni1EBA" unicode="&#x1eba;" horiz-adv-x="1189" 
d="M569 1610l54 57q13 15 24.5 43t11.5 43q0 24 -17 41t-48 18q-32 1 -50 -19t-18 -48q0 -19 2 -23l-114 25q-5 22 -4 29q36 149 184 149q79 0 133.5 -40t54.5 -130q0 -75 -55 -121l-82 -69zM184 0v1452h883v-186h-682v-447h619v-188h-619v-445h682v-186h-883z" />
    <glyph glyph-name="uni1EBB" unicode="&#x1ebb;" horiz-adv-x="1110" 
d="M528 1143l54 57q13 15 24.5 42.5t11.5 43.5q0 24 -17 41.5t-48 18.5q-32 1 -50 -19.5t-18 -48.5q0 -19 2 -23l-114 25q-5 22 -4 29q36 149 184 149q79 0 133.5 -40t54.5 -130q0 -75 -55 -121l-82 -69zM1022 281q-43 -137 -160 -224.5t-282 -87.5q-134 0 -245.5 61
t-181 183t-69.5 283q0 113 39 211t103.5 165t150 105.5t178.5 38.5q223 0 348 -140.5t125 -375.5q0 -38 -4 -62h-741q3 -131 87.5 -215t209.5 -84q210 0 276 199zM827 594q-3 111 -73.5 181.5t-196.5 70.5q-116 0 -189 -75t-79 -177h538z" />
    <glyph glyph-name="uni1EBC" unicode="&#x1ebc;" horiz-adv-x="1189" 
d="M889 1815q0 -99 -50 -151t-130 -52q-59 0 -125 41l-25 16q-48 27 -70 27q-27 0 -40 -18t-13 -64h-135v28q0 99 51 151t131 52q63 0 125 -41l27 -16q4 -2 13.5 -8t14 -8t12 -5.5t14 -4.5t13.5 -1q28 0 41 18.5t13 63.5h133v-28zM184 0v1452h883v-186h-682v-447h619v-188
h-619v-445h682v-186h-883z" />
    <glyph glyph-name="uni1EBD" unicode="&#x1ebd;" horiz-adv-x="1110" 
d="M848 1348q0 -99 -50 -151t-130 -52q-59 0 -125 41l-25 16q-48 27 -69 27q-28 0 -41 -18.5t-13 -63.5h-135v29q0 99 50.5 150.5t131.5 51.5q63 0 125 -41l27 -16q48 -27 68 -27q28 0 40.5 18.5t12.5 63.5h133v-28zM1022 281q-43 -137 -160 -224.5t-282 -87.5
q-134 0 -245.5 61t-181 183t-69.5 283q0 113 39 211t103.5 165t150 105.5t178.5 38.5q223 0 348 -140.5t125 -375.5q0 -38 -4 -62h-741q3 -131 87.5 -215t209.5 -84q210 0 276 199zM827 594q-3 111 -73.5 181.5t-196.5 70.5q-116 0 -189 -75t-79 -177h538z" />
    <glyph glyph-name="uni1EBE" unicode="&#x1ebe;" horiz-adv-x="1189" 
d="M963 1776h-146l86 254h221zM301 1595l195 260h198l195 -260h-164l-131 152l-131 -152h-162zM184 0v1452h883v-186h-682v-447h619v-188h-619v-445h682v-186h-883z" />
    <glyph glyph-name="uni1EBF" unicode="&#x1ebf;" horiz-adv-x="1110" 
d="M922 1309h-146l86 254h221zM260 1128l195 261h198l195 -261h-164l-131 152l-131 -152h-162zM1022 281q-43 -137 -160 -224.5t-282 -87.5q-134 0 -245.5 61t-181 183t-69.5 283q0 113 39 211t103.5 165t150 105.5t178.5 38.5q223 0 348 -140.5t125 -375.5q0 -38 -4 -62
h-741q3 -131 87.5 -215t209.5 -84q210 0 276 199zM827 594q-3 111 -73.5 181.5t-196.5 70.5q-116 0 -189 -75t-79 -177h538z" />
    <glyph glyph-name="uni1EC0" unicode="&#x1ec0;" horiz-adv-x="1189" 
d="M686 2044h221l86 -254h-145zM301 1595l195 260h198l195 -260h-164l-131 152l-131 -152h-162zM184 0v1452h883v-186h-682v-447h619v-188h-619v-445h682v-186h-883z" />
    <glyph glyph-name="uni1EC1" unicode="&#x1ec1;" horiz-adv-x="1110" 
d="M645 1577h221l86 -254h-145zM260 1128l195 261h198l195 -261h-164l-131 152l-131 -152h-162zM1022 281q-43 -137 -160 -224.5t-282 -87.5q-134 0 -245.5 61t-181 183t-69.5 283q0 113 39 211t103.5 165t150 105.5t178.5 38.5q223 0 348 -140.5t125 -375.5q0 -38 -4 -62
h-741q3 -131 87.5 -215t209.5 -84q210 0 276 199zM827 594q-3 111 -73.5 181.5t-196.5 70.5q-116 0 -189 -75t-79 -177h538z" />
    <glyph glyph-name="uni1EC2" unicode="&#x1ec2;" horiz-adv-x="1189" 
d="M813 1833l53 57q13 15 25 43t12 43q0 24 -17 41.5t-48 18.5q-32 1 -50 -19.5t-18 -48.5q0 -18 2 -22l-115 24q-5 22 -4 29q36 149 185 149q79 0 133.5 -40t54.5 -130q0 -74 -55 -120l-82 -70zM301 1595l195 260h198l195 -260h-164l-131 152l-131 -152h-162zM184 0v1452
h883v-186h-682v-447h619v-188h-619v-445h682v-186h-883z" />
    <glyph glyph-name="uni1EC3" unicode="&#x1ec3;" horiz-adv-x="1110" 
d="M772 1366l53 57q13 15 25 43t12 43q0 25 -17 42t-48 18q-32 1 -50 -19.5t-18 -48.5q0 -18 2 -22l-115 24q-5 22 -4 29q36 149 185 149q79 0 133.5 -40t54.5 -130q0 -74 -55 -120l-82 -70zM260 1128l195 261h198l195 -261h-164l-131 152l-131 -152h-162zM1022 281
q-43 -137 -160 -224.5t-282 -87.5q-134 0 -245.5 61t-181 183t-69.5 283q0 113 39 211t103.5 165t150 105.5t178.5 38.5q223 0 348 -140.5t125 -375.5q0 -38 -4 -62h-741q3 -131 87.5 -215t209.5 -84q210 0 276 199zM827 594q-3 111 -73.5 181.5t-196.5 70.5
q-116 0 -189 -75t-79 -177h538z" />
    <glyph glyph-name="uni1EC4" unicode="&#x1ec4;" horiz-adv-x="1189" 
d="M889 2136q0 -99 -50 -151t-130 -52q-59 0 -125 41l-25 17q-46 26 -70 26q-27 0 -40 -18t-13 -64h-135v29q0 99 51 151t131 52q63 0 125 -41l27 -17q46 -26 67 -26q28 0 41 18.5t13 63.5h133v-29zM301 1595l195 260h198l195 -260h-164l-131 152l-131 -152h-162zM184 0
v1452h883v-186h-682v-447h619v-188h-619v-445h682v-186h-883z" />
    <glyph glyph-name="uni1EC5" unicode="&#x1ec5;" horiz-adv-x="1110" 
d="M848 1669q0 -99 -50 -151t-130 -52q-59 0 -125 41l-25 17q-46 26 -69 26q-28 0 -41 -18.5t-13 -63.5h-135v29q0 99 51 151t131 52q63 0 125 -41l27 -17q46 -26 68 -26q28 0 40.5 18.5t12.5 63.5h133v-29zM260 1128l195 261h198l195 -261h-164l-131 152l-131 -152h-162z
M1022 281q-43 -137 -160 -224.5t-282 -87.5q-134 0 -245.5 61t-181 183t-69.5 283q0 113 39 211t103.5 165t150 105.5t178.5 38.5q223 0 348 -140.5t125 -375.5q0 -38 -4 -62h-741q3 -131 87.5 -215t209.5 -84q210 0 276 199zM827 594q-3 111 -73.5 181.5t-196.5 70.5
q-116 0 -189 -75t-79 -177h538z" />
    <glyph glyph-name="uni1EC6" unicode="&#x1ec6;" horiz-adv-x="1189" 
d="M301 1595l195 260h198l195 -260h-164l-131 152l-131 -152h-162zM184 0v1452h883v-186h-682v-447h619v-188h-619v-445h682v-186h-883zM481 -266q0 47 34 81.5t81 34.5t82 -34.5t35 -81.5q0 -46 -35 -80.5t-82 -34.5t-81 34.5t-34 80.5z" />
    <glyph glyph-name="uni1EC7" unicode="&#x1ec7;" horiz-adv-x="1110" 
d="M260 1128l195 261h198l195 -261h-164l-131 152l-131 -152h-162zM1022 281q-43 -137 -160 -224.5t-282 -87.5q-134 0 -245.5 61t-181 183t-69.5 283q0 113 39 211t103.5 165t150 105.5t178.5 38.5q223 0 348 -140.5t125 -375.5q0 -38 -4 -62h-741q3 -131 87.5 -215
t209.5 -84q210 0 276 199zM827 594q-3 111 -73.5 181.5t-196.5 70.5q-116 0 -189 -75t-79 -177h538zM440 -266q0 47 34 81.5t81 34.5t82 -34.5t35 -81.5q0 -46 -35 -80.5t-82 -34.5t-81 34.5t-34 80.5z" />
    <glyph glyph-name="uni1EC8" unicode="&#x1ec8;" horiz-adv-x="573" 
d="M260 1610l53 57q13 15 25 43t12 43q0 24 -17 41t-48 18q-32 1 -50 -19t-18 -48q0 -19 2 -23l-115 25q-5 22 -4 29q36 149 185 149q79 0 133.5 -40t54.5 -130q0 -75 -55 -121l-82 -69zM184 0v1452h205v-1452h-205z" />
    <glyph glyph-name="uni1EC9" unicode="&#x1ec9;" horiz-adv-x="518" 
d="M233 1143l54 57q13 15 25 43t12 43q0 24 -17.5 41.5t-48.5 18.5q-32 1 -50 -19.5t-18 -48.5q0 -17 3 -23l-115 25q-5 22 -4 29q36 149 184 149q79 0 133.5 -40t54.5 -130q0 -75 -55 -121l-82 -69zM164 0v985h190v-985h-190z" />
    <glyph glyph-name="uni1ECA" unicode="&#x1eca;" horiz-adv-x="573" 
d="M184 0v1452h205v-1452h-205zM172 -266q0 47 34 81.5t81 34.5t81.5 -34.5t34.5 -81.5q0 -46 -34.5 -80.5t-81.5 -34.5t-81 34.5t-34 80.5z" />
    <glyph glyph-name="uni1ECB" unicode="&#x1ecb;" horiz-adv-x="518" 
d="M121 1358q0 58 40 98.5t97 40.5q58 0 98.5 -40.5t40.5 -98.5q0 -57 -40.5 -97t-98.5 -40q-57 0 -97 40t-40 97zM164 0v985h190v-985h-190zM145 -266q0 47 34 81.5t81 34.5t82 -34.5t35 -81.5q0 -46 -35 -80.5t-82 -34.5t-81 34.5t-34 80.5z" />
    <glyph glyph-name="uni1ECC" unicode="&#x1ecc;" horiz-adv-x="1642" 
d="M92 727q0 141 40.5 264t111 212t163 153t198.5 95.5t216 31.5t216 -31.5t198.5 -95.5t163 -153t111 -212t40.5 -264t-40.5 -264.5t-111 -212.5t-163 -153.5t-198.5 -96t-216 -31.5t-216 31.5t-198.5 96t-163 153.5t-111 212.5t-40.5 264.5zM297 727q0 -137 43.5 -248.5
t117.5 -181t167 -106.5t196 -37t196 37t167 106.5t118 181t44 248.5t-44 248t-118 180.5t-167 106t-196 36.5t-196 -36.5t-167 -106t-117.5 -180.5t-43.5 -248zM707 -266q0 47 33.5 81.5t80.5 34.5t82 -34.5t35 -81.5q0 -46 -35 -80.5t-82 -34.5t-80.5 34.5t-33.5 80.5z" />
    <glyph glyph-name="uni1ECD" unicode="&#x1ecd;" horiz-adv-x="1171" 
d="M586 1016q220 0 362 -148.5t142 -373.5q0 -227 -142 -376t-362 -149t-362 149t-142 376q0 225 142 373.5t362 148.5zM586 141q130 0 218.5 94t88.5 259q0 163 -89 256.5t-218 93.5t-218 -93.5t-89 -256.5q0 -165 88.5 -259t218.5 -94zM471 -266q0 47 34 81.5t81 34.5
t81.5 -34.5t34.5 -81.5q0 -46 -34.5 -80.5t-81.5 -34.5t-81 34.5t-34 80.5z" />
    <glyph glyph-name="uni1ECE" unicode="&#x1ece;" horiz-adv-x="1642" 
d="M795 1610l53 57q13 15 25 43t12 43q0 24 -17.5 41t-48.5 18q-32 1 -49.5 -18.5t-17.5 -48.5q0 -19 2 -23l-115 25q-5 22 -4 29q36 149 184 149q79 0 134 -40t55 -130q0 -74 -56 -121l-82 -69zM92 727q0 141 40.5 264t111 212t163 153t198.5 95.5t216 31.5t216 -31.5
t198.5 -95.5t163 -153t111 -212t40.5 -264t-40.5 -264.5t-111 -212.5t-163 -153.5t-198.5 -96t-216 -31.5t-216 31.5t-198.5 96t-163 153.5t-111 212.5t-40.5 264.5zM297 727q0 -137 43.5 -248.5t117.5 -181t167 -106.5t196 -37t196 37t167 106.5t118 181t44 248.5t-44 248
t-118 180.5t-167 106t-196 36.5t-196 -36.5t-167 -106t-117.5 -180.5t-43.5 -248z" />
    <glyph glyph-name="uni1ECF" unicode="&#x1ecf;" horiz-adv-x="1171" 
d="M559 1143l53 57q13 15 25 43t12 43q0 24 -17 41.5t-48 18.5q-32 1 -50 -19.5t-18 -48.5q0 -19 2 -23l-115 25q-5 22 -4 29q36 149 185 149q79 0 133.5 -40t54.5 -130q0 -75 -55 -121l-82 -69zM586 1016q220 0 362 -148.5t142 -373.5q0 -227 -142 -376t-362 -149t-362 149
t-142 376q0 225 142 373.5t362 148.5zM586 141q130 0 218.5 94t88.5 259q0 163 -89 256.5t-218 93.5t-218 -93.5t-89 -256.5q0 -165 88.5 -259t218.5 -94z" />
    <glyph glyph-name="uni1ED0" unicode="&#x1ed0;" horiz-adv-x="1642" 
d="M1188 1776h-146l86 254h222zM526 1595l195 260h199l194 -260h-164l-131 152l-131 -152h-162zM92 727q0 141 40.5 264t111 212t163 153t198.5 95.5t216 31.5t216 -31.5t198.5 -95.5t163 -153t111 -212t40.5 -264t-40.5 -264.5t-111 -212.5t-163 -153.5t-198.5 -96
t-216 -31.5t-216 31.5t-198.5 96t-163 153.5t-111 212.5t-40.5 264.5zM297 727q0 -137 43.5 -248.5t117.5 -181t167 -106.5t196 -37t196 37t167 106.5t118 181t44 248.5t-44 248t-118 180.5t-167 106t-196 36.5t-196 -36.5t-167 -106t-117.5 -180.5t-43.5 -248z" />
    <glyph glyph-name="uni1ED1" unicode="&#x1ed1;" horiz-adv-x="1171" 
d="M952 1309h-145l86 254h221zM291 1128l194 261h199l195 -261h-164l-131 152l-131 -152h-162zM586 1016q220 0 362 -148.5t142 -373.5q0 -227 -142 -376t-362 -149t-362 149t-142 376q0 225 142 373.5t362 148.5zM586 141q130 0 218.5 94t88.5 259q0 163 -89 256.5
t-218 93.5t-218 -93.5t-89 -256.5q0 -165 88.5 -259t218.5 -94z" />
    <glyph glyph-name="uni1ED2" unicode="&#x1ed2;" horiz-adv-x="1642" 
d="M911 2044h222l86 -254h-146zM526 1595l195 260h199l194 -260h-164l-131 152l-131 -152h-162zM92 727q0 141 40.5 264t111 212t163 153t198.5 95.5t216 31.5t216 -31.5t198.5 -95.5t163 -153t111 -212t40.5 -264t-40.5 -264.5t-111 -212.5t-163 -153.5t-198.5 -96
t-216 -31.5t-216 31.5t-198.5 96t-163 153.5t-111 212.5t-40.5 264.5zM297 727q0 -137 43.5 -248.5t117.5 -181t167 -106.5t196 -37t196 37t167 106.5t118 181t44 248.5t-44 248t-118 180.5t-167 106t-196 36.5t-196 -36.5t-167 -106t-117.5 -180.5t-43.5 -248z" />
    <glyph glyph-name="uni1ED3" unicode="&#x1ed3;" horiz-adv-x="1171" 
d="M676 1577h221l86 -254h-145zM291 1128l194 261h199l195 -261h-164l-131 152l-131 -152h-162zM586 1016q220 0 362 -148.5t142 -373.5q0 -227 -142 -376t-362 -149t-362 149t-142 376q0 225 142 373.5t362 148.5zM586 141q130 0 218.5 94t88.5 259q0 163 -89 256.5
t-218 93.5t-218 -93.5t-89 -256.5q0 -165 88.5 -259t218.5 -94z" />
    <glyph glyph-name="uni1ED4" unicode="&#x1ed4;" horiz-adv-x="1642" 
d="M1038 1833l54 57q13 15 24.5 42.5t11.5 43.5q0 24 -17 41.5t-48 18.5q-32 1 -50 -19.5t-18 -48.5q0 -18 2 -22l-114 24q-5 22 -4 29q36 149 184 149q79 0 133.5 -40t54.5 -130q0 -74 -55 -120l-82 -70zM526 1595l195 260h199l194 -260h-164l-131 152l-131 -152h-162z
M92 727q0 141 40.5 264t111 212t163 153t198.5 95.5t216 31.5t216 -31.5t198.5 -95.5t163 -153t111 -212t40.5 -264t-40.5 -264.5t-111 -212.5t-163 -153.5t-198.5 -96t-216 -31.5t-216 31.5t-198.5 96t-163 153.5t-111 212.5t-40.5 264.5zM297 727q0 -137 43.5 -248.5
t117.5 -181t167 -106.5t196 -37t196 37t167 106.5t118 181t44 248.5t-44 248t-118 180.5t-167 106t-196 36.5t-196 -36.5t-167 -106t-117.5 -180.5t-43.5 -248z" />
    <glyph glyph-name="uni1ED5" unicode="&#x1ed5;" horiz-adv-x="1171" 
d="M803 1366l53 57q13 15 25 43t12 43q0 24 -17.5 41.5t-48.5 18.5q-32 1 -49.5 -19t-17.5 -49q0 -18 2 -22l-115 24q-5 22 -4 29q36 149 184 149q79 0 134 -40t55 -130q0 -74 -55 -120l-82 -70zM291 1128l194 261h199l195 -261h-164l-131 152l-131 -152h-162zM586 1016
q220 0 362 -148.5t142 -373.5q0 -227 -142 -376t-362 -149t-362 149t-142 376q0 225 142 373.5t362 148.5zM586 141q130 0 218.5 94t88.5 259q0 163 -89 256.5t-218 93.5t-218 -93.5t-89 -256.5q0 -165 88.5 -259t218.5 -94z" />
    <glyph glyph-name="uni1ED6" unicode="&#x1ed6;" horiz-adv-x="1642" 
d="M1114 2136q0 -99 -50 -151t-130 -52q-59 0 -125 41l-25 17q-46 26 -69 26q-27 0 -40 -18t-13 -64h-136v29q0 99 51 151t132 52q63 0 125 -41l26 -17q46 -26 68 -26q28 0 40.5 18.5t12.5 63.5h133v-29zM526 1595l195 260h199l194 -260h-164l-131 152l-131 -152h-162z
M92 727q0 141 40.5 264t111 212t163 153t198.5 95.5t216 31.5t216 -31.5t198.5 -95.5t163 -153t111 -212t40.5 -264t-40.5 -264.5t-111 -212.5t-163 -153.5t-198.5 -96t-216 -31.5t-216 31.5t-198.5 96t-163 153.5t-111 212.5t-40.5 264.5zM297 727q0 -137 43.5 -248.5
t117.5 -181t167 -106.5t196 -37t196 37t167 106.5t118 181t44 248.5t-44 248t-118 180.5t-167 106t-196 36.5t-196 -36.5t-167 -106t-117.5 -180.5t-43.5 -248z" />
    <glyph glyph-name="uni1ED7" unicode="&#x1ed7;" horiz-adv-x="1171" 
d="M879 1669q0 -99 -50.5 -151t-130.5 -52q-59 0 -125 41l-24 17q-46 26 -70 26q-27 0 -40 -18t-13 -64h-135v29q0 99 51 151t131 52q63 0 125 -41l27 -17q46 -26 67 -26q28 0 40.5 18.5t12.5 63.5h134v-29zM291 1128l194 261h199l195 -261h-164l-131 152l-131 -152h-162z
M586 1016q220 0 362 -148.5t142 -373.5q0 -227 -142 -376t-362 -149t-362 149t-142 376q0 225 142 373.5t362 148.5zM586 141q130 0 218.5 94t88.5 259q0 163 -89 256.5t-218 93.5t-218 -93.5t-89 -256.5q0 -165 88.5 -259t218.5 -94z" />
    <glyph glyph-name="uni1ED8" unicode="&#x1ed8;" horiz-adv-x="1642" 
d="M526 1595l195 260h199l194 -260h-164l-131 152l-131 -152h-162zM92 727q0 141 40.5 264t111 212t163 153t198.5 95.5t216 31.5t216 -31.5t198.5 -95.5t163 -153t111 -212t40.5 -264t-40.5 -264.5t-111 -212.5t-163 -153.5t-198.5 -96t-216 -31.5t-216 31.5t-198.5 96
t-163 153.5t-111 212.5t-40.5 264.5zM297 727q0 -137 43.5 -248.5t117.5 -181t167 -106.5t196 -37t196 37t167 106.5t118 181t44 248.5t-44 248t-118 180.5t-167 106t-196 36.5t-196 -36.5t-167 -106t-117.5 -180.5t-43.5 -248zM707 -266q0 47 33.5 81.5t80.5 34.5t82 -34.5
t35 -81.5q0 -46 -35 -80.5t-82 -34.5t-80.5 34.5t-33.5 80.5z" />
    <glyph glyph-name="uni1ED9" unicode="&#x1ed9;" horiz-adv-x="1171" 
d="M291 1128l194 261h199l195 -261h-164l-131 152l-131 -152h-162zM586 1016q220 0 362 -148.5t142 -373.5q0 -227 -142 -376t-362 -149t-362 149t-142 376q0 225 142 373.5t362 148.5zM586 141q130 0 218.5 94t88.5 259q0 163 -89 256.5t-218 93.5t-218 -93.5t-89 -256.5
q0 -165 88.5 -259t218.5 -94zM471 -266q0 47 34 81.5t81 34.5t81.5 -34.5t34.5 -81.5q0 -46 -34.5 -80.5t-81.5 -34.5t-81 34.5t-34 80.5z" />
    <glyph glyph-name="uni1EDA" unicode="&#x1eda;" horiz-adv-x="1642" 
d="M1077 1821l-162 -254h-145l86 254h221zM1212 1372q154 -97 246 -262t92 -383q0 -141 -40.5 -264.5t-111 -212.5t-163 -153.5t-198.5 -96t-216 -31.5t-216 31.5t-198.5 96t-163 153.5t-111 212.5t-40.5 264.5t40.5 264t111 212t163 153t198.5 95.5t216 31.5q104 0 209 -31
q44 4 70.5 25.5t34.5 47t10 62.5h166q-7 -132 -99 -215zM821 154q103 0 196 37t167 106.5t118 181t44 248.5t-44 248t-118 180.5t-167 106t-196 36.5t-196 -36.5t-167 -106t-117.5 -180.5t-43.5 -248t43.5 -248.5t117.5 -181t167 -106.5t196 -37z" />
    <glyph glyph-name="uni1EDB" unicode="&#x1edb;" horiz-adv-x="1171" 
d="M842 1354l-162 -254h-145l86 254h221zM928 887q77 -71 119.5 -172.5t42.5 -220.5q0 -227 -142 -376t-362 -149t-362 149t-142 376q0 225 142 373.5t362 148.5q95 0 180 -31q65 4 89 40.5t28 94.5h166q-5 -69 -34.5 -131t-86.5 -102zM586 141q130 0 218.5 94t88.5 259
q0 163 -89 256.5t-218 93.5t-218 -93.5t-89 -256.5q0 -165 88.5 -259t218.5 -94z" />
    <glyph glyph-name="uni1EDC" unicode="&#x1edc;" horiz-adv-x="1642" 
d="M893 1567h-145l-162 254h221zM1212 1372q154 -97 246 -262t92 -383q0 -141 -40.5 -264.5t-111 -212.5t-163 -153.5t-198.5 -96t-216 -31.5t-216 31.5t-198.5 96t-163 153.5t-111 212.5t-40.5 264.5t40.5 264t111 212t163 153t198.5 95.5t216 31.5q104 0 209 -31
q44 4 70.5 25.5t34.5 47t10 62.5h166q-7 -132 -99 -215zM821 154q103 0 196 37t167 106.5t118 181t44 248.5t-44 248t-118 180.5t-167 106t-196 36.5t-196 -36.5t-167 -106t-117.5 -180.5t-43.5 -248t43.5 -248.5t117.5 -181t167 -106.5t196 -37z" />
    <glyph glyph-name="uni1EDD" unicode="&#x1edd;" horiz-adv-x="1171" 
d="M657 1100h-145l-162 254h221zM928 887q77 -71 119.5 -172.5t42.5 -220.5q0 -227 -142 -376t-362 -149t-362 149t-142 376q0 225 142 373.5t362 148.5q95 0 180 -31q65 4 89 40.5t28 94.5h166q-5 -69 -34.5 -131t-86.5 -102zM586 141q130 0 218.5 94t88.5 259
q0 163 -89 256.5t-218 93.5t-218 -93.5t-89 -256.5q0 -165 88.5 -259t218.5 -94z" />
    <glyph glyph-name="uni1EDE" unicode="&#x1ede;" horiz-adv-x="1642" 
d="M754 1722l-115 25q-5 22 -4 29q36 149 184 149q79 0 134 -40t55 -130q0 -74 -56 -121l-82 -69l-75 45l53 57q13 15 25 43t12 43q0 24 -17.5 41t-48.5 18q-32 1 -49.5 -18.5t-17.5 -48.5q0 -19 2 -23zM1212 1372q154 -97 246 -262t92 -383q0 -141 -40.5 -264.5
t-111 -212.5t-163 -153.5t-198.5 -96t-216 -31.5t-216 31.5t-198.5 96t-163 153.5t-111 212.5t-40.5 264.5t40.5 264t111 212t163 153t198.5 95.5t216 31.5q104 0 209 -31q44 4 70.5 25.5t34.5 47t10 62.5h166q-7 -132 -99 -215zM821 154q103 0 196 37t167 106.5t118 181
t44 248.5t-44 248t-118 180.5t-167 106t-196 36.5t-196 -36.5t-167 -106t-117.5 -180.5t-43.5 -248t43.5 -248.5t117.5 -181t167 -106.5t196 -37z" />
    <glyph glyph-name="uni1EDF" unicode="&#x1edf;" horiz-adv-x="1171" 
d="M518 1255l-115 25q-5 22 -4 29q36 149 185 149q79 0 133.5 -40t54.5 -130q0 -75 -55 -121l-82 -69l-76 45l53 57q13 15 25 43t12 43q0 24 -17 41.5t-48 18.5q-32 1 -50 -19.5t-18 -48.5q0 -19 2 -23zM928 887q77 -71 119.5 -172.5t42.5 -220.5q0 -227 -142 -376
t-362 -149t-362 149t-142 376q0 225 142 373.5t362 148.5q95 0 180 -31q65 4 89 40.5t28 94.5h166q-5 -69 -34.5 -131t-86.5 -102zM586 141q130 0 218.5 94t88.5 259q0 163 -89 256.5t-218 93.5t-218 -93.5t-89 -256.5q0 -165 88.5 -259t218.5 -94z" />
    <glyph glyph-name="uni1EE0" unicode="&#x1ee0;" horiz-adv-x="1642" 
d="M715 1696q-27 0 -40 -18t-13 -64h-136v28q0 99 51 151t132 52q63 0 125 -41l26 -16q48 -27 68 -27q28 0 40.5 18.5t12.5 63.5h133v-28q0 -99 -50 -151t-130 -52q-59 0 -125 41l-25 16q-48 27 -69 27zM1212 1372q154 -97 246 -262t92 -383q0 -141 -40.5 -264.5
t-111 -212.5t-163 -153.5t-198.5 -96t-216 -31.5t-216 31.5t-198.5 96t-163 153.5t-111 212.5t-40.5 264.5t40.5 264t111 212t163 153t198.5 95.5t216 31.5q104 0 209 -31q44 4 70.5 25.5t34.5 47t10 62.5h166q-7 -132 -99 -215zM821 154q103 0 196 37t167 106.5t118 181
t44 248.5t-44 248t-118 180.5t-167 106t-196 36.5t-196 -36.5t-167 -106t-117.5 -180.5t-43.5 -248t43.5 -248.5t117.5 -181t167 -106.5t196 -37z" />
    <glyph glyph-name="uni1EE1" unicode="&#x1ee1;" horiz-adv-x="1171" 
d="M479 1229q-27 0 -40 -18t-13 -64h-135v29q0 99 50.5 150.5t131.5 51.5q63 0 125 -41l27 -16q4 -2 13.5 -8t14 -8t12 -5.5t14 -4.5t13.5 -1q28 0 40.5 18.5t12.5 63.5h134v-28q0 -99 -50.5 -151t-130.5 -52q-59 0 -125 41l-24 16q-48 27 -70 27zM928 887
q77 -71 119.5 -172.5t42.5 -220.5q0 -227 -142 -376t-362 -149t-362 149t-142 376q0 225 142 373.5t362 148.5q95 0 180 -31q65 4 89 40.5t28 94.5h166q-5 -69 -34.5 -131t-86.5 -102zM586 141q130 0 218.5 94t88.5 259q0 163 -89 256.5t-218 93.5t-218 -93.5t-89 -256.5
q0 -165 88.5 -259t218.5 -94z" />
    <glyph glyph-name="uni1EE2" unicode="&#x1ee2;" horiz-adv-x="1642" 
d="M1212 1372q154 -97 246 -262t92 -383q0 -141 -40.5 -264.5t-111 -212.5t-163 -153.5t-198.5 -96t-216 -31.5t-216 31.5t-198.5 96t-163 153.5t-111 212.5t-40.5 264.5t40.5 264t111 212t163 153t198.5 95.5t216 31.5q104 0 209 -31q44 4 70.5 25.5t34.5 47t10 62.5h166
q-7 -132 -99 -215zM821 154q103 0 196 37t167 106.5t118 181t44 248.5t-44 248t-118 180.5t-167 106t-196 36.5t-196 -36.5t-167 -106t-117.5 -180.5t-43.5 -248t43.5 -248.5t117.5 -181t167 -106.5t196 -37zM821 -150q47 0 82 -34.5t35 -81.5q0 -46 -35 -80.5t-82 -34.5
t-80.5 34.5t-33.5 80.5q0 47 33.5 81.5t80.5 34.5z" />
    <glyph glyph-name="uni1EE3" unicode="&#x1ee3;" horiz-adv-x="1171" 
d="M928 887q77 -71 119.5 -172.5t42.5 -220.5q0 -227 -142 -376t-362 -149t-362 149t-142 376q0 225 142 373.5t362 148.5q95 0 180 -31q65 4 89 40.5t28 94.5h166q-5 -69 -34.5 -131t-86.5 -102zM586 141q130 0 218.5 94t88.5 259q0 163 -89 256.5t-218 93.5t-218 -93.5
t-89 -256.5q0 -165 88.5 -259t218.5 -94zM586 -150q47 0 81.5 -34.5t34.5 -81.5q0 -46 -34.5 -80.5t-81.5 -34.5t-81 34.5t-34 80.5q0 47 34 81.5t81 34.5z" />
    <glyph glyph-name="uni1EE4" unicode="&#x1ee4;" horiz-adv-x="1372" 
d="M686 -31q-149 0 -266 59.5t-186.5 180.5t-69.5 287v956h198v-950q0 -165 85.5 -255.5t238.5 -90.5q154 0 238 90t84 256v950h200v-956q0 -166 -69.5 -287t-186.5 -180.5t-266 -59.5zM571 -266q0 47 34 81.5t81 34.5t82 -34.5t35 -81.5q0 -46 -35 -80.5t-82 -34.5
t-81 34.5t-34 80.5z" />
    <glyph glyph-name="uni1EE5" unicode="&#x1ee5;" horiz-adv-x="1159" 
d="M813 119q-38 -73 -118.5 -111.5t-172.5 -38.5q-168 0 -268 112t-100 284v620h192v-592q0 -111 54.5 -182.5t168.5 -71.5t174 68t60 184v594h192v-803q0 -86 11 -182h-185q-8 46 -8 119zM465 -266q0 47 34 81.5t81 34.5t81.5 -34.5t34.5 -81.5q0 -46 -34.5 -80.5
t-81.5 -34.5t-81 34.5t-34 80.5z" />
    <glyph glyph-name="uni1EE6" unicode="&#x1ee6;" horiz-adv-x="1372" 
d="M659 1610l54 57q13 15 25 43t12 43q0 24 -17.5 41t-48.5 18q-32 1 -50 -19t-18 -48q0 -19 2 -23l-114 25q-5 22 -4 29q36 149 184 149q79 0 133.5 -40t54.5 -130q0 -75 -55 -121l-82 -69zM686 -31q-149 0 -266 59.5t-186.5 180.5t-69.5 287v956h198v-950
q0 -165 85.5 -255.5t238.5 -90.5q154 0 238 90t84 256v950h200v-956q0 -166 -69.5 -287t-186.5 -180.5t-266 -59.5z" />
    <glyph glyph-name="uni1EE7" unicode="&#x1ee7;" horiz-adv-x="1159" 
d="M553 1143l53 57q13 15 25 43t12 43q0 24 -17 41.5t-48 18.5q-32 1 -50 -19.5t-18 -48.5q0 -19 2 -23l-115 25q-5 22 -4 29q36 149 185 149q79 0 133.5 -40t54.5 -130q0 -75 -55 -121l-82 -69zM813 119q-38 -73 -118.5 -111.5t-172.5 -38.5q-168 0 -268 112t-100 284v620
h192v-592q0 -111 54.5 -182.5t168.5 -71.5t174 68t60 184v594h192v-803q0 -86 11 -182h-185q-8 46 -8 119z" />
    <glyph glyph-name="uni1EE8" unicode="&#x1ee8;" horiz-adv-x="1372" 
d="M942 1821l-162 -254h-145l86 254h221zM1403 1587q-5 -88 -54 -164t-141 -106v-821q0 -166 -69.5 -287t-186.5 -180.5t-266 -59.5t-266 59.5t-186.5 180.5t-69.5 287v956h198v-950q0 -165 85.5 -255.5t238.5 -90.5q154 0 238 90t84 256v950h96q75 0 102 36t31 99h166z" />
    <glyph glyph-name="uni1EE9" unicode="&#x1ee9;" horiz-adv-x="1159" 
d="M836 1354l-162 -254h-146l86 254h222zM1212 1120q-3 -60 -25.5 -114t-72 -99.5t-119.5 -62.5v-662q0 -86 11 -182h-185q-8 46 -8 119q-38 -73 -118.5 -111.5t-172.5 -38.5q-168 0 -268 112t-100 284v620h192v-592q0 -111 54.5 -182.5t168.5 -71.5t174 68t60 184v594h110
q75 0 102.5 36.5t31.5 98.5h165z" />
    <glyph glyph-name="uni1EEA" unicode="&#x1eea;" horiz-adv-x="1372" 
d="M758 1567h-146l-161 254h221zM1403 1587q-5 -88 -54 -164t-141 -106v-821q0 -166 -69.5 -287t-186.5 -180.5t-266 -59.5t-266 59.5t-186.5 180.5t-69.5 287v956h198v-950q0 -165 85.5 -255.5t238.5 -90.5q154 0 238 90t84 256v950h96q75 0 102 36t31 99h166z" />
    <glyph glyph-name="uni1EEB" unicode="&#x1eeb;" horiz-adv-x="1159" 
d="M651 1100h-145l-162 254h221zM1212 1120q-3 -60 -25.5 -114t-72 -99.5t-119.5 -62.5v-662q0 -86 11 -182h-185q-8 46 -8 119q-38 -73 -118.5 -111.5t-172.5 -38.5q-168 0 -268 112t-100 284v620h192v-592q0 -111 54.5 -182.5t168.5 -71.5t174 68t60 184v594h110
q75 0 102.5 36.5t31.5 98.5h165z" />
    <glyph glyph-name="uni1EEC" unicode="&#x1eec;" horiz-adv-x="1372" 
d="M618 1722l-114 25q-5 22 -4 29q36 149 184 149q79 0 133.5 -40t54.5 -130q0 -75 -55 -121l-82 -69l-76 45l54 57q13 15 25 43t12 43q0 24 -17.5 41t-48.5 18q-32 1 -50 -19t-18 -48q0 -19 2 -23zM1403 1587q-5 -88 -54 -164t-141 -106v-821q0 -166 -69.5 -287
t-186.5 -180.5t-266 -59.5t-266 59.5t-186.5 180.5t-69.5 287v956h198v-950q0 -165 85.5 -255.5t238.5 -90.5q154 0 238 90t84 256v950h96q75 0 102 36t31 99h166z" />
    <glyph glyph-name="uni1EED" unicode="&#x1eed;" horiz-adv-x="1159" 
d="M512 1255l-115 25q-5 22 -4 29q36 149 185 149q79 0 133.5 -40t54.5 -130q0 -75 -55 -121l-82 -69l-76 45l53 57q13 15 25 43t12 43q0 24 -17 41.5t-48 18.5q-32 1 -50 -19.5t-18 -48.5q0 -19 2 -23zM1212 1120q-3 -60 -25.5 -114t-72 -99.5t-119.5 -62.5v-662
q0 -86 11 -182h-185q-8 46 -8 119q-38 -73 -118.5 -111.5t-172.5 -38.5q-168 0 -268 112t-100 284v620h192v-592q0 -111 54.5 -182.5t168.5 -71.5t174 68t60 184v594h110q75 0 102.5 36.5t31.5 98.5h165z" />
    <glyph glyph-name="uni1EEE" unicode="&#x1eee;" horiz-adv-x="1372" 
d="M580 1696q-28 0 -41 -18.5t-13 -63.5h-135v28q0 99 51 151t131 52q63 0 125 -41l27 -16q48 -27 68 -27q28 0 40.5 18.5t12.5 63.5h133v-28q0 -99 -50 -151t-130 -52q-59 0 -125 41l-25 16q-48 27 -69 27zM1403 1587q-5 -88 -54 -164t-141 -106v-821q0 -166 -69.5 -287
t-186.5 -180.5t-266 -59.5t-266 59.5t-186.5 180.5t-69.5 287v956h198v-950q0 -165 85.5 -255.5t238.5 -90.5q154 0 238 90t84 256v950h96q75 0 102 36t31 99h166z" />
    <glyph glyph-name="uni1EEF" unicode="&#x1eef;" horiz-adv-x="1159" 
d="M473 1229q-27 0 -40 -18t-13 -64h-135v29q0 99 50.5 150.5t131.5 51.5q63 0 125 -41l26 -16q48 -27 68 -27q28 0 40.5 18.5t12.5 63.5h133v-28q0 -99 -50 -151t-130 -52q-59 0 -125 41l-24 16q-48 27 -70 27zM1212 1120q-3 -60 -25.5 -114t-72 -99.5t-119.5 -62.5v-662
q0 -86 11 -182h-185q-8 46 -8 119q-38 -73 -118.5 -111.5t-172.5 -38.5q-168 0 -268 112t-100 284v620h192v-592q0 -111 54.5 -182.5t168.5 -71.5t174 68t60 184v594h110q75 0 102.5 36.5t31.5 98.5h165z" />
    <glyph glyph-name="uni1EF0" unicode="&#x1ef0;" horiz-adv-x="1372" 
d="M1403 1587q-5 -88 -54 -164t-141 -106v-821q0 -166 -69.5 -287t-186.5 -180.5t-266 -59.5t-266 59.5t-186.5 180.5t-69.5 287v956h198v-950q0 -165 85.5 -255.5t238.5 -90.5q154 0 238 90t84 256v950h96q75 0 102 36t31 99h166zM686 -150q47 0 82 -34.5t35 -81.5
q0 -46 -35 -80.5t-82 -34.5t-81 34.5t-34 80.5q0 47 34 81.5t81 34.5z" />
    <glyph glyph-name="uni1EF1" unicode="&#x1ef1;" horiz-adv-x="1159" 
d="M1212 1120q-3 -60 -25.5 -114t-72 -99.5t-119.5 -62.5v-662q0 -86 11 -182h-185q-8 46 -8 119q-38 -73 -118.5 -111.5t-172.5 -38.5q-168 0 -268 112t-100 284v620h192v-592q0 -111 54.5 -182.5t168.5 -71.5t174 68t60 184v594h110q75 0 102.5 36.5t31.5 98.5h165z
M580 -150q47 0 81.5 -34.5t34.5 -81.5q0 -46 -34.5 -80.5t-81.5 -34.5t-81 34.5t-34 80.5q0 47 34 81.5t81 34.5z" />
    <glyph glyph-name="Ygrave" unicode="&#x1ef2;" horiz-adv-x="1265" 
d="M397 1821h221l87 -254h-146zM20 1452h242l377 -647l377 647h229l-512 -831v-621h-201v621z" />
    <glyph glyph-name="ygrave" unicode="&#x1ef3;" horiz-adv-x="1071" 
d="M301 1354h221l86 -254h-145zM199 -412l245 521l-424 876h222l307 -680l295 680h207l-641 -1397h-211z" />
    <glyph glyph-name="uni1EF4" unicode="&#x1ef4;" horiz-adv-x="1265" 
d="M20 1452h242l377 -647l377 647h229l-512 -831v-621h-201v621zM518 -266q0 47 34 81.5t81 34.5t82 -34.5t35 -81.5q0 -46 -35 -80.5t-82 -34.5t-81 34.5t-34 80.5z" />
    <glyph glyph-name="uni1EF5" unicode="&#x1ef5;" horiz-adv-x="1071" 
d="M199 -412l245 521l-424 876h222l307 -680l295 680h207l-641 -1397h-211zM541 -266q0 47 33.5 81.5t80.5 34.5t82 -34.5t35 -81.5q0 -46 -35 -80.5t-82 -34.5t-80.5 34.5t-33.5 80.5z" />
    <glyph glyph-name="uni1EF6" unicode="&#x1ef6;" horiz-adv-x="1265" 
d="M606 1610l53 57q13 15 25 43t12 43q0 24 -17 41t-48 18q-32 1 -50 -19t-18 -48q0 -19 2 -23l-114 25q-6 24 -5 29q36 149 185 149q79 0 133.5 -40t54.5 -130q0 -75 -55 -121l-82 -69zM20 1452h242l377 -647l377 647h229l-512 -831v-621h-201v621z" />
    <glyph glyph-name="uni1EF7" unicode="&#x1ef7;" horiz-adv-x="1071" 
d="M510 1143l53 57q13 15 25 43t12 43q0 24 -17 41.5t-48 18.5q-32 1 -50 -19.5t-18 -48.5q0 -19 2 -23l-115 25q-5 22 -4 29q36 149 185 149q79 0 133.5 -40t54.5 -130q0 -75 -55 -121l-82 -69zM199 -412l245 521l-424 876h222l307 -680l295 680h207l-641 -1397h-211z" />
    <glyph glyph-name="uni1EF8" unicode="&#x1ef8;" horiz-adv-x="1265" 
d="M926 1815q0 -99 -50.5 -151t-130.5 -52q-58 0 -124 41l-25 16q-48 27 -70 27q-27 0 -40 -18t-13 -64h-135v28q0 99 51 151t131 52q63 0 125 -41l27 -16q4 -2 13.5 -8t14 -8t12 -5.5t14 -4.5t13.5 -1q28 0 41 18.5t13 63.5h133v-28zM20 1452h242l377 -647l377 647h229
l-512 -831v-621h-201v621z" />
    <glyph glyph-name="uni1EF9" unicode="&#x1ef9;" horiz-adv-x="1071" 
d="M829 1348q0 -99 -50 -151t-130 -52q-59 0 -125 41l-24 16q-48 27 -70 27q-27 0 -40 -18t-13 -64h-135v29q0 99 50.5 150.5t131.5 51.5q63 0 125 -41l26 -16q48 -27 68 -27q28 0 40.5 18.5t12.5 63.5h133v-28zM199 -412l245 521l-424 876h222l307 -680l295 680h207
l-641 -1397h-211z" />
    <glyph glyph-name="uni2007" unicode="&#x2007;" horiz-adv-x="1257" 
 />
    <glyph glyph-name="uni2008" unicode="&#x2008;" horiz-adv-x="571" 
 />
    <glyph glyph-name="uni200B" unicode="&#x200b;" horiz-adv-x="0" 
 />
    <glyph glyph-name="endash" unicode="&#x2013;" horiz-adv-x="1314" 
d="M133 504v168h1049v-168h-1049z" />
    <glyph glyph-name="emdash" unicode="&#x2014;" horiz-adv-x="2258" 
d="M154 504v168h1951v-168h-1951z" />
    <glyph glyph-name="quoteleft" unicode="&#x2018;" horiz-adv-x="446" 
d="M365 1055q0 -51 -38.5 -87t-95.5 -36q-64 0 -106.5 45t-42.5 129q0 86 26 155.5t67.5 110.5t87 64t91.5 28v-96q-65 -14 -108 -73.5t-45 -125.5q17 11 41 11q53 0 88 -34t35 -91z" />
    <glyph glyph-name="quoteright" unicode="&#x2019;" horiz-adv-x="458" 
d="M82 1343q0 52 40 89.5t99 37.5q65 0 110.5 -47.5t45.5 -132.5q0 -90 -27 -162t-70.5 -114.5t-90.5 -66t-95 -29.5v98q67 15 111.5 75.5t46.5 131.5q-16 -11 -41 -11q-56 0 -92.5 35.5t-36.5 95.5z" />
    <glyph glyph-name="quotesinglbase" unicode="&#x201a;" horiz-adv-x="458" 
d="M82 125q0 52 40 89.5t99 37.5q65 0 110.5 -47.5t45.5 -132.5q0 -90 -27 -162.5t-70.5 -115t-90.5 -66t-95 -29.5v98q67 15 111.5 75.5t46.5 131.5q-15 -10 -41 -10q-56 0 -92.5 35.5t-36.5 95.5z" />
    <glyph glyph-name="quotedblleft" unicode="&#x201c;" horiz-adv-x="796" 
d="M365 1065q0 -51 -38.5 -87t-95.5 -36q-64 0 -106.5 45t-42.5 129q0 86 26 155.5t67.5 111t87 64.5t91.5 28v-97q-65 -14 -108 -73t-45 -125q15 10 41 10q53 0 88 -34t35 -91zM715 1065q0 -51 -38 -87t-95 -36q-64 0 -107 45t-43 129q0 86 26 155.5t68 111t87.5 64.5
t91.5 28v-97q-65 -14 -108.5 -73t-45.5 -125q15 10 41 10q53 0 88 -34t35 -91z" />
    <glyph glyph-name="quotedblright" unicode="&#x201d;" horiz-adv-x="796" 
d="M82 1341q0 51 38 87t95 36q64 0 107 -45t43 -129q0 -86 -26 -155t-68 -109.5t-87 -64t-92 -29.5v96q66 15 109 73t45 126q-15 -10 -41 -10q-53 0 -88 33.5t-35 90.5zM432 1341q0 51 38 87t95 36q64 0 107 -45t43 -129q0 -86 -26 -155t-68 -109.5t-87 -64t-92 -29.5v96
q66 15 109 73t45 126q-15 -10 -41 -10q-53 0 -88 33.5t-35 90.5z" />
    <glyph glyph-name="quotedblbase" unicode="&#x201e;" horiz-adv-x="796" 
d="M82 119q0 51 38 87t95 36q64 0 107 -45t43 -129q0 -86 -26 -155t-68 -110t-87 -64.5t-92 -29.5v96q66 15 109 73t45 126q-15 -10 -41 -10q-53 0 -88 34t-35 91zM432 119q0 51 38 87t95 36q64 0 107 -45t43 -129q0 -86 -26 -155t-68 -110t-87 -64.5t-92 -29.5v96
q66 15 109 73t45 126q-15 -10 -41 -10q-53 0 -88 34t-35 91z" />
    <glyph glyph-name="dagger" unicode="&#x2020;" horiz-adv-x="790" 
d="M311 332v649h-260v166h260v305h168v-305h260v-166h-260v-649h-168z" />
    <glyph glyph-name="daggerdbl" unicode="&#x2021;" horiz-adv-x="872" 
d="M352 471v510h-260v166h260v305h168v-305h260v-166h-260v-510h260v-166h-260v-305h-168v305h-260v166h260z" />
    <glyph glyph-name="bullet" unicode="&#x2022;" horiz-adv-x="1134" 
d="M143 592q0 177 124.5 301.5t299.5 124.5t299.5 -124.5t124.5 -301.5q0 -174 -125 -299t-299 -125t-299 125t-125 299z" />
    <glyph glyph-name="ellipsis" unicode="&#x2026;" horiz-adv-x="1908" 
d="M449 121q0 -55 -38 -93t-94 -38t-94.5 38t-38.5 93t39 94t94 39t93.5 -38.5t38.5 -94.5zM1085 121q0 -55 -37.5 -93t-93.5 -38t-94.5 38t-38.5 93t38.5 94t94.5 39q55 0 93 -38.5t38 -94.5zM1724 121q0 -55 -38 -93t-93 -38q-56 0 -94.5 38t-38.5 93t39 94t94 39
t93 -38.5t38 -94.5z" />
    <glyph glyph-name="perthousand" unicode="&#x2030;" horiz-adv-x="2160" 
d="M113 1020q0 134 97 227.5t230 93.5q134 0 232 -93.5t98 -227.5q0 -135 -98 -229.5t-232 -94.5q-133 0 -230 94.5t-97 229.5zM276 0l955 1327h184l-950 -1327h-189zM283 1020q0 -70 45 -116t112 -46q68 0 113 46t45 116q0 69 -45 114.5t-113 45.5q-66 0 -111.5 -45.5
t-45.5 -114.5zM924 307q0 134 97 228t230 94q74 0 138 -32.5t106 -90.5q42 58 105.5 90.5t138.5 32.5q133 0 231 -94t98 -228q0 -135 -97.5 -229t-231.5 -94q-75 0 -138.5 32t-105.5 88q-42 -56 -106 -88t-138 -32q-133 0 -230 94t-97 229zM1094 307q0 -70 45 -116t112 -46
q68 0 113 46t45 116q0 69 -45 114.5t-113 45.5q-66 0 -111.5 -45.5t-45.5 -114.5zM1581 307q0 -70 45.5 -116t112.5 -46q68 0 112.5 46t44.5 116q0 69 -44.5 114.5t-112.5 45.5q-67 0 -112.5 -45.5t-45.5 -114.5z" />
    <glyph glyph-name="guilsinglleft" unicode="&#x2039;" horiz-adv-x="565" 
d="M334 203l-273 391l273 391h190l-268 -391l268 -391h-190z" />
    <glyph glyph-name="guilsinglright" unicode="&#x203a;" horiz-adv-x="565" 
d="M41 203l268 391l-268 391h190l273 -391l-273 -391h-190z" />
    <glyph glyph-name="uni2042" unicode="&#x2042;" horiz-adv-x="1710" 
d="M928 1204l227 78l41 -133l-227 -74l151 -194l-112 -84l-154 200l-143 -198l-113 84l145 192l-229 74l43 133l225 -78v248h146v-248zM485 391l228 78l41 -133l-228 -74l152 -194l-113 -84l-153 200l-144 -198l-112 84l145 192l-229 74l43 133l225 -78v248h145v-248z
M1370 391l227 78l41 -133l-227 -74l152 -194l-113 -84l-154 200l-143 -198l-113 84l146 192l-230 74l43 133l226 -78v248h145v-248z" />
    <glyph glyph-name="fraction" unicode="&#x2044;" horiz-adv-x="1138" 
d="M0 0l954 1327h185l-951 -1327h-188z" />
    <glyph glyph-name="uni2051" unicode="&#x2051;" horiz-adv-x="866" 
d="M506 1204l227 78l41 -133l-227 -74l151 -194l-112 -84l-154 200l-143 -198l-113 84l146 192l-230 74l43 133l225 -78v248h146v-248zM506 391l227 78l41 -133l-227 -74l151 -194l-112 -84l-154 200l-143 -198l-113 84l146 192l-230 74l43 133l225 -78v248h146v-248z" />
    <glyph glyph-name="uni2070" unicode="&#x2070;" horiz-adv-x="872" 
d="M123 1077q0 170 72 271q84 118 241 118q158 0 242 -118q72 -101 72 -271q0 -167 -72 -268q-85 -119 -242 -119q-156 0 -241 119q-72 101 -72 268zM283 1077q0 -252 153 -252q154 0 154 252q0 254 -154 254q-39 0 -67.5 -16t-44.5 -40.5t-25.5 -60t-12.5 -67t-3 -70.5z
" />
    <glyph glyph-name="uni2074" unicode="&#x2074;" horiz-adv-x="913" 
d="M123 1001l362 451h174v-467h132v-133h-132v-147h-157v147h-379v149zM502 1270l-228 -285h228v285z" />
    <glyph glyph-name="uni2075" unicode="&#x2075;" horiz-adv-x="827" 
d="M258 940q13 -54 53.5 -85.5t96.5 -31.5q61 0 99 33t38 92q0 61 -38 94t-99 33q-77 0 -132 -55l-131 49l101 383h418v-135h-316l-47 -176q51 57 150 57q115 0 184.5 -66t69.5 -178q0 -113 -79.5 -188.5t-217.5 -75.5q-105 0 -184.5 56.5t-100.5 132.5z" />
    <glyph glyph-name="uni2076" unicode="&#x2076;" horiz-adv-x="856" 
d="M659 1313q-59 26 -127 26q-100 0 -167 -55.5t-84 -159.5q27 39 78.5 63.5t107.5 24.5q121 0 193.5 -68.5t72.5 -189.5q0 -117 -86 -190.5t-215 -73.5q-59 0 -113 21t-98.5 61t-71 107.5t-26.5 152.5q0 197 112 316.5t285 119.5q114 0 176 -38zM293 952q0 -60 42 -94.5
t99 -34.5q56 0 97.5 34.5t41.5 94.5t-41.5 94.5t-97.5 34.5q-57 0 -99 -34.5t-42 -94.5z" />
    <glyph glyph-name="uni2077" unicode="&#x2077;" horiz-adv-x="854" 
d="M731 1311q-29 -19 -57.5 -44.5t-73 -79t-79 -116t-65 -159.5t-40.5 -207h-168q10 114 42.5 218.5t71.5 173t76.5 121t62.5 76.5l25 23h-403v135h608v-141z" />
    <glyph glyph-name="uni2078" unicode="&#x2078;" horiz-adv-x="839" 
d="M420 690q-139 0 -218 62t-79 159q0 56 37 104t102 72q-54 23 -84.5 67.5t-30.5 96.5q0 95 77 155t196 60t195.5 -60t76.5 -155q0 -52 -30 -96.5t-84 -67.5q65 -24 102 -72t37 -104q0 -97 -79 -159t-218 -62zM420 1149q54 0 85.5 27t31.5 71q0 41 -31.5 66.5t-85.5 25.5
t-85.5 -25.5t-31.5 -66.5q0 -44 31.5 -71t85.5 -27zM420 821q66 0 101.5 28t35.5 75q0 45 -36.5 73.5t-100.5 28.5t-100.5 -28.5t-36.5 -73.5q0 -47 35.5 -75t101.5 -28z" />
    <glyph glyph-name="uni2079" unicode="&#x2079;" horiz-adv-x="851" 
d="M197 850q61 -27 127 -27q104 0 171.5 52.5t79.5 158.5q-27 -39 -78.5 -63.5t-107.5 -24.5q-117 0 -191.5 70t-74.5 188q0 116 86 190t215 74q59 0 112 -21t97 -61t70 -107.5t26 -152.5q0 -207 -109 -321.5t-284 -114.5q-112 0 -176 39zM559 1204q0 60 -41 95.5t-100 35.5
q-58 0 -98.5 -35t-40.5 -96t40.5 -96t98.5 -35q59 0 100 35.5t41 95.5z" />
    <glyph glyph-name="uni2080" unicode="&#x2080;" horiz-adv-x="872" 
d="M123 225q0 170 72 271q84 118 241 118q158 0 242 -118q72 -101 72 -271q0 -167 -72 -268q-85 -119 -242 -119q-156 0 -241 119q-72 101 -72 268zM283 225q0 -252 153 -252q154 0 154 252q0 254 -154 254q-39 0 -67.5 -16t-44.5 -40.5t-25.5 -60t-12.5 -67t-3 -70.5z" />
    <glyph glyph-name="uni2081" unicode="&#x2081;" horiz-adv-x="620" 
d="M279 -147v501h-177v107q74 1 126 41t63 98h145v-747h-157z" />
    <glyph glyph-name="uni2082" unicode="&#x2082;" horiz-adv-x="796" 
d="M137 311q-6 30 -6 64q0 100 74 169.5t196 69.5t195.5 -68.5t73.5 -166.5q0 -135 -144 -225l-147 -93q-56 -36 -64 -75h359v-133h-549v26q0 191 174 297l123 76q88 54 88 129q0 42 -29.5 72t-81.5 30q-53 0 -84.5 -32t-31.5 -86q0 -27 6 -54h-152z" />
    <glyph glyph-name="uni2083" unicode="&#x2083;" horiz-adv-x="843" 
d="M305 307l195 162h-350v133h555v-129l-205 -164q94 -8 157.5 -66t63.5 -157q0 -104 -83 -176t-214 -72q-125 0 -202.5 61.5t-98.5 149.5l137 55q9 -58 54 -94.5t108 -36.5q62 0 100.5 32.5t38.5 80.5q0 60 -40.5 87.5t-98.5 27.5q-29 0 -57 -8z" />
    <glyph glyph-name="uni2084" unicode="&#x2084;" horiz-adv-x="913" 
d="M123 150l362 450h174v-467h132v-133h-132v-147h-157v147h-379v150zM502 418l-228 -285h228v285z" />
    <glyph glyph-name="uni2085" unicode="&#x2085;" horiz-adv-x="827" 
d="M258 88q13 -54 53.5 -85.5t96.5 -31.5q61 0 99 33t38 92q0 61 -38 94t-99 33q-77 0 -132 -55l-131 49l101 383h418v-135h-316l-47 -176q51 57 150 57q115 0 184.5 -66t69.5 -178q0 -113 -79.5 -188.5t-217.5 -75.5q-105 0 -184.5 56.5t-100.5 132.5z" />
    <glyph glyph-name="uni2086" unicode="&#x2086;" horiz-adv-x="856" 
d="M659 461q-59 26 -127 26q-100 0 -167 -55.5t-84 -159.5q27 39 78.5 63.5t107.5 24.5q121 0 193.5 -68.5t72.5 -189.5q0 -117 -86 -190.5t-215 -73.5q-59 0 -113 21t-98.5 61t-71 107.5t-26.5 152.5q0 197 112 316.5t285 119.5q114 0 176 -38zM293 100q0 -60 42 -94.5
t99 -34.5q56 0 97.5 34.5t41.5 94.5t-41.5 94.5t-97.5 34.5q-57 0 -99 -34.5t-42 -94.5z" />
    <glyph glyph-name="uni2087" unicode="&#x2087;" horiz-adv-x="854" 
d="M731 459q-29 -19 -57.5 -44.5t-73 -79t-79 -116t-65 -159.5t-40.5 -207h-168q10 114 42.5 218.5t71.5 173t76.5 121t62.5 76.5l25 23h-403v135h608v-141z" />
    <glyph glyph-name="uni2088" unicode="&#x2088;" horiz-adv-x="839" 
d="M420 -162q-139 0 -218 62t-79 159q0 56 37 104.5t102 72.5q-54 23 -84.5 67t-30.5 96q0 95 77 155t196 60t195.5 -60t76.5 -155q0 -52 -30 -96t-84 -67q65 -24 102 -72.5t37 -104.5q0 -97 -79 -159t-218 -62zM420 297q54 0 85.5 27t31.5 71q0 41 -31.5 66.5t-85.5 25.5
t-85.5 -25.5t-31.5 -66.5q0 -44 31.5 -71t85.5 -27zM420 -31q66 0 101.5 28t35.5 75q0 45 -36.5 73.5t-100.5 28.5t-100.5 -28.5t-36.5 -73.5q0 -47 35.5 -75t101.5 -28z" />
    <glyph glyph-name="uni2089" unicode="&#x2089;" horiz-adv-x="851" 
d="M197 -2q61 -27 127 -27q104 0 171.5 52.5t79.5 158.5q-27 -39 -78.5 -63.5t-107.5 -24.5q-117 0 -191.5 70t-74.5 188q0 116 86 190t215 74q59 0 112 -21t97 -61t70 -107.5t26 -152.5q0 -207 -109 -321.5t-284 -114.5q-112 0 -176 39zM559 352q0 60 -41 95.5t-100 35.5
q-58 0 -98.5 -35t-40.5 -96t40.5 -96t98.5 -35q59 0 100 35.5t41 95.5z" />
    <glyph glyph-name="Euro" unicode="&#x20ac;" horiz-adv-x="1411" 
d="M295 578q-4 46 -4 88q0 36 4 82h-162v159h193q46 144 148.5 248.5t227.5 153.5t259 49q216 0 350 -96l-82 -158q-106 76 -268 76q-141 0 -256 -70.5t-170 -202.5h600l-80 -159h-559q-7 -44 -7 -82q0 -53 7 -88h485l-80 -164h-362q56 -130 166 -198.5t249 -68.5
q195 0 306 111l100 -143q-170 -146 -406 -146q-205 0 -379 117t-245 328h-197v164h162z" />
    <glyph glyph-name="uni2113" unicode="&#x2113;" horiz-adv-x="833" 
d="M72 530q62 16 139 52v454q0 149 75 236.5t199 87.5q131 0 204 -80.5t73 -226.5q0 -162 -95 -319t-264 -261v-145q0 -79 38 -118.5t100 -41.5q115 0 184 59v-174q-14 -21 -63 -42t-130 -21q-159 0 -240 89.5t-81 237.5v68q-83 -26 -139 -35v180zM569 1053q0 68 -18.5 99.5
t-61.5 31.5q-86 0 -86 -146v-336q166 151 166 351z" />
    <glyph glyph-name="trademark" unicode="&#x2122;" horiz-adv-x="1759" 
d="M446 1313v-608h-155v608h-230v139h615v-139h-230zM1489 705v477l-207 -477h-121l-200 471v-471h-156v747h203l219 -520l219 520h190v-747h-147z" />
    <glyph glyph-name="uni2126" unicode="&#x2126;" horiz-adv-x="1630" 
d="M815 1303q-96 0 -187.5 -33.5t-166 -95.5t-119.5 -160.5t-45 -218.5q0 -107 38 -200.5t101 -158t137.5 -107t153.5 -59.5v-270h-625v180h414q-81 29 -155 84.5t-135 131.5t-97.5 179.5t-36.5 217.5q0 158 60 290t160.5 218.5t230.5 134t272 47.5t272 -47.5t230.5 -134
t160.5 -218.5t60 -290q0 -114 -36.5 -217.5t-97.5 -179.5t-136 -131.5t-156 -84.5h416v-180h-625v270q79 17 153.5 59.5t137.5 107t101 158t38 200.5q0 120 -45 218.5t-119.5 160.5t-166 95.5t-187.5 33.5z" />
    <glyph glyph-name="uni2160" unicode="&#x2160;" horiz-adv-x="1036" 
d="M924 1147h-308v-967h308v-180h-811v180h307v967h-307v180h811v-180z" />
    <glyph glyph-name="uni2161" unicode="&#x2161;" horiz-adv-x="1576" 
d="M1464 0h-1351v180h286v967h-286v180h1351v-180h-286v-967h286v-180zM981 1147h-385v-967h385v967z" />
    <glyph glyph-name="uni2162" unicode="&#x2162;" horiz-adv-x="2138" 
d="M2025 0h-1912v180h286v967h-286v180h1912v-180h-286v-967h286v-180zM596 180h375v967h-375v-967zM1542 1147h-375v-967h375v967z" />
    <glyph glyph-name="uni2163" unicode="&#x2163;" horiz-adv-x="2060" 
d="M1948 0h-1835v180h266v967h-266v180h1833v-180h-236l-334 -967h572v-180zM575 180h492l-328 967h-164v-967zM1507 1147h-559l279 -858z" />
    <glyph glyph-name="uni2164" unicode="&#x2164;" horiz-adv-x="1644" 
d="M1532 1147h-225l-334 -967h551v-180h-1401v180h541l-328 967h-223v180h1419v-180zM1104 1147h-559l278 -858z" />
    <glyph glyph-name="uni2165" unicode="&#x2165;" horiz-adv-x="2060" 
d="M1948 0h-1835v180h561l-328 967h-233v180h1833v-180h-265v-967h267v-180zM1114 1147h-559l279 -858zM983 180h502v967h-168z" />
    <glyph glyph-name="uni2166" unicode="&#x2166;" horiz-adv-x="2648" 
d="M2535 0h-2422v180h559l-326 967h-233v180h2422v-180h-286v-967h286v-180zM1112 1147h-557l276 -858zM981 180h502v967h-168zM2052 1147h-373v-967h373v967z" />
    <glyph glyph-name="uni2167" unicode="&#x2167;" horiz-adv-x="3158" 
d="M3045 0h-2932v180h553l-320 967h-233v180h2932v-180h-276v-967h276v-180zM1094 1147h-539l268 -858zM971 180h499v967h-172zM1667 180h354v967h-354v-967zM2218 180h354v967h-354v-967z" />
    <glyph glyph-name="uni2168" unicode="&#x2168;" horiz-adv-x="1998" 
d="M1886 0h-1773v180h266v967h-266v180h1771v-180h-215l-348 -498l330 -469h235v-180zM752 1147h-177v-967h189l338 469zM1210 803l236 344h-469zM985 180h440l-217 318z" />
    <glyph glyph-name="uni2169" unicode="&#x2169;" horiz-adv-x="1570" 
d="M1456 1147h-215l-348 -498l330 -469h235v-180h-1345v180h223l338 469l-350 498h-211v180h1343v-180zM782 803l236 344h-469zM557 180h440l-217 318z" />
    <glyph glyph-name="uni216C" unicode="&#x216c;" horiz-adv-x="1339" 
d="M1227 0h-1114v180h266v967h-266v180h749v-180h-287v-967h455v395h197v-575z" />
    <glyph glyph-name="uni216D" unicode="&#x216d;" horiz-adv-x="1478" 
d="M1366 0h-197v137q-134 -166 -393 -166q-127 0 -245 47t-211.5 133t-150 220t-56.5 295q0 130 37 243t101 194.5t148.5 140t180.5 87.5t196 29q256 0 389 -158v129h197v-463h-197q-15 144 -116.5 228t-272.5 84q-96 0 -178.5 -32t-147.5 -93.5t-102 -161.5t-37 -227
t37 -227t102 -161.5t147.5 -93.5t178.5 -32t172.5 29t122 77t70 102.5t28.5 112.5h197v-473z" />
    <glyph glyph-name="uni216E" unicode="&#x216e;" horiz-adv-x="1505" 
d="M770 1327q123 0 234 -43t198.5 -123.5t139 -209.5t51.5 -289q0 -127 -33.5 -235t-92.5 -186t-139.5 -132.5t-174 -81.5t-195.5 -27h-645v180h276v967h-276v180h657zM762 180q84 0 159.5 29.5t136.5 86.5t97.5 151.5t36.5 214.5q0 117 -34 211t-94 153t-138 90t-168 31
h-172v-967h176z" />
    <glyph glyph-name="uni216F" unicode="&#x216f;" horiz-adv-x="2189" 
d="M1087 272l435 1055h555v-180h-271v-967h271v-180h-666v180h203v877l-449 -1057h-155l-445 1057v-877h213v-180h-665v180h260v967h-260v180h544z" />
    <glyph glyph-name="arrowleft" unicode="&#x2190;" horiz-adv-x="2101" 
d="M0 588l453 381v-295h1505v-170h-1505v-295z" />
    <glyph glyph-name="arrowup" unicode="&#x2191;" horiz-adv-x="919" 
d="M899 1137h-324v-1440h-169v1440h-324l410 501z" />
    <glyph glyph-name="arrowright" unicode="&#x2192;" horiz-adv-x="2101" 
d="M1495 156v346h-1425v170h1425v350l516 -434z" />
    <glyph glyph-name="arrowdown" unicode="&#x2193;" horiz-adv-x="919" 
d="M430 -332l-432 516h346v1426h170v-1426h350z" />
    <glyph glyph-name="uni2196" unicode="&#x2196;" horiz-adv-x="1789" 
d="M711 1452l-238 -240l1112 -1110l-121 -118l-1112 1108l-239 -242v602h598z" />
    <glyph glyph-name="uni2197" unicode="&#x2197;" horiz-adv-x="1583" 
d="M1378 1452v-602l-241 242l-1110 -1108l-121 118l1112 1110l-238 240h598z" />
    <glyph glyph-name="uni2198" unicode="&#x2198;" horiz-adv-x="1789" 
d="M987 0l238 240l-1112 1110l120 118l1110 -1110l242 244v-602h-598z" />
    <glyph glyph-name="uni2199" unicode="&#x2199;" horiz-adv-x="1564" 
d="M92 0v602l240 -244l1112 1110l121 -118l-1112 -1110l237 -240h-598z" />
    <glyph glyph-name="uni21A9" unicode="&#x21a9;" horiz-adv-x="1705" 
d="M815 1360h393q184 0 314.5 -124t130.5 -304q0 -124 -64 -223.5t-167 -152t-222 -52.5h-751v-295l-453 379l453 381v-295h741q122 0 208.5 69.5t86.5 188.5t-86 188.5t-215 69.5h-369v170z" />
    <glyph glyph-name="uni21B0" unicode="&#x21b0;" horiz-adv-x="1587" 
d="M102 1102l453 381v-295h848v-1188h-170v1018h-678v-295z" />
    <glyph glyph-name="uni21B1" unicode="&#x21b1;" horiz-adv-x="1474" 
d="M72 0v1188h950v295l453 -381l-453 -379v295h-780v-1018h-170z" />
    <glyph glyph-name="uni21B2" unicode="&#x21b2;" horiz-adv-x="1556" 
d="M1382 1452v-1188h-950v-295l-452 381l452 379v-295h780v1018h170z" />
    <glyph glyph-name="uni21B3" unicode="&#x21b3;" horiz-adv-x="1720" 
d="M1577 350l-453 -381v295h-950v1188h170v-1018h780v295z" />
    <glyph glyph-name="uni21B4" unicode="&#x21b4;" horiz-adv-x="1667" 
d="M113 1452h1187v-1032h295l-381 -453l-378 453h294v862h-1017v170z" />
    <glyph glyph-name="uni21C6" unicode="&#x21c6;" horiz-adv-x="2265" 
d="M113 1106l452 381v-295h1546v-170h-1546v-295zM1700 -31v295h-1546v170h1546v295l452 -381z" />
    <glyph glyph-name="partialdiff" unicode="&#x2202;" horiz-adv-x="1251" 
d="M506 1307q-154 0 -287 -64l-65 152q151 88 368 88q57 0 112.5 -9t119.5 -32.5t119.5 -60.5t107.5 -98t89 -138.5t59 -188.5t22 -243q0 -348 -145 -546t-418 -198q-96 0 -183 31t-157.5 89t-112 152.5t-41.5 211.5q0 107 40.5 197t109.5 150t160.5 93t193.5 33
q117 0 209 -33t141 -84q-21 255 -136 376.5t-306 121.5zM627 756q-160 0 -248 -90t-88 -226q0 -135 90.5 -214t216.5 -79q74 0 134.5 27.5t100 72.5t67 105.5t39 124t11.5 129.5q-53 72 -139.5 111t-183.5 39z" />
    <glyph glyph-name="uni2206" unicode="&#x2206;" horiz-adv-x="1355" 
d="M569 1452h215l572 -1452h-1356zM285 184h784l-395 1039z" />
    <glyph glyph-name="product" unicode="&#x220f;" horiz-adv-x="1406" 
d="M1028 0v1274h-643v-1274h-201v1452h1039v-1452h-195z" />
    <glyph glyph-name="summation" unicode="&#x2211;" horiz-adv-x="1161" 
d="M92 176l559 555l-559 545v176h1018v-184h-748l551 -537l-569 -547h766v-184h-1018v176z" />
    <glyph glyph-name="minus" unicode="&#x2212;" horiz-adv-x="1091" 
d="M113 508v162h866v-162h-866z" />
    <glyph glyph-name="uni2215" unicode="&#x2215;" horiz-adv-x="827" 
d="M186 0h-186l641 1327h186z" />
    <glyph glyph-name="uni2219" unicode="&#x2219;" horiz-adv-x="571" 
d="M143 582q0 60 41 101.5t101 41.5t101.5 -41.5t41.5 -101.5t-41.5 -101t-101.5 -41t-101 41t-41 101z" />
    <glyph glyph-name="radical" unicode="&#x221a;" horiz-adv-x="1361" 
d="M1190 1597l-545 -1597h-186l-387 1083h221l260 -766l481 1461h400v-181h-244z" />
    <glyph glyph-name="infinity" unicode="&#x221e;" horiz-adv-x="1640" 
d="M817 467q-99 -111 -185 -164t-183 -53q-155 0 -256 98t-101 246t101 247t256 99q198 0 374 -219q94 111 182.5 165t186.5 54q154 0 255 -99t101 -247t-100.5 -246t-255.5 -98q-203 0 -375 217zM453 776q-86 0 -138.5 -52t-52.5 -132q0 -79 52.5 -130.5t138.5 -51.5
q69 0 130.5 45.5t133.5 132.5q-40 49 -65 75.5t-59.5 56.5t-68 43t-71.5 13zM1188 410q86 0 138 51.5t52 130.5q0 80 -52 132t-138 52q-38 0 -71 -12t-68 -41.5t-59 -54.5t-66 -74q77 -93 135.5 -138.5t128.5 -45.5z" />
    <glyph glyph-name="integral" unicode="&#x222b;" horiz-adv-x="634" 
d="M223 1128q0 151 87 237.5t239 86.5h76v-176h-62q-69 0 -108 -41t-39 -121v-1198q0 -152 -84 -239t-234 -87h-88v177h64q67 0 108 43t41 122v1196z" />
    <glyph glyph-name="approxequal" unicode="&#x2248;" horiz-adv-x="1165" 
d="M1094 786q-119 -170 -299 -170q-96 0 -205 62l-96 53q-65 35 -127 35q-107 0 -187 -92l-108 96q120 174 293 174q93 0 210 -63l95 -52q71 -41 143 -41q100 0 176 91zM1094 389q-119 -170 -299 -170q-96 0 -205 62l-96 53q-65 35 -127 35q-106 0 -187 -93l-108 97
q120 174 293 174q91 0 210 -64l95 -51q71 -41 143 -41q101 0 176 90z" />
    <glyph glyph-name="notequal" unicode="&#x2260;" horiz-adv-x="1214" 
d="M504 309l-152 -205h-196l151 205h-174v162h293l174 238h-467v157h584l149 203h197l-150 -203h168v-157h-284l-174 -238h458v-162h-577z" />
    <glyph glyph-name="lessequal" unicode="&#x2264;" horiz-adv-x="1110" 
d="M133 797l844 299v-172l-629 -213l629 -213v-172l-844 297v174zM977 266v-162h-844v162h844z" />
    <glyph glyph-name="greaterequal" unicode="&#x2265;" horiz-adv-x="1110" 
d="M977 623l-844 -297v172l629 213l-629 213v172l844 -299v-174zM977 266v-162h-844v162h844z" />
    <glyph glyph-name="dotmath" unicode="&#x22c5;" horiz-adv-x="571" 
d="M143 582q0 60 41 101.5t101 41.5t101.5 -41.5t41.5 -101.5t-41.5 -101t-101.5 -41t-101 41t-41 101z" />
    <glyph glyph-name="uni24C5" unicode="&#x24c5;" horiz-adv-x="1681" 
d="M92 727q0 205 99.5 379t271.5 275.5t375 101.5q153 0 292.5 -60t239.5 -161.5t159.5 -241.5t59.5 -293t-59.5 -293.5t-159.5 -242t-239.5 -162t-292.5 -60.5q-203 0 -375 102t-271.5 276.5t-99.5 379.5zM252 727q0 -127 46 -240t124 -193.5t186.5 -127.5t229.5 -47
q162 0 296 79.5t211.5 219.5t77.5 309t-77.5 308.5t-211.5 218.5t-296 79q-121 0 -229.5 -46.5t-187 -127t-124 -193t-45.5 -239.5zM743 616v-294h-155v823h325q119 0 199 -77t80 -187q0 -111 -80 -188t-199 -77h-170zM887 752q68 0 107.5 34.5t39.5 92.5q0 60 -39 95.5
t-108 35.5h-144v-258h144z" />
    <glyph glyph-name="filledbox" unicode="&#x25a0;" horiz-adv-x="1886" 
d="M225 1452h1436v-1452h-1436v1452z" />
    <glyph glyph-name="uni25A1" unicode="&#x25a1;" horiz-adv-x="1886" 
d="M225 0v1452h1436v-1452h-1436zM393 154h1100v1142h-1100v-1142z" />
    <glyph glyph-name="triagup" unicode="&#x25b2;" horiz-adv-x="1714" 
d="M1714 0h-1714l860 1483z" />
    <glyph glyph-name="uni25B3" unicode="&#x25b3;" horiz-adv-x="1714" 
d="M1714 0h-1714l860 1483zM858 1149l-571 -995h1138z" />
    <glyph glyph-name="lozenge" unicode="&#x25ca;" horiz-adv-x="1138" 
d="M485 1452h168l414 -727l-414 -725h-168l-413 725zM569 229l287 496l-287 498l-288 -498z" />
    <glyph glyph-name="circle" unicode="&#x25cb;" horiz-adv-x="1701" 
d="M92 725q0 155 60 295.5t161 242.5t241.5 162t295.5 60t295.5 -60t242.5 -162t162 -242.5t60 -295.5t-60 -295.5t-162 -241.5t-242.5 -161t-295.5 -60t-295.5 60t-241.5 161t-161 241.5t-60 295.5zM264 725q0 -122 46 -232.5t124 -190t186.5 -126.5t229.5 -47t229.5 47
t186.5 126.5t124 190t46 232.5t-46 232.5t-124 190t-186.5 126.5t-229.5 47t-229.5 -47t-186.5 -126.5t-124 -190t-46 -232.5z" />
    <glyph glyph-name="uni25CF" unicode="&#x25cf;" horiz-adv-x="1701" 
d="M92 725q0 155 60 295.5t161 242.5t241.5 162t295.5 60t295.5 -60t242.5 -162t162 -242.5t60 -295.5t-60 -295.5t-162 -241.5t-242.5 -161t-295.5 -60t-295.5 60t-241.5 161t-161 241.5t-60 295.5z" />
    <glyph glyph-name="uni262E" unicode="&#x262e;" horiz-adv-x="1681" 
d="M1589 727q0 -153 -59.5 -293.5t-159.5 -242t-239.5 -162t-292.5 -60.5q-203 0 -375 102t-271.5 276.5t-99.5 379.5t99.5 379t271.5 275.5t375 101.5q153 0 292.5 -60t239.5 -161.5t159.5 -241.5t59.5 -293zM252 727q0 -170 80 -311l420 420v491q-217 -31 -358.5 -199
t-141.5 -401zM1423 727q0 233 -143 401t-360 199v-491l421 -424q82 148 82 315zM434 281q132 -132 318 -156v473zM920 125q180 23 317 154l-317 319v-473z" />
    <glyph glyph-name="uni2713" unicode="&#x2713;" horiz-adv-x="1986" 
d="M629 -35l-578 645l123 117l463 -506l1175 1272l123 -121z" />
    <glyph glyph-name="uni2715" unicode="&#x2715;" horiz-adv-x="1548" 
d="M774 604l-602 -614l-121 121l602 616l-600 614l123 121l598 -612l598 612l123 -121l-602 -614l604 -616l-121 -121z" />
    <glyph glyph-name="uni2780" unicode="&#x2780;" horiz-adv-x="1681" 
d="M92 727q0 205 99.5 379t271.5 275.5t375 101.5q153 0 292.5 -60t239.5 -161.5t159.5 -241.5t59.5 -293t-59.5 -293.5t-159.5 -242t-239.5 -162t-292.5 -60.5q-203 0 -375 102t-271.5 276.5t-99.5 379.5zM252 727q0 -127 46 -240t124 -193.5t186.5 -127.5t229.5 -47
q162 0 296 79.5t211.5 219.5t77.5 309t-77.5 308.5t-211.5 218.5t-296 79q-121 0 -229.5 -46.5t-187 -127t-124 -193t-45.5 -239.5zM788 354v502h-176v107q74 1 126 41t63 98h145v-748h-158z" />
    <glyph glyph-name="uni2781" unicode="&#x2781;" horiz-adv-x="1681" 
d="M92 727q0 205 99.5 379t271.5 275.5t375 101.5q153 0 292.5 -60t239.5 -161.5t159.5 -241.5t59.5 -293t-59.5 -293.5t-159.5 -242t-239.5 -162t-292.5 -60.5q-203 0 -375 102t-271.5 276.5t-99.5 379.5zM252 727q0 -127 46 -240t124 -193.5t186.5 -127.5t229.5 -47
q162 0 296 79.5t211.5 219.5t77.5 309t-77.5 308.5t-211.5 218.5t-296 79q-121 0 -229.5 -46.5t-187 -127t-124 -193t-45.5 -239.5zM565 823q-6 30 -6 64q0 100 74 169.5t196 69.5t195.5 -68.5t73.5 -166.5q0 -135 -144 -225l-147 -93q-56 -36 -64 -75h359v-133h-549v26
q0 191 174 297l123 76q88 54 88 129q0 42 -29.5 72t-81.5 30q-53 0 -84.5 -32t-31.5 -86q0 -27 6 -54h-152z" />
    <glyph glyph-name="uni2782" unicode="&#x2782;" horiz-adv-x="1681" 
d="M92 727q0 205 99.5 379t271.5 275.5t375 101.5q153 0 292.5 -60t239.5 -161.5t159.5 -241.5t59.5 -293t-59.5 -293.5t-159.5 -242t-239.5 -162t-292.5 -60.5q-203 0 -375 102t-271.5 276.5t-99.5 379.5zM252 727q0 -127 46 -240t124 -193.5t186.5 -127.5t229.5 -47
q162 0 296 79.5t211.5 219.5t77.5 309t-77.5 308.5t-211.5 218.5t-296 79q-121 0 -229.5 -46.5t-187 -127t-124 -193t-45.5 -239.5zM707 805l194 162h-350v133h555v-129l-205 -164q94 -8 157.5 -66t63.5 -157q0 -104 -83 -176t-214 -72q-125 0 -202.5 61.5t-98.5 149.5
l138 55q9 -59 53.5 -95t107.5 -36q62 0 101 32.5t39 80.5q0 59 -40.5 86.5t-99.5 27.5q-29 0 -57 -8z" />
    <glyph glyph-name="uni2783" unicode="&#x2783;" horiz-adv-x="1681" 
d="M92 727q0 205 99.5 379t271.5 275.5t375 101.5q153 0 292.5 -60t239.5 -161.5t159.5 -241.5t59.5 -293t-59.5 -293.5t-159.5 -242t-239.5 -162t-292.5 -60.5q-203 0 -375 102t-271.5 276.5t-99.5 379.5zM252 727q0 -127 46 -240t124 -193.5t186.5 -127.5t229.5 -47
q162 0 296 79.5t211.5 219.5t77.5 309t-77.5 308.5t-211.5 218.5t-296 79q-121 0 -229.5 -46.5t-187 -127t-124 -193t-45.5 -239.5zM481 662l363 450h174v-467h131v-133h-131v-147h-158v147h-379v150zM860 930l-227 -285h227v285z" />
    <glyph glyph-name="uni2784" unicode="&#x2784;" horiz-adv-x="1681" 
d="M92 727q0 205 99.5 379t271.5 275.5t375 101.5q153 0 292.5 -60t239.5 -161.5t159.5 -241.5t59.5 -293t-59.5 -293.5t-159.5 -242t-239.5 -162t-292.5 -60.5q-203 0 -375 102t-271.5 276.5t-99.5 379.5zM252 727q0 -127 46 -240t124 -193.5t186.5 -127.5t229.5 -47
q162 0 296 79.5t211.5 219.5t77.5 309t-77.5 308.5t-211.5 218.5t-296 79q-121 0 -229.5 -46.5t-187 -127t-124 -193t-45.5 -239.5zM662 584q14 -54 54 -85.5t95 -31.5q61 0 99 33t38 92q0 61 -38 94t-99 33q-76 0 -131 -55l-131 49l100 383h418v-135h-315l-47 -177
q52 58 149 58q115 0 184.5 -66t69.5 -178q0 -113 -79.5 -188.5t-217.5 -75.5q-105 0 -184.5 56t-100.5 132z" />
    <glyph glyph-name="uni2785" unicode="&#x2785;" horiz-adv-x="1681" 
d="M92 727q0 205 99.5 379t271.5 275.5t375 101.5q153 0 292.5 -60t239.5 -161.5t159.5 -241.5t59.5 -293t-59.5 -293.5t-159.5 -242t-239.5 -162t-292.5 -60.5q-203 0 -375 102t-271.5 276.5t-99.5 379.5zM252 727q0 -127 46 -240t124 -193.5t186.5 -127.5t229.5 -47
q162 0 296 79.5t211.5 219.5t77.5 309t-77.5 308.5t-211.5 218.5t-296 79q-121 0 -229.5 -46.5t-187 -127t-124 -193t-45.5 -239.5zM1044 963q-59 26 -126 26q-100 0 -167.5 -55.5t-84.5 -159.5q27 39 78.5 63.5t107.5 24.5q121 0 193.5 -68.5t72.5 -189.5
q0 -117 -86 -190.5t-215 -73.5q-59 0 -113 21t-98.5 61t-71 107.5t-26.5 152.5q0 197 112 316.5t285 119.5q112 0 176 -39zM678 602q0 -60 42 -94.5t99 -34.5q56 0 97.5 34.5t41.5 94.5t-41.5 94.5t-97.5 34.5q-57 0 -99 -34.5t-42 -94.5z" />
    <glyph glyph-name="uni2786" unicode="&#x2786;" horiz-adv-x="1681" 
d="M92 727q0 205 99.5 379t271.5 275.5t375 101.5q153 0 292.5 -60t239.5 -161.5t159.5 -241.5t59.5 -293t-59.5 -293.5t-159.5 -242t-239.5 -162t-292.5 -60.5q-203 0 -375 102t-271.5 276.5t-99.5 379.5zM252 727q0 -127 46 -240t124 -193.5t186.5 -127.5t229.5 -47
q162 0 296 79.5t211.5 219.5t77.5 309t-77.5 308.5t-211.5 218.5t-296 79q-121 0 -229.5 -46.5t-187 -127t-124 -193t-45.5 -239.5zM1145 950q-29 -19 -58 -44.5t-73 -79t-79 -116t-65.5 -159.5t-40.5 -207h-167q10 114 42.5 218.5t71.5 173t76.5 121t62.5 75.5l25 24h-403
v136h608v-142z" />
    <glyph glyph-name="uni2787" unicode="&#x2787;" horiz-adv-x="1681" 
d="M92 727q0 205 99.5 379t271.5 275.5t375 101.5q153 0 292.5 -60t239.5 -161.5t159.5 -241.5t59.5 -293t-59.5 -293.5t-159.5 -242t-239.5 -162t-292.5 -60.5q-203 0 -375 102t-271.5 276.5t-99.5 379.5zM252 727q0 -127 46 -240t124 -193.5t186.5 -127.5t229.5 -47
q162 0 296 79.5t211.5 219.5t77.5 309t-77.5 308.5t-211.5 218.5t-296 79q-121 0 -229.5 -46.5t-187 -127t-124 -193t-45.5 -239.5zM836 340q-139 0 -218 62t-79 159q0 56 37 104t102 72q-54 23 -84.5 67.5t-30.5 96.5q0 95 77 155t196 60t195.5 -60t76.5 -155
q0 -52 -30.5 -96.5t-84.5 -67.5q65 -24 102.5 -72t37.5 -104q0 -97 -79 -159t-218 -62zM836 799q54 0 85 26.5t31 71.5q0 41 -31 66.5t-85 25.5t-85.5 -25.5t-31.5 -66.5q0 -44 31.5 -71t85.5 -27zM836 471q66 0 101.5 27.5t35.5 74.5q0 46 -36.5 74.5t-100.5 28.5t-101 -29
t-37 -74q0 -47 36 -74.5t102 -27.5z" />
    <glyph glyph-name="uni2788" unicode="&#x2788;" horiz-adv-x="1681" 
d="M92 727q0 205 99.5 379t271.5 275.5t375 101.5q153 0 292.5 -60t239.5 -161.5t159.5 -241.5t59.5 -293t-59.5 -293.5t-159.5 -242t-239.5 -162t-292.5 -60.5q-203 0 -375 102t-271.5 276.5t-99.5 379.5zM252 727q0 -127 46 -240t124 -193.5t186.5 -127.5t229.5 -47
q162 0 296 79.5t211.5 219.5t77.5 309t-77.5 308.5t-211.5 218.5t-296 79q-121 0 -229.5 -46.5t-187 -127t-124 -193t-45.5 -239.5zM612 496q62 -27 127 -27q104 0 172.5 52.5t79.5 158.5q-27 -39 -78.5 -63.5t-107.5 -24.5q-117 0 -191.5 70t-74.5 188q0 116 86 190t215 74
q59 0 112 -21t97 -61t70 -107.5t26 -152.5q0 -207 -109 -321.5t-284 -114.5q-113 0 -177 39zM975 850q0 60 -41 95.5t-100 35.5q-58 0 -99 -35.5t-41 -95.5t41 -95.5t99 -35.5q59 0 100 35.5t41 95.5z" />
    <glyph glyph-name="uniE000" unicode="&#xe000;" horiz-adv-x="1667" 
d="M72 420h295v1032h1187v-170h-1017v-862h294l-378 -453z" />
    <glyph glyph-name="uniE001" unicode="&#xe001;" horiz-adv-x="2211" 
d="M92 727h268q1 154 61 294t161 241t241 161t293 60q196 0 373 -97l-76 -151q-140 78 -295 78q-161 0 -296 -78t-212.5 -212.5t-77.5 -295.5h293l-366 -430zM1872 725q-1 -155 -61 -295t-161.5 -241t-241 -160.5t-292.5 -59.5q-196 0 -373 97l76 151q140 -78 295 -78
q161 0 296 78t212.5 212.5t77.5 295.5h-283l367 430l366 -430h-278z" />
    <glyph glyph-name="uniE002" unicode="&#xe002;" horiz-adv-x="1943" 
d="M1516 1155l366 -430h-266q0 -154 -60 -294t-161 -241t-241.5 -161t-295.5 -60q-154 0 -294 60t-241 161t-161 241t-60 294q0 155 60 295.5t161 241.5t241 161t294 60q196 0 373 -97l-76 -151q-140 78 -295 78q-161 0 -296 -78t-212.5 -213t-77.5 -297t77.5 -297.5
t212.5 -214t296 -78.5t295.5 78.5t211.5 214t77 297.5h-295z" />
    <glyph glyph-name="uniFB00" unicode="&#xfb00;" horiz-adv-x="1349" 
d="M1225 1309q-63 0 -109.5 -38.5t-46.5 -129.5v-156h238v-174h-238v-811h-199v811h-448v-811h-199v811h-182v174h182v166q0 159 92.5 248.5t231.5 89.5q43 0 74.5 -7.5t40.5 -13.5v-172q-33 13 -84 13q-63 0 -109.5 -38.5t-46.5 -129.5v-156h448v166q0 159 92.5 248.5
t231.5 89.5q44 0 75 -7.5t40 -13.5v-172q-33 13 -84 13z" />
    <glyph glyph-name="fi" unicode="&#xfb01;" horiz-adv-x="1236" 
d="M840 1362q0 58 40 98.5t97 40.5q59 0 99 -40.5t40 -98.5q0 -57 -40.5 -97t-98.5 -40q-57 0 -97 40t-40 97zM547 1489q43 0 74.5 -7.5t40.5 -13.5v-172q-33 13 -84 13q-63 0 -109.5 -37.5t-46.5 -128.5v-158h651v-985h-190v811h-461v-811h-199v811h-182v174h182v166
q0 159 92.5 248.5t231.5 89.5z" />
    <glyph glyph-name="fl" unicode="&#xfb02;" horiz-adv-x="1232" 
d="M578 1309q-63 0 -109.5 -38.5t-46.5 -129.5v-156h455v498h192v-1483h-192v811h-455v-811h-199v811h-182v174h182v166q0 159 92.5 248.5t231.5 89.5q43 0 74.5 -7.5t40.5 -13.5v-172q-33 13 -84 13z" />
    <glyph glyph-name="uniFB03" unicode="&#xfb03;" horiz-adv-x="1884" 
d="M1487 1362q0 58 40 98.5t97 40.5q58 0 98.5 -40.5t40.5 -98.5q0 -57 -40.5 -97t-98.5 -40q-57 0 -97 40t-40 97zM223 1151q0 159 92.5 248.5t231.5 89.5q43 0 74.5 -7.5t40.5 -13.5v-172q-33 13 -84 13q-63 0 -109.5 -38.5t-46.5 -129.5v-156h448v166q0 159 92.5 248.5
t231.5 89.5q44 0 75 -7.5t40 -13.5v-172q-33 13 -84 13q-63 0 -109.5 -38.5t-46.5 -129.5v-156h651v-985h-190v811h-461v-811h-199v811h-448v-811h-199v811h-182v174h182v166z" />
    <glyph glyph-name="uniFB04" unicode="&#xfb04;" horiz-adv-x="1884" 
d="M223 1151q0 159 92.5 248.5t231.5 89.5q43 0 74.5 -7.5t40.5 -13.5v-172q-33 13 -84 13q-63 0 -109.5 -38.5t-46.5 -129.5v-156h448v166q0 159 92.5 248.5t231.5 89.5q44 0 75 -7.5t40 -13.5v-172q-33 13 -84 13q-63 0 -109.5 -38.5t-46.5 -129.5v-156h461v498h190v-1483
h-190v811h-461v-811h-199v811h-448v-811h-199v811h-182v174h182v166z" />
    <glyph glyph-name="uniFEFF" unicode="&#xfeff;" horiz-adv-x="0" 
 />
    <glyph glyph-name="zero.numr" horiz-adv-x="872" 
d="M123 952q0 170 72 271q84 118 241 118q158 0 242 -118q72 -101 72 -271q0 -167 -72 -268q-85 -119 -242 -119q-156 0 -241 119q-72 101 -72 268zM283 952q0 -252 153 -252q154 0 154 252q0 254 -154 254q-39 0 -67.5 -16t-44.5 -40.5t-25.5 -60t-12.5 -67t-3 -70.5z" />
    <glyph glyph-name="one.numr" horiz-adv-x="620" 
d="M279 580v501h-177v107q74 1 126 41t63 98h145v-747h-157z" />
    <glyph glyph-name="two.numr" horiz-adv-x="796" 
d="M137 1038q-6 30 -6 64q0 100 74 169.5t196 69.5t195.5 -68.5t73.5 -166.5q0 -135 -144 -225l-147 -93q-56 -36 -64 -75h359v-133h-549v26q0 191 174 297l123 76q88 54 88 129q0 42 -29.5 72t-81.5 30q-53 0 -84.5 -32t-31.5 -86q0 -27 6 -54h-152z" />
    <glyph glyph-name="three.numr" horiz-adv-x="843" 
d="M305 1032l195 162h-350v133h555v-129l-205 -164q94 -8 157.5 -66t63.5 -157q0 -104 -83 -176t-214 -72q-125 0 -202.5 61.5t-98.5 149.5l137 55q9 -58 54 -94.5t108 -36.5q62 0 100.5 32.5t38.5 80.5q0 60 -40.5 87.5t-98.5 27.5q-29 0 -57 -8z" />
    <glyph glyph-name="four.numr" horiz-adv-x="913" 
d="M123 877l362 450h174v-467h132v-133h-132v-147h-157v147h-379v150zM502 1145l-228 -285h228v285z" />
    <glyph glyph-name="five.numr" horiz-adv-x="776" 
d="M258 815q13 -54 53.5 -85.5t96.5 -31.5q61 0 99 33t38 92q0 61 -38 94t-99 33q-77 0 -132 -55l-131 49l101 383h418v-135h-316l-47 -176q51 57 150 57q115 0 184.5 -66t69.5 -178q0 -113 -79.5 -188.5t-217.5 -75.5q-105 0 -184.5 56.5t-100.5 132.5z" />
    <glyph glyph-name="six.numr" horiz-adv-x="856" 
d="M659 1188q-59 26 -127 26q-100 0 -167 -55.5t-84 -159.5q27 39 78.5 63.5t107.5 24.5q121 0 193.5 -68.5t72.5 -189.5q0 -117 -86 -190.5t-215 -73.5q-59 0 -113 21t-98.5 61t-71 107.5t-26.5 152.5q0 197 112 316.5t285 119.5q114 0 176 -38zM293 827q0 -60 42 -94.5
t99 -34.5q56 0 97.5 34.5t41.5 94.5t-41.5 94.5t-97.5 34.5q-57 0 -99 -34.5t-42 -94.5z" />
    <glyph glyph-name="seven.numr" horiz-adv-x="854" 
d="M731 1186q-29 -19 -57.5 -44.5t-73 -79t-79 -116t-65 -159.5t-40.5 -207h-168q10 114 42.5 218.5t71.5 173t76.5 121t62.5 75.5l25 24h-403v135h608v-141z" />
    <glyph glyph-name="eight.numr" horiz-adv-x="839" 
d="M420 565q-139 0 -218 62t-79 159q0 56 37 104.5t102 72.5q-54 23 -84.5 67t-30.5 96q0 95 77 155t196 60t195.5 -60t76.5 -155q0 -52 -30 -96t-84 -67q65 -24 102 -72.5t37 -104.5q0 -97 -79 -159t-218 -62zM420 1024q54 0 85.5 27t31.5 71q0 41 -31.5 66.5t-85.5 25.5
t-85.5 -25.5t-31.5 -66.5q0 -44 31.5 -71t85.5 -27zM420 696q66 0 101.5 28t35.5 75q0 45 -36.5 73.5t-100.5 28.5t-100.5 -28.5t-36.5 -73.5q0 -47 35.5 -75t101.5 -28z" />
    <glyph glyph-name="nine.numr" horiz-adv-x="851" 
d="M197 721q61 -27 127 -27q104 0 171.5 52.5t79.5 158.5q-27 -39 -78.5 -63.5t-107.5 -24.5q-117 0 -191.5 70t-74.5 188q0 116 86 190t215 74q59 0 112 -21t97 -61t70 -107.5t26 -152.5q0 -207 -109 -321.5t-284 -114.5q-112 0 -176 39zM559 1075q0 60 -41 95.5t-100 35.5
q-58 0 -98.5 -35t-40.5 -96t40.5 -96t98.5 -35q59 0 100 35.5t41 95.5z" />
    <glyph glyph-name="zero.dnom" horiz-adv-x="872" 
d="M123 373q0 169 72 270q85 119 241 119q157 0 242 -119q72 -101 72 -270q0 -168 -72 -269q-84 -118 -242 -118q-157 0 -241 118q-72 101 -72 269zM283 373q0 -252 153 -252q154 0 154 252q0 254 -154 254q-39 0 -67.5 -16t-44.5 -40.5t-25.5 -60t-12.5 -67t-3 -70.5z" />
    <glyph glyph-name="one.dnom" horiz-adv-x="620" 
d="M279 0v502h-177v106q73 1 125.5 41.5t63.5 98.5h145v-748h-157z" />
    <glyph glyph-name="two.dnom" horiz-adv-x="796" 
d="M137 459q-6 30 -6 63q0 100 74 170t196 70t195.5 -69t73.5 -167q0 -135 -144 -225l-147 -92q-56 -36 -64 -76h359v-133h-549v27q0 191 174 297l123 75q88 54 88 129q0 42 -30 72.5t-81 30.5q-53 0 -84.5 -32.5t-31.5 -86.5q0 -26 6 -53h-152z" />
    <glyph glyph-name="three.dnom" horiz-adv-x="843" 
d="M305 455l195 161h-350v134h555v-129l-205 -164q94 -8 157.5 -66.5t63.5 -157.5q0 -104 -83 -175.5t-214 -71.5q-125 0 -202.5 61.5t-98.5 149.5l137 55q9 -58 54 -94.5t108 -36.5q62 0 100.5 32t38.5 80q0 60 -40.5 87.5t-98.5 27.5q-29 0 -57 -8z" />
    <glyph glyph-name="four.dnom" horiz-adv-x="913" 
d="M123 297l362 451h174v-467h132v-134h-132v-147h-157v147h-379v150zM502 565l-228 -284h228v284z" />
    <glyph glyph-name="five.dnom" horiz-adv-x="827" 
d="M258 236q13 -54 53.5 -85.5t96.5 -31.5q61 0 99 33t38 92q0 61 -38 94t-99 33q-76 0 -132 -56l-131 50l101 383h418v-136h-316l-47 -176q52 58 150 58q115 0 184.5 -66t69.5 -178q0 -113 -79.5 -188.5t-217.5 -75.5q-105 0 -184.5 56t-100.5 132z" />
    <glyph glyph-name="six.dnom" horiz-adv-x="856" 
d="M659 608q-62 27 -127 27q-100 0 -167 -55.5t-84 -159.5q27 39 78.5 63.5t107.5 24.5q121 0 193.5 -68.5t72.5 -189.5q0 -117 -86 -190.5t-215 -73.5q-59 0 -113 21t-98.5 61t-71 107.5t-26.5 152.5q0 197 112 316.5t285 119.5q112 0 176 -39zM293 248q0 -60 42 -94.5
t99 -34.5q56 0 97.5 34.5t41.5 94.5t-41.5 94.5t-97.5 34.5q-57 0 -99 -34.5t-42 -94.5z" />
    <glyph glyph-name="seven.dnom" horiz-adv-x="854" 
d="M731 606q-29 -19 -57.5 -44.5t-73 -79t-79 -116t-65 -159.5t-40.5 -207h-168q10 114 42.5 218.5t71.5 173t76.5 121t62.5 75.5l25 24h-403v136h608v-142z" />
    <glyph glyph-name="eight.dnom" horiz-adv-x="839" 
d="M420 -14q-139 0 -218 62t-79 159q0 56 37 104t102 72q-54 23 -84.5 67.5t-30.5 96.5q0 95 77 155t196 60t195.5 -60t76.5 -155q0 -52 -30 -96.5t-84 -67.5q65 -24 102 -72t37 -104q0 -97 -79 -159t-218 -62zM420 444q54 0 85.5 27t31.5 72q0 41 -31.5 66.5t-85.5 25.5
t-85.5 -25.5t-31.5 -66.5q0 -45 31.5 -72t85.5 -27zM420 117q66 0 101.5 27.5t35.5 74.5q0 46 -36.5 74.5t-100.5 28.5t-100.5 -28.5t-36.5 -74.5q0 -47 35.5 -74.5t101.5 -27.5z" />
    <glyph glyph-name="nine.dnom" horiz-adv-x="851" 
d="M197 145q59 -26 127 -26q104 0 171.5 52.5t79.5 158.5q-27 -39 -78.5 -63.5t-107.5 -24.5q-117 0 -191.5 70t-74.5 188q0 116 86 190t215 74q59 0 112 -21t97 -61t70 -107.5t26 -152.5q0 -207 -109 -321.5t-284 -114.5q-112 0 -176 39zM559 500q0 60 -41 95.5t-100 35.5
q-58 0 -98.5 -35t-40.5 -96t40.5 -96t98.5 -35q59 0 100 35.5t41 95.5z" />
    <glyph glyph-name="space.frac" horiz-adv-x="102" 
 />
    <glyph glyph-name="a.ordn" horiz-adv-x="876" 
d="M135 821q0 88 59 143t152 68l180 25q54 8 54 51q0 50 -35.5 82.5t-104.5 32.5q-65 0 -104 -37t-45 -96l-141 32q9 97 88.5 162.5t199.5 65.5q150 0 221.5 -72.5t71.5 -185.5v-347q0 -80 8 -112h-145q-8 32 -8 90q-28 -46 -82 -78.5t-133 -32.5q-105 0 -170.5 61.5
t-65.5 147.5zM395 735q83 0 134 45.5t51 145.5v30l-195 -30q-43 -6 -69.5 -30.5t-26.5 -66.5q0 -39 28.5 -66.5t77.5 -27.5z" />
    <glyph glyph-name="b.ordn" horiz-adv-x="1011" 
d="M180 633v1038h152v-434q25 46 84.5 78.5t138.5 32.5q152 0 235.5 -102.5t83.5 -262.5t-87.5 -264.5t-237.5 -104.5q-148 0 -219 115v-96h-150zM719 983q0 106 -53 166.5t-140 60.5t-141.5 -61t-54.5 -166q0 -106 55 -168.5t141 -62.5q87 0 140 62.5t53 168.5z" />
    <glyph glyph-name="c.ordn" horiz-adv-x="946" 
d="M489 1208q-82 0 -140 -61.5t-58 -165.5q0 -106 58.5 -166.5t142.5 -60.5q42 0 75.5 12.5t54 33.5t33 42.5t19.5 44.5l137 -53q-30 -90 -112 -156t-207 -66q-152 0 -253.5 105.5t-101.5 263.5q0 159 100.5 264t251.5 105q129 0 210 -67t106 -161l-137 -53
q-16 58 -59.5 98.5t-119.5 40.5z" />
    <glyph glyph-name="d.ordn" horiz-adv-x="1013" 
d="M825 760q0 -85 6 -127h-147q-8 64 -8 94q-26 -47 -80.5 -80t-126.5 -33q-150 0 -241 104.5t-91 264.5q0 151 92.5 257t237.5 106q85 0 137.5 -31.5t69.5 -75.5v432h151v-911zM293 983q0 -104 52 -168.5t140 -64.5q85 0 138 65.5t53 167.5q0 104 -52 164.5t-139 60.5
q-86 0 -139 -62t-53 -163z" />
    <glyph glyph-name="e.ordn" horiz-adv-x="944" 
d="M801 831q-29 -97 -111.5 -158t-202.5 -61q-146 0 -249 101.5t-103 269.5q0 160 101 263.5t235 103.5q158 0 248 -99t90 -264q0 -12 -1 -23.5t-2 -18.5l-1 -7h-514q1 -84 58 -138.5t138 -54.5q139 0 183 129zM651 1055q-2 70 -48.5 117t-129.5 47q-77 0 -125 -49.5
t-53 -114.5h356z" />
    <glyph glyph-name="f.ordn" horiz-adv-x="716" 
d="M416 1192v-561h-156v561h-125v137h125v103q0 116 66 180.5t172 64.5q65 0 84 -14v-133q-24 8 -60 8q-42 0 -74 -25.5t-32 -87.5v-96h164v-137h-164z" />
    <glyph glyph-name="g.ordn" horiz-adv-x="952" 
d="M283 631q8 -69 57 -113.5t123 -44.5q203 0 203 215v82q-25 -46 -79 -75t-128 -29q-138 0 -229 95.5t-91 242.5q0 142 90 239.5t230 97.5q156 0 209 -104v90h149v-635q0 -71 -19 -131.5t-59 -111.5t-110 -80t-164 -29q-132 0 -223 73t-105 183zM483 795q84 0 135.5 57
t51.5 152q0 92 -52.5 148t-134.5 56q-84 0 -136 -56t-52 -148q0 -96 51.5 -152.5t136.5 -56.5z" />
    <glyph glyph-name="h.ordn" horiz-adv-x="968" 
d="M334 633h-154v1038h154v-416q69 93 203 93q122 0 186.5 -76.5t64.5 -198.5v-440h-153v414q0 73 -36 117t-116 44q-68 0 -107.5 -47.5t-41.5 -120.5v-407z" />
    <glyph glyph-name="i.ordn" horiz-adv-x="569" 
d="M182 1579q0 43 30 73.5t73 30.5t72.5 -30.5t29.5 -73.5t-29.5 -72.5t-72.5 -29.5t-73 29.5t-30 72.5zM209 633v694h151v-694h-151z" />
    <glyph glyph-name="j.ordn" horiz-adv-x="608" 
d="M254 1581q0 43 30 74t72 31q43 0 73 -31t30 -74t-30 -72.5t-73 -29.5t-72.5 29.5t-29.5 72.5zM281 1327h153v-768q0 -98 -54 -158.5t-147 -60.5q-60 0 -90 10v127q24 -4 47 -4q91 0 91 96v758z" />
    <glyph glyph-name="k.ordn" horiz-adv-x="880" 
d="M530 1034l295 -401h-190l-213 293l-90 -92v-201h-152v1038h152v-635l280 291h207z" />
    <glyph glyph-name="l.ordn" horiz-adv-x="514" 
d="M180 633v1038h154v-1038h-154z" />
    <glyph glyph-name="m.ordn" horiz-adv-x="1394" 
d="M180 633v694h146v-90q31 53 88.5 82t120.5 29q70 0 125.5 -32t80.5 -93q76 125 230 125q101 0 172 -68.5t71 -196.5v-450h-149v428q0 68 -35 108.5t-104 40.5q-67 0 -109.5 -45.5t-42.5 -115.5v-416h-151v428q0 68 -35 108.5t-105 40.5q-68 0 -109.5 -46t-41.5 -117v-414
h-152z" />
    <glyph glyph-name="n.ordn" horiz-adv-x="968" 
d="M334 633h-154v694h150v-94q34 57 89.5 86t119.5 29q121 0 185 -77t64 -198v-440h-153v414q0 73 -36 117t-116 44q-70 0 -109.5 -49.5t-39.5 -124.5v-401z" />
    <glyph glyph-name="o.ordn" horiz-adv-x="991" 
d="M496 1350q155 0 256.5 -104.5t101.5 -264.5t-101.5 -264.5t-256.5 -104.5q-156 0 -257.5 104.5t-101.5 264.5t101.5 264.5t257.5 104.5zM496 750q85 0 143.5 61t58.5 170t-58.5 169t-143.5 60q-87 0 -146 -60t-59 -169t59 -170t146 -61z" />
    <glyph glyph-name="p.ordn" horiz-adv-x="1011" 
d="M180 360v967h150v-100q26 50 85.5 83t139.5 33q149 0 234 -102t85 -260q0 -159 -88.5 -263t-236.5 -104q-73 0 -130 29.5t-87 73.5v-357h-152zM721 981q0 100 -54 163.5t-141 63.5q-86 0 -141 -63.5t-55 -163.5q0 -101 55 -165t141 -64q87 0 141 63.5t54 165.5z" />
    <glyph glyph-name="q.ordn" horiz-adv-x="976" 
d="M678 360v361q-27 -49 -82 -78t-127 -29q-147 0 -239.5 106t-92.5 263q0 153 90 258t238 105q83 0 138 -34.5t79 -82.5v98h147v-967h-151zM293 983q0 -103 53 -168t139 -65t140.5 65t54.5 168q0 101 -54 163t-141 62q-86 0 -139 -62t-53 -163z" />
    <glyph glyph-name="r.ordn" horiz-adv-x="589" 
d="M545 1174q-30 6 -60 6q-85 0 -134.5 -50.5t-49.5 -158.5v-338h-154v694h150v-115q31 68 86 96.5t115 28.5q19 0 47 -4v-159z" />
    <glyph glyph-name="s.ordn" horiz-adv-x="821" 
d="M274 860q5 -54 44 -89.5t104 -35.5q52 0 81 25t29 61q0 30 -21.5 51.5t-61.5 30.5l-111 25q-85 18 -132.5 72t-47.5 126q0 92 73.5 158t178.5 66q68 0 120.5 -20t81.5 -52t44 -61.5t20 -59.5l-131 -41q-6 40 -38 74.5t-97 34.5q-46 0 -76.5 -25.5t-30.5 -58.5
q0 -30 19.5 -50t54.5 -28l108 -23q95 -21 146 -76t51 -133q0 -86 -68.5 -152.5t-191.5 -66.5q-70 0 -125.5 20.5t-88 53.5t-50 66.5t-21.5 66.5z" />
    <glyph glyph-name="t.ordn" horiz-adv-x="663" 
d="M395 1327h148v-137h-148v-338q0 -46 21.5 -68t70.5 -22q29 0 56 6v-129q-35 -14 -99 -14q-93 0 -147.5 53.5t-54.5 148.5v363h-129v137h37q53 0 79.5 30t26.5 79v106h139v-215z" />
    <glyph glyph-name="u.ordn" horiz-adv-x="901" 
d="M600 715q-26 -50 -82 -76.5t-119 -26.5q-120 0 -191 79t-71 198v438h154v-412q0 -73 36.5 -119t110.5 -46q73 0 113.5 44.5t40.5 118.5v414h153v-567q0 -82 9 -127h-148q-6 24 -6 82z" />
    <glyph glyph-name="v.ordn" horiz-adv-x="827" 
d="M492 633h-154l-283 694h170l191 -512l186 512h164z" />
    <glyph glyph-name="w.ordn" horiz-adv-x="1234" 
d="M696 1327l172 -496l144 496h157l-223 -694h-155l-177 510l-174 -510h-159l-226 694h164l148 -496l172 496h157z" />
    <glyph glyph-name="x.ordn" horiz-adv-x="845" 
d="M330 985l-250 342h184l160 -231l158 231h178l-246 -340q96 -137 254 -354h-182l-168 241q-6 -11 -82.5 -121.5t-83.5 -119.5h-176z" />
    <glyph glyph-name="y.ordn" horiz-adv-x="856" 
d="M184 348l170 365l-299 614h176l205 -455l197 455h162l-445 -979h-166z" />
    <glyph glyph-name="z.ordn" horiz-adv-x="837" 
d="M137 633v135l365 424h-357v135h549v-131l-366 -428h372v-135h-563z" />
    <glyph glyph-name="space.tf" 
 />
    <glyph glyph-name="numbersign.tf" 
d="M932 985h198v-166h-233l-66 -307h199v-166h-235l-74 -346h-180l73 346h-237l-74 -346h-180l74 346h-181v166h217l66 307h-182v166h217l74 342h180l-74 -342h238l73 342h181zM414 512h237l66 307h-238z" />
    <glyph glyph-name="dollar.tf" 
d="M514 -213v205q-100 10 -180.5 48.5t-132 94t-81.5 119t-38 131.5l188 61q8 -104 70 -181.5t174 -96.5v414l-49 10q-155 33 -242.5 126t-87.5 236q0 142 106.5 249.5t272.5 127.5v209h156v-211q87 -11 155 -44.5t110 -81.5t66.5 -95.5t38.5 -101.5l-178 -66
q-6 41 -27.5 81.5t-64.5 78t-100 53.5v-408l28 -6q164 -32 259.5 -132.5t95.5 -235.5q0 -141 -101 -249t-282 -130v-205h-156zM332 963q0 -147 182 -183v379q-85 -17 -133.5 -70t-48.5 -126zM858 360q0 66 -47.5 117.5t-140.5 73.5v-383q93 17 140.5 68.5t47.5 123.5z" />
    <glyph glyph-name="percent.tf" 
d="M37 1065q0 113 82.5 192.5t195.5 79.5q114 0 197.5 -79.5t83.5 -192.5q0 -116 -83.5 -196.5t-197.5 -80.5t-196 80.5t-82 196.5zM193 1065q0 -55 35 -91t87 -36q54 0 89.5 36t35.5 91q0 54 -35.5 88.5t-89.5 34.5q-52 0 -87 -35t-35 -88zM1077 918l-987 -670v184l987 674
v-188zM551 260q0 113 82.5 192.5t195.5 79.5q114 0 197.5 -79.5t83.5 -192.5q0 -116 -83.5 -196t-197.5 -80t-196 80t-82 196zM707 260q0 -55 35 -91t87 -36q54 0 89.5 36t35.5 91q0 54 -35.5 88.5t-89.5 34.5q-52 0 -87 -35t-35 -88z" />
    <glyph glyph-name="plus.tf" 
d="M489 670v399h168v-399h385v-162h-385v-404h-168v404h-383v162h383z" />
    <glyph glyph-name="comma.tf" 
d="M391 152q0 64 50 110.5t122 46.5q81 0 137 -59t56 -166q0 -110 -33.5 -198.5t-87 -141t-112 -82.5t-117.5 -37v123q85 20 139.5 93.5t56.5 160.5q-24 -12 -51 -12q-68 0 -114 44t-46 118z" />
    <glyph glyph-name="period.tf" 
d="M410 152q0 68 47 115.5t116 47.5t116.5 -47.5t47.5 -115.5q0 -69 -47.5 -116.5t-116.5 -47.5t-116 47.5t-47 116.5z" />
    <glyph glyph-name="zero.tf" 
d="M70 664q0 324 106 487q64 97 166.5 152t230.5 55t231 -55t167 -152q106 -163 106 -487q0 -325 -106 -488q-64 -97 -167 -152t-231 -55t-230.5 55t-166.5 152q-106 163 -106 488zM268 664q0 -52 2 -94t9 -97.5t19.5 -98.5t35.5 -87.5t54.5 -73.5t78.5 -47.5t106 -18.5
t106 18.5t78.5 47.5t54.5 73.5t35.5 87.5t20 98.5t9.5 98t2 93.5q0 61 -3.5 110.5t-13 113.5t-30.5 112t-53.5 91t-85 66t-120.5 23q-59 0 -106 -18.5t-78.5 -47.5t-54.5 -73t-35.5 -87t-19.5 -98.5t-9 -97.5t-2 -94z" />
    <glyph glyph-name="one.tf" 
d="M549 180v756h-322v141q135 3 226.5 72t115.5 178h176v-1147h320v-180h-850v180h334z" />
    <glyph glyph-name="two.tf" 
d="M125 874q-2 18 -2 54q0 115 53 212t159.5 157.5t246.5 60.5q206 0 327 -117.5t121 -290.5q0 -127 -66 -230.5t-184 -178.5l-262 -168q-67 -43 -108.5 -87t-53.5 -100h682v-186h-929q3 167 76.5 294.5t238.5 233.5l221 144q182 116 182 276q0 98 -65 166t-184 68
q-125 0 -190.5 -76.5t-65.5 -196.5q0 -19 4 -59z" />
    <glyph glyph-name="three.tf" 
d="M348 782l391 361h-635v184h902v-180l-379 -350q75 0 146.5 -25.5t131 -74t95.5 -127.5t36 -177q0 -84 -32.5 -160.5t-92 -136t-152 -94.5t-204.5 -35q-111 0 -204 34.5t-154 93t-96 133.5t-40 157l197 45q6 -130 89.5 -208.5t205.5 -78.5q131 0 206 70.5t75 175.5
q0 83 -41.5 141t-101 82.5t-128.5 24.5q-56 0 -117 -21z" />
    <glyph glyph-name="four.tf" 
d="M76 530l569 797h277v-842h206v-186h-206v-299h-195v299h-651v231zM727 1135l-467 -650h467v650z" />
    <glyph glyph-name="five.tf" 
d="M274 418q9 -123 91.5 -199t207.5 -76q121 0 203 74.5t82 194.5q0 131 -82.5 202.5t-204.5 71.5q-70 0 -134 -25.5t-107 -70.5q-28 11 -93.5 37.5t-103.5 40.5l172 659h701v-184h-568l-98 -381q43 48 115.5 73t154.5 25q199 0 325 -119t126 -321q0 -93 -35 -176
t-98 -144.5t-155 -97t-200 -35.5q-205 0 -341 115t-150 278z" />
    <glyph glyph-name="six.tf" 
d="M987 1120q-98 58 -237 58q-203 0 -329 -132t-138 -341q45 73 135.5 121t214.5 48q201 0 329 -122t128 -330q0 -135 -69.5 -240t-181.5 -159t-243 -54q-78 0 -151.5 21.5t-140.5 69.5t-117 118t-79.5 174.5t-29.5 231.5q0 181 52.5 328.5t144.5 244.5t217 149t270 52
q88 0 164 -20.5t123 -53.5zM311 422q0 -125 86 -202t201 -77q122 0 205.5 75.5t83.5 203.5q0 129 -84 204.5t-205 75.5t-204 -75.5t-83 -204.5z" />
    <glyph glyph-name="seven.tf" 
d="M1077 1135q-36 -29 -68 -57t-89 -88t-104 -122t-103 -157t-96.5 -196t-74 -236t-46.5 -279h-207q9 124 34.5 242.5t60.5 213.5t78 183t88 155.5t89 125.5t83 98.5t69 69t47 42.5l18 13h-788v184h1009v-192z" />
    <glyph glyph-name="eight.tf" 
d="M573 -31q-222 0 -351.5 108t-129.5 273q0 117 70.5 204t181.5 124q-94 35 -155.5 119.5t-61.5 191.5q0 162 127 265.5t319 103.5t319.5 -104t127.5 -265q0 -105 -61.5 -191t-155.5 -120q110 -35 181 -123t71 -205q0 -165 -129.5 -273t-352.5 -108zM573 762
q107 2 176.5 61.5t69.5 155.5q0 91 -68 152t-178 61t-177.5 -61t-67.5 -152q0 -96 69 -155.5t176 -61.5zM573 143q130 0 204.5 63.5t74.5 160.5q0 98 -75 162.5t-204 64.5q-128 0 -203 -64.5t-75 -162.5q0 -97 74 -160.5t204 -63.5z" />
    <glyph glyph-name="nine.tf" 
d="M156 213q44 -27 111 -45t130 -18q117 0 206 36t143 101t81.5 147.5t30.5 183.5q-39 -71 -128 -119t-216 -48q-87 0 -168.5 29.5t-146.5 84t-104.5 141.5t-39.5 193q0 133 68.5 239.5t180 163t241.5 56.5q100 0 190.5 -36.5t164.5 -108.5t117.5 -192t43.5 -273
q0 -372 -167.5 -575.5t-496.5 -203.5q-78 0 -168 22.5t-139 55.5zM831 903q0 124 -86 201.5t-200 77.5q-116 0 -201.5 -77t-85.5 -202q0 -130 83.5 -205t203.5 -75q116 0 201 76.5t85 203.5z" />
    <glyph glyph-name="colon.tf" 
d="M416 844q0 66 44.5 111.5t110.5 45.5t112 -45.5t46 -111.5q0 -65 -46 -110.5t-112 -45.5t-110.5 45.5t-44.5 110.5zM416 133q0 66 44.5 112t110.5 46t112 -46t46 -112q0 -65 -46 -110.5t-112 -45.5t-110.5 45.5t-44.5 110.5z" />
    <glyph glyph-name="semicolon.tf" 
d="M418 844q0 66 44.5 111.5t110.5 45.5t112 -45.5t46 -111.5q0 -65 -46 -110.5t-112 -45.5t-110.5 45.5t-44.5 110.5zM414 143q0 60 45.5 103t113.5 43q73 0 124 -54.5t51 -152.5q0 -102 -30.5 -183.5t-80 -130t-102.5 -76t-107 -34.5v115q76 17 126.5 85t53.5 148
q-20 -10 -49 -10q-62 0 -103.5 39.5t-41.5 107.5z" />
    <glyph glyph-name="less.tf" 
d="M152 674l843 422v-195l-635 -313l635 -314v-194l-843 420v174z" />
    <glyph glyph-name="equal.tf" 
d="M100 709v157h949v-157h-949zM100 309v162h949v-162h-949z" />
    <glyph glyph-name="greater.tf" 
d="M995 500l-843 -420v194l639 314l-639 313v195l843 -422v-174z" />
    <glyph glyph-name="cent.tf" 
d="M516 0v193q-172 31 -279.5 163.5t-107.5 315.5q0 185 108 315.5t279 161.5v180h156v-176q145 -16 233.5 -97.5t120.5 -189.5l-166 -67q-17 65 -63.5 117t-124.5 69v-629q84 17 132.5 70t65.5 113l164 -68q-35 -104 -128.5 -186.5t-233.5 -96.5v-188h-156zM319 672
q0 -119 54 -198.5t143 -108.5v612q-88 -29 -142.5 -108t-54.5 -197z" />
    <glyph glyph-name="sterling.tf" 
d="M266 735q-61 134 -61 242q0 164 113.5 272.5t285.5 108.5q91 0 163 -22.5t117.5 -58.5t76 -85t43.5 -97.5t16 -101.5l-201 -35q-1 111 -57.5 167.5t-153.5 56.5q-86 0 -144 -54.5t-58 -150.5q0 -94 67 -242h377v-176h-324q4 -36 4 -55q0 -107 -51 -193t-143 -133h350
q98 0 147.5 62.5t49.5 154.5l192 -28q0 -163 -91.5 -265t-248.5 -102h-624v195q103 42 164 120.5t61 165.5q0 45 -8 78h-205v176h143z" />
    <glyph glyph-name="currency.tf" 
d="M145 489q0 135 76 248l-153 158l122 121l154 -160q112 72 238 72q121 0 227 -64l147 152l123 -121l-143 -150q84 -119 84 -256q0 -142 -82 -251l141 -146l-121 -121l-143 148q-108 -68 -233 -68q-131 0 -244 76l-150 -156l-120 121l149 156q-72 112 -72 241zM315 489
q0 -118 77.5 -194t189.5 -76t187 75.5t75 194.5q0 117 -75.5 193t-186.5 76q-112 0 -189.5 -76t-77.5 -193z" />
    <glyph glyph-name="yen.tf" 
d="M684 317v-317h-199v317h-346v148h346v164h-346v145h240l-350 553h233l322 -534l305 534h229l-334 -553h244v-145h-344v-164h344v-148h-344z" />
    <glyph glyph-name="section.tf" horiz-adv-x="1142" 
d="M971 500q0 -86 -53 -156t-117 -96q83 -54 130.5 -132t47.5 -163q0 -164 -122.5 -267.5t-293.5 -103.5q-189 0 -291.5 102t-105.5 273l180 37q0 -115 56 -183.5t165 -68.5q98 0 156.5 50t58.5 140q0 56 -31.5 102.5t-86.5 74.5l-211 110q-65 33 -109 62t-86.5 70.5
t-64 94.5t-21.5 119q0 87 54 157t118 93q-86 54 -133 132t-47 165q0 109 58 195t152 131t204 45q188 0 293.5 -106.5t105.5 -268.5l-182 -37q0 116 -56.5 183t-165.5 67q-96 0 -155.5 -52.5t-59.5 -138.5q0 -115 121 -174l209 -110q51 -27 87.5 -49t76 -54.5t63.5 -66
t40 -79t16 -97.5zM453 758q-37 -16 -67 -62.5t-30 -99.5q0 -58 30.5 -100.5t98.5 -77.5l203 -111q36 17 66 63t30 99q0 58 -30.5 100.5t-98.5 77.5z" />
    <glyph glyph-name="logicalnot.tf" 
d="M834 305v400h-777v167h949v-567h-172z" />
    <glyph glyph-name="plusminus.tf" 
d="M489 791v278h168v-278h365v-158h-365v-275h-168v275h-362v158h362zM1022 266v-162h-895v162h895z" />
    <glyph glyph-name="multiply.tf" 
d="M571 471l-344 -356l-114 114l346 361l-344 356l116 117l342 -356l342 356l117 -115l-346 -358l348 -361l-114 -116z" />
    <glyph glyph-name="divide.tf" 
d="M438 952q0 54 39.5 92.5t93.5 38.5t92.5 -38.5t38.5 -92.5t-38.5 -93.5t-92.5 -39.5t-93.5 39.5t-39.5 93.5zM104 674h936v-170h-936v170zM438 225q0 54 39.5 92.5t93.5 38.5t92.5 -38.5t38.5 -92.5t-38.5 -93.5t-92.5 -39.5t-93.5 39.5t-39.5 93.5z" />
    <glyph glyph-name="florin.tf" 
d="M520 815h-225v170h260l47 232q29 148 122.5 222t215.5 74q87 0 152 -20v-170q-51 14 -109 14q-25 0 -45 -3t-45 -14.5t-43.5 -31t-36 -55t-27.5 -84.5l-32 -164h264v-170h-299l-168 -842q-29 -148 -122.5 -222.5t-215.5 -74.5q-90 0 -158 21v170q51 -14 115 -14
q32 0 57.5 6.5t54.5 24t51 57.5t34 100z" />
    <glyph glyph-name="uni2007.tf" 
 />
    <glyph glyph-name="uni2008.tf" 
 />
    <glyph glyph-name="perthousand.tf" 
d="M35 1098q0 100 72.5 170.5t173.5 70.5q99 0 172 -70.5t73 -170.5t-73 -171t-172 -71q-100 0 -173 70.5t-73 171.5zM1081 1106l-987 -770v184l987 774v-188zM168 1098q0 -49 32.5 -81t80.5 -32q47 0 77.5 32t30.5 81t-30.5 80.5t-77.5 31.5q-48 0 -80.5 -31.5t-32.5 -80.5
zM270 219q0 101 73 171.5t173 70.5q103 0 174 -78q71 78 176 78q99 0 172.5 -71t73.5 -171t-73.5 -171t-172.5 -71q-108 0 -176 78q-68 -78 -174 -78q-100 0 -173 70.5t-73 171.5zM516 332q-48 0 -80.5 -32t-32.5 -81t32.5 -81t80.5 -32q47 0 78 32t31 81t-31 81t-78 32z
M866 332q-48 0 -80 -32t-32 -81t32 -81t80 -32q47 0 78 32t31 81t-31 81t-78 32z" />
    <glyph glyph-name="Euro.tf" 
d="M236 666q0 62 4 82h-152v159h182q35 110 102 197t152.5 142t182.5 83.5t198 28.5q53 0 94.5 -5t65 -11.5t61.5 -18.5l-47 -168q-91 25 -174 25q-143 0 -257 -69.5t-169 -203.5h527l-50 -159h-516q-6 -34 -6 -82q0 -61 6 -88h482l-50 -164h-389q57 -129 169.5 -195.5
t252.5 -66.5q93 0 174 24l47 -168q-38 -12 -61.5 -18.5t-65 -11.5t-94.5 -5q-134 0 -257 47.5t-225 149.5t-149 244h-186v164h152q-4 24 -4 88z" />
    <glyph glyph-name="minus.tf" 
d="M139 508v162h867v-162h-867z" />
    <glyph glyph-name="approxequal.tf" 
d="M1083 786q-119 -170 -299 -170q-95 0 -204 62l-97 53q-65 35 -127 35q-106 0 -186 -92l-109 96q120 174 293 174q94 0 211 -63l94 -52q71 -41 144 -41q100 0 176 91zM1083 389q-119 -170 -299 -170q-95 0 -204 62l-97 53q-65 35 -127 35q-105 0 -186 -93l-109 97
q120 174 293 174q92 0 211 -64l94 -51q71 -41 144 -41q101 0 176 90z" />
    <glyph glyph-name="notequal.tf" 
d="M489 309l-151 -205h-197l152 205h-195v162h314l174 238h-488v157h604l150 203h197l-150 -203h148v-157h-265l-174 -238h439v-162h-558z" />
    <glyph glyph-name="lessequal.tf" 
d="M152 797l843 299v-172l-628 -213l628 -213v-172l-843 297v174zM995 266v-162h-843v162h843z" />
    <glyph glyph-name="greaterequal.tf" 
d="M995 623l-843 -297v172l628 213l-628 213v172l843 -299v-174zM995 266v-162h-843v162h843z" />
    <glyph glyph-name="parenleft.case" horiz-adv-x="608" 
d="M113 721q0 522 383 905l112 -100q-164 -179 -246.5 -371t-82.5 -434t82.5 -434t246.5 -371l-112 -100q-383 383 -383 905z" />
    <glyph glyph-name="parenright.case" horiz-adv-x="608" 
d="M496 721q0 -522 -383 -905l-113 100q164 180 247 372t83 433t-83 433t-247 372l113 100q383 -383 383 -905z" />
    <glyph glyph-name="hyphen.case" horiz-adv-x="739" 
d="M92 606v168h555v-168h-555z" />
    <glyph glyph-name="bracketleft.case" horiz-adv-x="589" 
d="M184 -184v1822h396v-155h-228v-1514h228v-153h-396z" />
    <glyph glyph-name="bracketright.case" horiz-adv-x="589" 
d="M10 -184v153h228v1514h-228v155h396v-1822h-396z" />
    <glyph glyph-name="braceleft.case" horiz-adv-x="722" 
d="M92 813q98 0 161.5 50t63.5 157v237q0 189 94 285t275 96h27v-153h-27q-112 0 -156.5 -50t-44.5 -165v-293q0 -101 -56.5 -167t-156.5 -85q100 -19 156.5 -85t56.5 -167v-289q0 -115 44.5 -165t156.5 -50h27v-153h-27q-181 0 -275 96t-94 285v233q0 107 -63.5 157
t-161.5 50v176z" />
    <glyph glyph-name="braceright.case" horiz-adv-x="722" 
d="M631 637q-98 0 -161.5 -50t-63.5 -157v-233q0 -189 -94 -285t-275 -96h-27v153h27q112 0 156.5 50t44.5 165v289q0 101 56.5 167t156.5 85q-100 19 -156.5 85t-56.5 167v293q0 115 -44.5 165t-156.5 50h-27v153h27q181 0 275 -96t94 -285v-237q0 -107 63.5 -157
t161.5 -50v-176z" />
    <glyph glyph-name="exclamdown.case" horiz-adv-x="636" 
d="M184 1325q0 56 39 95.5t94 39.5q56 0 96 -40t40 -95t-40 -94t-96 -39q-55 0 -94 39t-39 94zM438 0h-241l53 1034h137z" />
    <glyph glyph-name="guillemotleft.case" horiz-adv-x="964" 
d="M334 305l-273 391l273 391h190l-268 -391l268 -391h-190zM733 305l-272 391l272 391h191l-269 -391l269 -391h-191z" />
    <glyph glyph-name="uni00AD.case" horiz-adv-x="739" 
d="M92 641v168h555v-168h-555z" />
    <glyph glyph-name="guillemotright.case" horiz-adv-x="964" 
d="M41 305l268 391l-268 391h190l273 -391l-273 -391h-190zM440 305l269 391l-269 391h191l272 -391l-272 -391h-191z" />
    <glyph glyph-name="questiondown.case" horiz-adv-x="1044" 
d="M686 1331q0 -56 -39 -95.5t-94 -39.5t-95 40t-40 95t39.5 94t95.5 39q55 0 94 -39t39 -94zM643 1040q2 -25 2 -71q0 -103 -40.5 -181.5t-129.5 -138.5l-90 -61q-52 -35 -80.5 -88t-28.5 -113q0 -97 63.5 -165t180.5 -68q85 0 144.5 39.5t85.5 97t26 125.5q0 60 -14 100
l199 -24q12 -44 12 -99q0 -58 -16.5 -116t-52.5 -113t-88 -97.5t-128.5 -68t-167.5 -25.5q-138 0 -242 60t-155 152.5t-51 199.5q0 215 209 356l94 64q90 61 90 196q0 25 -2 39h180z" />
    <glyph glyph-name="endash.case" horiz-adv-x="1273" 
d="M113 606v168h1048v-168h-1048z" />
    <glyph glyph-name="emdash.case" horiz-adv-x="2217" 
d="M133 606v168h1952v-168h-1952z" />
    <glyph glyph-name="guilsinglleft.case" horiz-adv-x="565" 
d="M334 305l-273 391l273 391h190l-268 -391l268 -391h-190z" />
    <glyph glyph-name="guilsinglright.case" horiz-adv-x="565" 
d="M41 305l268 391l-268 391h190l273 -391l-273 -391h-190z" />
    <glyph glyph-name="G.ss01" horiz-adv-x="1570" 
d="M821 -31q-110 0 -216 31.5t-198.5 96t-163 153.5t-111 212.5t-40.5 264.5t40.5 264t111 212t163 153t198.5 95.5t216 31.5q242 0 415.5 -124.5t229.5 -336.5l-186 -64q-45 166 -164 253t-295 87q-103 0 -196 -36t-167 -104.5t-117.5 -179.5t-43.5 -251t43.5 -251.5
t117.5 -181t167 -106t196 -36.5q195 0 318.5 103t144.5 259h-586v180h789q2 -16 2 -51q0 -111 -27 -211.5t-82 -185t-133.5 -146.5t-187.5 -96.5t-238 -34.5z" />
    <glyph glyph-name="a.ss02" horiz-adv-x="1193" 
d="M854 150q-38 -77 -117 -127t-188 -50q-141 0 -248.5 71t-163 190t-55.5 266q0 139 57.5 255.5t165.5 186.5t244 70q120 0 196.5 -48.5t104.5 -117.5v139h190v-803q0 -83 11 -182h-187q-10 58 -10 133v17zM279 500q0 -157 77 -257t211 -100q130 0 207.5 101t77.5 256
q0 154 -76 248t-207 94t-210.5 -94.5t-79.5 -247.5z" />
    <glyph glyph-name="agrave.ss02" horiz-adv-x="1193" 
d="M229 1411h242l176 -299h-160zM854 150q-38 -77 -117 -127t-188 -50q-141 0 -248.5 71t-163 190t-55.5 266q0 139 57.5 255.5t165.5 186.5t244 70q120 0 196.5 -48.5t104.5 -117.5v139h190v-803q0 -83 11 -182h-187q-10 58 -10 133v17zM279 500q0 -157 77 -257t211 -100
q130 0 207.5 101t77.5 256q0 154 -76 248t-207 94t-210.5 -94.5t-79.5 -247.5z" />
    <glyph glyph-name="aacute.ss02" horiz-adv-x="1193" 
d="M598 1112h-162l178 299h242zM854 150q-38 -77 -117 -127t-188 -50q-141 0 -248.5 71t-163 190t-55.5 266q0 139 57.5 255.5t165.5 186.5t244 70q120 0 196.5 -48.5t104.5 -117.5v139h190v-803q0 -83 11 -182h-187q-10 58 -10 133v17zM279 500q0 -157 77 -257t211 -100
q130 0 207.5 101t77.5 256q0 154 -76 248t-207 94t-210.5 -94.5t-79.5 -247.5z" />
    <glyph glyph-name="acircumflex.ss02" horiz-adv-x="1193" 
d="M260 1116l213 285h219l213 -285h-180l-143 166l-144 -166h-178zM854 150q-38 -77 -117 -127t-188 -50q-141 0 -248.5 71t-163 190t-55.5 266q0 139 57.5 255.5t165.5 186.5t244 70q120 0 196.5 -48.5t104.5 -117.5v139h190v-803q0 -83 11 -182h-187q-10 58 -10 133v17z
M279 500q0 -157 77 -257t211 -100q130 0 207.5 101t77.5 256q0 154 -76 248t-207 94t-210.5 -94.5t-79.5 -247.5z" />
    <glyph glyph-name="atilde.ss02" horiz-adv-x="1193" 
d="M893 1356q0 -110 -55 -166.5t-144 -56.5q-65 0 -135 45l-29 18q-49 29 -75 29q-31 0 -45.5 -19.5t-14.5 -68.5h-147v30q0 109 56 166.5t145 57.5q67 0 137 -45l28 -19q49 -29 74 -29q32 0 46 20t14 68h145v-30zM854 150q-38 -77 -117 -127t-188 -50q-141 0 -248.5 71
t-163 190t-55.5 266q0 139 57.5 255.5t165.5 186.5t244 70q120 0 196.5 -48.5t104.5 -117.5v139h190v-803q0 -83 11 -182h-187q-10 58 -10 133v17zM279 500q0 -157 77 -257t211 -100q130 0 207.5 101t77.5 256q0 154 -76 248t-207 94t-210.5 -94.5t-79.5 -247.5z" />
    <glyph glyph-name="adieresis.ss02" horiz-adv-x="1193" 
d="M266 1272q0 50 34 84.5t83 34.5q51 0 86 -34.5t35 -84.5q0 -51 -35 -85t-86 -34q-50 0 -83.5 34t-33.5 85zM649 1272q0 50 34 84.5t85 34.5q50 0 84.5 -34.5t34.5 -84.5q0 -51 -34.5 -85t-84.5 -34q-51 0 -85 34t-34 85zM854 150q-38 -77 -117 -127t-188 -50
q-141 0 -248.5 71t-163 190t-55.5 266q0 139 57.5 255.5t165.5 186.5t244 70q120 0 196.5 -48.5t104.5 -117.5v139h190v-803q0 -83 11 -182h-187q-10 58 -10 133v17zM279 500q0 -157 77 -257t211 -100q130 0 207.5 101t77.5 256q0 154 -76 248t-207 94t-210.5 -94.5
t-79.5 -247.5z" />
    <glyph glyph-name="aring.ss02" horiz-adv-x="1193" 
d="M791 1313q0 -93 -68 -158t-162 -65q-92 0 -159.5 65t-67.5 158q0 94 67.5 159.5t159.5 65.5q95 0 162.5 -65.5t67.5 -159.5zM659 1313q0 42 -29 71t-71 29q-41 0 -68.5 -29t-27.5 -71t27.5 -70.5t68.5 -28.5q43 0 71.5 29t28.5 70zM854 150q-38 -77 -117 -127t-188 -50
q-141 0 -248.5 71t-163 190t-55.5 266q0 139 57.5 255.5t165.5 186.5t244 70q120 0 196.5 -48.5t104.5 -117.5v139h190v-803q0 -83 11 -182h-187q-10 58 -10 133v17zM279 500q0 -157 77 -257t211 -100q130 0 207.5 101t77.5 256q0 154 -76 248t-207 94t-210.5 -94.5
t-79.5 -247.5z" />
    <glyph glyph-name="r.ss03" horiz-adv-x="675" 
d="M358 850q0 61 42 103t104 42q60 0 101.5 -42t41.5 -103q0 -60 -41.5 -101.5t-101.5 -41.5q-61 0 -103.5 41.5t-42.5 101.5zM356 0h-192v985h192v-985z" />
    <glyph glyph-name="ampersand.ss04" horiz-adv-x="1386" 
d="M793 680h563v-182h-176v-21q0 -104 -35 -196t-99.5 -161.5t-165 -110t-223.5 -40.5q-235 0 -379.5 119.5t-144.5 308.5q0 150 86.5 253.5t212.5 140.5q-101 36 -164 117t-63 200q0 158 122 266.5t304 108.5q112 0 198.5 -33t138.5 -90t80 -125.5t33 -147.5l-196 -34
q-8 120 -71 185t-181 65q-93 0 -158 -58t-65 -147q0 -67 36.5 -117t85.5 -72t99 -22h26v-185q-55 0 -107.5 -15t-102 -46.5t-79.5 -90t-30 -136.5q0 -106 84.5 -183t236.5 -77q149 0 233.5 86.5t84.5 236.5v21h-184v182z" />
    <glyph glyph-name="one.ss05" horiz-adv-x="952" 
d="M426 180v756h-322v141q135 3 226.5 72t115.5 178h177v-1147h319v-180h-850v180h334z" />
    <glyph glyph-name="registered.ss06" horiz-adv-x="878" 
d="M51 1077q0 160 113.5 273.5t273.5 113.5t274.5 -113.5t114.5 -273.5t-114.5 -273.5t-274.5 -113.5t-273.5 113.5t-113.5 273.5zM152 1077q0 -123 82.5 -208t203.5 -85t205 85t84 208t-84 208t-205 85t-203.5 -85t-82.5 -208zM434 1014h-31v-133h-106v401h170
q58 0 98.5 -39.5t40.5 -93.5q0 -75 -74 -115l74 -153h-110zM444 1100q24 0 39 13t15 36q0 21 -15 33t-39 12h-41v-94h41z" />
    <glyph glyph-name="caron.alt" horiz-adv-x="415" 
d="M213 1085h-141l57 367h215z" />
    <glyph glyph-name="commaturn" horiz-adv-x="352" 
d="M305 1200q0 -48 -34.5 -77t-86.5 -29q-51 0 -92 37t-41 112q0 104 72 167t162 63v-82q-51 0 -90.5 -30.5t-42.5 -68.5q13 13 43 13q50 0 80 -28t30 -77z" />
    <glyph glyph-name="dieresis.narrow" horiz-adv-x="602" 
d="M47 1272q0 46 31.5 78t77.5 32t78 -32t32 -78t-32 -77.5t-78 -31.5t-77.5 31.5t-31.5 77.5zM336 1272q0 46 31 78t77 32t78.5 -32t32.5 -78t-32.5 -77.5t-78.5 -31.5t-77 31.5t-31 77.5z" />
    <glyph glyph-name="dieresis.uc.narrow" horiz-adv-x="634" 
d="M51 1677q0 46 31.5 77.5t77.5 31.5t78 -31.5t32 -77.5t-32 -78t-78 -32t-77.5 32t-31.5 78zM365 1677q0 46 32 77.5t78 31.5t77.5 -31.5t31.5 -77.5t-31.5 -78t-77.5 -32t-78 32t-32 78z" />
    <glyph glyph-name="grave.uc" horiz-adv-x="559" 
d="M37 1798h264l209 -244h-191z" />
    <glyph glyph-name="dieresis.uc" horiz-adv-x="833" 
d="M59 1677q0 51 35 86t86 35t86 -35t35 -86t-35 -86t-86 -35t-86 35t-35 86zM532 1677q0 51 35 86t86 35t86 -35t35 -86t-35 -86t-86 -35t-86 35t-35 86z" />
    <glyph glyph-name="macron.uc" horiz-adv-x="702" 
d="M51 1595v170h600v-170h-600z" />
    <glyph glyph-name="acute.uc" horiz-adv-x="559" 
d="M242 1554h-193l207 244h266z" />
    <glyph glyph-name="circumflex.uc" horiz-adv-x="825" 
d="M59 1554l230 244h246l239 -244h-188l-174 132l-166 -132h-187z" />
    <glyph glyph-name="caron.uc" horiz-adv-x="825" 
d="M246 1798l166 -131l174 131h188l-239 -244h-246l-230 244h187z" />
    <glyph glyph-name="breve.uc" horiz-adv-x="759" 
d="M381 1544q-146 0 -230.5 78.5t-91.5 185.5h166q4 -43 42.5 -78.5t113.5 -35.5t112.5 35t41.5 79h165q-7 -108 -90 -186t-229 -78z" />
    <glyph glyph-name="dotaccent.uc" horiz-adv-x="362" 
d="M51 1675q0 54 38 92.5t91 38.5q54 0 92.5 -38.5t38.5 -92.5q0 -53 -38.5 -91t-92.5 -38q-52 0 -90.5 38t-38.5 91z" />
    <glyph glyph-name="ring.uc" horiz-adv-x="559" 
d="M508 1737q0 -93 -67.5 -158.5t-161.5 -65.5q-92 0 -160 65.5t-68 158.5q0 94 68 159.5t160 65.5q94 0 161.5 -65t67.5 -160zM375 1737q0 40 -29 68t-70 28q-40 0 -67 -28t-27 -68t27 -67.5t67 -27.5q41 0 70 27.5t29 67.5z" />
    <glyph glyph-name="tilde.uc" horiz-adv-x="763" 
d="M715 1772q0 -110 -54.5 -169t-142.5 -59q-79 0 -145 47l-31 21q-47 28 -76 28q-71 0 -71 -90h-140v33q0 110 55 168.5t144 58.5q72 0 149 -47l31 -18q53 -29 78 -29q29 0 47.5 17.5t18.5 54.5v16h137v-32z" />
    <glyph glyph-name="hungarumlaut.uc" horiz-adv-x="751" 
d="M195 1554h-144l125 244h215zM483 1554h-143l145 244h215z" />
    <glyph glyph-name="caron.alt.uc" horiz-adv-x="415" 
d="M221 1063h-149l61 389h227z" />
    <glyph glyph-name="undercommaaccent" horiz-adv-x="356" 
d="M51 -180q0 45 36.5 75.5t84.5 30.5q52 0 92.5 -36.5t40.5 -112.5q0 -75 -36 -129t-87 -77.5t-110 -23.5v82q51 0 90.5 30.5t42.5 68.5q-20 -13 -43 -13q-49 0 -80 27t-31 78z" />
    <glyph glyph-name="uni03060301" horiz-adv-x="0" 
d="M-791 1436h-145l86 254h221zM-858 1128q-125 0 -197.5 79.5t-74.5 187.5h137q2 -50 36 -86.5t99 -36.5t99 37t36 86h137q-2 -108 -73.5 -187.5t-198.5 -79.5z" />
    <glyph glyph-name="uni03060300" horiz-adv-x="0" 
d="M-1075 1683h221l86 -253h-145zM-858 1128q-125 0 -197.5 79.5t-74.5 187.5h137q2 -50 36 -86.5t99 -36.5t99 37t36 86h137q-2 -108 -73.5 -187.5t-198.5 -79.5z" />
    <glyph glyph-name="uni03060309" horiz-adv-x="0" 
d="M-928 1466l54 58q13 15 24.5 42.5t11.5 43.5q0 24 -17 41t-48 18q-32 1 -50 -19t-18 -48q0 -19 2 -23l-114 25q-5 21 -4 28q36 150 184 150q79 0 133.5 -40t54.5 -130q0 -75 -55 -121l-82 -70zM-858 1128q-125 0 -197.5 79.5t-74.5 187.5h137q2 -50 36 -86.5t99 -36.5
t99 37t36 86h137q-2 -108 -73.5 -187.5t-198.5 -79.5z" />
    <glyph glyph-name="uni03060303" horiz-adv-x="0" 
d="M-551 1667q0 -99 -50 -151t-130 -52q-59 0 -125 41l-25 17q-46 26 -69 26q-28 0 -41 -18.5t-13 -63.5h-135v29q0 99 51 151t132 52q63 0 125 -41l26 -17q46 -26 68 -26q28 0 40.5 18.5t12.5 63.5h133v-29zM-858 1128q-125 0 -197.5 79.5t-74.5 187.5h137q2 -50 36 -86.5
t99 -36.5t99 37t36 86h137q-2 -108 -73.5 -187.5t-198.5 -79.5z" />
    <glyph glyph-name="uni03020301" horiz-adv-x="0" 
d="M-467 1309h-145l86 254h221zM-1128 1128l194 261h199l194 -261h-164l-131 152l-131 -152h-161z" />
    <glyph glyph-name="uni03020300" horiz-adv-x="0" 
d="M-743 1577h221l86 -254h-146zM-1128 1128l194 261h199l194 -261h-164l-131 152l-131 -152h-161z" />
    <glyph glyph-name="uni03020309" horiz-adv-x="0" 
d="M-616 1366l53 57q13 15 25 43t12 43q0 24 -17.5 41.5t-48.5 18.5q-32 1 -49.5 -19t-17.5 -49q0 -18 2 -22l-115 24q-5 22 -4 29q36 149 184 149q79 0 134 -40t55 -130q0 -73 -56 -120l-82 -70zM-1128 1128l194 261h199l194 -261h-164l-131 152l-131 -152h-161z" />
    <glyph glyph-name="uni03020303" horiz-adv-x="0" 
d="M-541 1669q0 -99 -50 -151t-130 -52q-59 0 -125 41l-24 17q-46 26 -70 26q-27 0 -40 -18t-13 -64h-135v29q0 99 51 151t131 52q63 0 125 -41l26 -17q46 -26 68 -26q28 0 40.5 18.5t12.5 63.5h133v-29zM-1128 1128l194 261h199l194 -261h-164l-131 152l-131 -152h-161z
" />
    </font>
</defs>
</svg>
