<?xml version="1.0" standalone="no"?>
<!DOCTYPE svg PUBLIC "-//W3C//DTD SVG 1.1//EN" "http://www.w3.org/Graphics/SVG/1.1/DTD/svg11.dtd">
<svg xmlns="http://www.w3.org/2000/svg">
<metadata>Generated by Fontastic.me</metadata>
<defs>
<font id="untitled-font-1" horiz-adv-x="512">
<font-face font-family="untitled-font-1" units-per-em="512" ascent="480" descent="-32"/>
<missing-glyph horiz-adv-x="512" />

<glyph glyph-name="affliatelink" unicode="&#97;" d="M336 314c-3 4-6 7-9 11-4 3-7 6-11 9l-43-42c13-6 22-18 25-32 2-14-2-28-13-38l-144-144c-17-16-43-15-60 2-16 16-17 42-1 60l57 56c-11 22-15 47-12 71l-86-86c-32-40-29-99 8-136 37-37 96-40 136-7l144 143c35 36 39 92 9 133z m139 160c-39 39-104 39-144 0l-148-150c-36-36-40-92-10-133 3-4 6-8 9-11 4-3 8-7 12-10l42 43c-5 2-9 5-12 8-17 17-17 45 0 62l148 149c11 11 28 16 43 12 15-4 27-16 31-32 4-15-1-31-12-42l-62-62c11-22 15-46 12-70l91 91c20 19 30 45 30 72 0 27-10 54-30 73z"/>
<glyph glyph-name="airobot" unicode="&#98;" d="M231 412l17 27c-5 3-9 7-11 12l-29-6c0 0 0-1 0-1 0-5-1-10-4-14z m83-30c0-5-4-9-9-9-5 0-9 4-9 9 0 5 4 9 9 9 5 0 9-4 9-9z m-44 80c0-5-4-9-9-9-5 0-9 4-9 9 0 5 4 9 9 9 5 0 9-4 9-9z m-11-71l21 0c2 4 5 9 9 12l-27 27-15-25c6-4 10-8 12-14z m-88 0l39 0c1 3 3 7 6 10l-28 17c-6-2-12-2-17 0l-12-15c5-2 9-7 12-12z m19 53c0-5-4-9-9-9-5 0-9 4-9 9 0 5 4 9 9 9 5 0 9-4 9-9z m53-62c0-5-4-9-9-9-5 0-9 4-9 9 0 5 4 9 9 9 5 0 9-4 9-9z m161-58c1-4 6-6 10-5 5 2 7 6 6 11-1 3-5 6-9 5-4 0-7-3-8-7 0-1 0-2 0-3z m-22 67c1 0 2 0 3 0 4 1 7 4 8 8 0 4-2 8-6 9-5 2-10-1-11-5-2-5 1-10 6-12z m-41 53c0-5-4-9-9-9-5 0-9 4-9 9 0 5 4 9 9 9 5 0 9-4 9-9z m-11-51l28 5c0 0 0 1 0 2 0 3 1 6 2 9l-15 12c-4-2-9-4-13-4-15 0-27 12-27 27 0 0 0 1 0 2l-20 5c-2-4-5-8-9-11l33-32c9-1 17-7 21-15z m23-74c-1 0-2 0-3 0-5 0-9-4-9-8-1-5 2-10 7-11 5-1 9 2 10 7 2 5 0 9-5 11z m-31 42l29-23 17 42c0 0-1 1-1 1l-36-7c-1-5-4-9-9-13z m28-77c-11 0-21 7-25 17l-30-6c-1-4-3-7-6-11l30-45c10 2 21-3 26-12l15 12c-1 3-1 6-1 9 0 9 4 17 12 22l-11 15c-3-1-7-1-10-1z m-26 34c2 5 5 9 8 13l-25 20-18-31c2-3 4-5 5-8z m61 9c0 0 0 0 0 1 0 10 6 19 14 24l-10 21-5 0-17-42c3-3 5-5 6-8z m-53-114c0-5-4-9-9-9-5 0-9 4-9 9 0 5 4 9 9 9 5 0 9-4 9-9z m75-70c22 39 38 82 46 126 13 70-8 166-83 211-48 26-105 33-158 19-71-16-127-70-145-141-4-13-5-27-5-41 1-5 1-10 3-15 10 8 21 13 34 17 7 1 14 1 21-2 4 0 6-3 7-6 1-3 0-6-3-8-2-3-5-4-8-3-5 2-9 2-14 1-12-3-24-10-34-18 3-11 4-22 4-33-2-20-9-38-21-54-4-7-13-20-12-23 0 0 2-2 9-3 7 0 14-3 18-8 5-5 8-12 8-19-1-5-1-11 0-17 3 0 6 0 9 0 4 0 7-3 8-7 1-4-1-8-4-10-3-1-5-2-6-4 1-1 3-2 4-3 9-2 16-6 16-21 0-4 0-8 0-12-2-14-3-19 12-24 24-8 128 17 154 50 1 2 3 3 6 4 2 0 5-1 6-2 2-2 4-4 4-6 0-2 0-5-2-7-16-17-37-30-59-37 6-12 11-25 13-39l195 0c-18 33-30 69-36 106 0 2 0 3 0 4 4 9 8 17 13 25z m-22 79c-5 0-10 1-14 4l-22-17c-2-11-10-20-22-22-11-2-22 3-27 13-6 10-4 23 3 31l-30 44c-13-2-25 5-29 18l-48 0c-4-11-13-17-24-18-11 1-20 7-24 17-4 10-2 21 6 29l-15 35c-12 3-21 14-21 26 1 13 10 24 22 26l17 23c-2 4-3 8-3 13 0 11 6 21 16 25 11 4 22 1 30-7l35 7c3 12 13 20 25 20 12 0 23-8 26-20l26-6c9 9 23 10 34 4 11-7 15-20 11-32l15-12c4 2 8 4 13 4 11 0 21-7 25-17 4-9 2-21-6-29l14-26c11-3 19-12 21-24 1-11-6-22-16-27-11-4-23-2-30 7l-18-7c0-2-1-4-2-6l17-24c13-3 22-15 21-28-2-13-12-24-26-24z m-231 160c0-5-4-9-9-9-5 0-9 4-9 9 0 5 4 9 9 9 5 0 9-4 9-9z m240-134c0-5-4-9-9-9-5 0-9 4-9 9 0 5 4 9 9 9 5 0 9-4 9-9z m-115 54c0-5-4-9-9-9-5 0-9 4-9 9 0 5 4 9 9 9 5 0 9-4 9-9z m-70 71l-38 0c-3-7-8-12-14-15l12-30 8 0 40 34c-3 3-6 7-8 11z m-28-71c0-5-4-9-9-9-5 0-9 4-9 9 0 5 4 9 9 9 5 0 9-4 9-9z m12 16c2-2 3-5 4-7l48 0c1 4 3 7 6 10l-15 33z m77 10l3 0 19 30c-6 4-10 9-12 14l-21 0c-1-4-4-7-7-10l16-34z"/>
<glyph glyph-name="back" unicode="&#99;" d="M138 256l216 215 2 2c2 2 3 6 3 9 0 4-2 7-5 10-2 2-5 3-9 3-3 0-7-1-9-3l-227-227c-3-2-4-6-4-9 0-4 1-8 4-10l226-227c3-3 6-4 10-4 4 0 7 1 9 4l1 0c5 6 5 14-1 19z"/>
<glyph glyph-name="bitcoin" unicode="&#100;" d="M256 469c118 0 213-95 213-213 0-118-95-213-213-213-118 0-213 95-213 213 0 118 95 213 213 213z m0 43c-141 0-256-115-256-256 0-141 115-256 256-256 141 0 256 115 256 256 0 141-115 256-256 256z m-11-267l0-53c43 0 72 4 72 27 0 24-32 26-72 26z m60 48c0 22-22 27-60 27l0-53c24 0 60 1 60 26z m-49 155c-106 0-192-86-192-192 0-106 86-192 192-192 106 0 192 86 192 192 0 106-86 192-192 192z m21-288l0-32-21 0 0 32-11 0 0-32-21 0 0 32-53 0 5 32 12 0c9 0 15 9 15 18l0 95c0 9-5 15-15 15l-17 0 0 32 53 0 0 32 21 0 0-32 11 0 0 32 21 0 0-33c46-1 65-19 70-38 6-23-9-43-22-48 16-4 38-16 38-43 0-37-29-62-86-62z"/>
<glyph glyph-name="buy" unicode="&#101;" d="M278 507l0-57 133 0-99-98c-80 59-192 47-257-29-65-75-61-188 10-258 70-71 183-75 258-10 76 65 88 177 29 257l99 99 0-133 56 0 0 229z m-79-436c-71 0-128 57-128 128 0 70 57 128 128 128 71 0 128-58 128-128 0-34-14-66-38-90-24-24-56-38-90-38z"/>
<glyph glyph-name="check" unicode="&#102;" d="M195 68c-11 0-21 5-28 12l-147 149c-11 10-15 25-12 39 4 14 15 25 30 29 14 3 29-1 39-13l117-119 242 267c14 16 40 18 56 3 16-15 18-40 3-56l-271-298c-7-8-17-13-28-13z"/>
<glyph glyph-name="close" unicode="&#103;" d="M303 253l189 189c9 8 12 20 9 31-3 11-11 20-23 23-11 2-23-1-30-10l-189-188-189 188c-12 12-32 11-44 0-11-12-12-32 0-44l189-189-189-189c-9-9-12-22-7-34 5-12 16-19 29-19 8 0 16 3 22 9l189 189 189-189c7-9 19-12 30-9 12 3 20 11 23 23 3 11 0 23-9 30z"/>
<glyph glyph-name="commission" unicode="&#104;" d="M456 413l48 0 0-282-48 0z m-73 80l49 0 0-362-49 0z m-72-177l48 0 0-185-48 0z m-177 15c-14 16-20 39-15 60l16-4c-4-17 1-35 13-48l15-14 2 0 6 7c13 13 21 31 21 49l16 0c0-19-7-38-19-54 44 10 75 49 75 95l0 9c0 3-2 6-5 7-3 2-6 1-9-1l-17-17c-4-5-10-7-17-8-6 1-13 4-17 9l-25 29c-2 2-4 3-7 3-2 0-4-1-6-3l-24-28c-5-6-11-9-18-9-7 0-13 2-18 7l-17 17c-1 2-4 3-6 3-1 0-2 0-3 0-3-2-5-4-5-8l0-10c0-41 26-77 64-91z m-30-42c-31-21-49-56-49-93l-12-115c0-4-1-9-2-13-3-14 0-28 9-39 9-12 23-18 37-18l161 0c14 0 28 6 37 17 8 11 12 26 9 40-1 4-2 8-2 13l-12 114c0 56-41 104-96 112-3 4-7 9-10 14-2 3-6 5-10 3-27-12-104-38-127-3l-13-9c17-25 50-27 80-23z m23-166l17 0 0-4c0-5 2-10 6-14 4-4 9-6 14-6l8 0c11 0 21 9 21 20 0 12-10 21-21 21l-8 0c-20-1-36 14-37 34-1 19 13 36 32 38l0 24 16 0 0-24c19-2 33-18 33-36l0-4-16 0 0 4c0 11-9 20-20 20l-8 0c-12 0-21-9-21-20 0-12 9-21 21-21l8 0c19 1 35-14 36-34 1-19-13-36-33-38l0-24-16 0 0 24c-18 2-32 18-32 36z"/>
<glyph glyph-name="copy" unicode="&#105;" d="M496 378c0 1-1 2-1 3l0 2c0 0-1 1-1 2l-95 104c-2 2-5 3-8 3l-177 0c-9 0-17-3-23-9-6-6-9-14-9-22l0-52-136 0c-17-1-31-15-31-31l0-335c0-17 14-31 31-31l251 0c17 0 31 14 32 31l0 52 136 0c17 0 31 14 31 32l0 230z m-115 94l6 0 88-99 0-6-94 0z m-74-429c0-6-4-10-10-10l-251 0c-5 0-10 4-10 10l0 335c0 5 5 10 10 10l137 0 0-115c0-3 1-5 3-7 2-2 5-3 7-3l114 0z m0 240l-104 0 0 105 6 0 98-98z m157-167l-136 0 0 178c0 3-2 5-3 7l-103 105c-2 2-5 3-8 3l-11 0 0 52c0 6 5 10 11 10l146 0 0-114c0-6 5-11 10-11l105 0 0-219c0-6-5-11-11-11z"/>
<glyph glyph-name="deposite" unicode="&#106;" d="M236 168c3 4 3 10-1 13-3 4-9 4-13 0-4-3-4-9 0-13 4-4 10-4 14 0z m-47 231c0-59 48-107 108-107 59 0 107 48 107 107 0 59-48 107-107 107-60 0-108-48-108-107z m195 0c0-48-39-88-87-88-49 0-88 40-88 88 0 49 39 88 88 88 48 0 87-39 87-88z m-266-389c2-2 5-3 7-3 3 0 5 1 7 3l47 47c8 8 11 19 7 30l10 10c6 5 13 8 21 8l129 0c23 0 45 9 62 25l88 105c14 17 12 42-4 56-16 14-41 12-55-4l-58-60c-7 9-18 15-30 15l-109 0c-15 6-32 10-49 10-46 1-88-24-110-64-9 2-19-1-26-8l-46-46c-4-4-4-10 0-14z m73 222c15 0 30-3 43-9 2-1 3-1 5-1l111 0c10 0 19-9 19-20 0-10-9-19-19-19l-81 0c-5-1-8-5-8-10 0-5 3-9 8-10l80 0c21 0 39 18 39 39 0 2 0 4 0 6l63 65c5 6 12 9 19 7 7-1 13-6 15-13 3-6 1-14-4-19l-87-105c-13-12-30-19-48-19l-129 0c-13 0-25-4-34-13l-9-8-76 76c19 34 55 54 93 52z m-122-65c3 3 8 4 12 1 2-1-3 4 85-84 3-4 3-10 0-14l-41-39-95 96z m216 291l0-12c-14-4-22-18-20-32 3-15 15-25 30-25 5 0 9-4 9-9 0-6-4-10-9-10-5 0-10 3-13 7-4 4-10 5-14 2-4-4-4-10-1-14 5-6 10-10 17-13l0-11c1-5 5-8 10-8 5 0 9 3 10 8l0 11c15 4 24 18 22 33-2 15-16 26-31 25-6 0-10 4-10 9 0 3 1 5 3 7 2 2 4 3 7 3 4 0 8-2 10-5 4-3 10-3 13 1 4 4 4 9 1 13-4 4-9 7-15 9l0 11c0 5-4 8-9 8-5 0-10-3-10-8z"/>
<glyph glyph-name="dropdown" unicode="&#107;" d="M243 133l-220 198c-7 6-9 16-6 25 3 9 12 14 21 15l441 0c9 0 18-6 22-15 3-9 1-19-6-25l-222-198c-8-8-21-8-30 0z"/>
<glyph glyph-name="eyehiden" unicode="&#108;" d="M267 365c35 0 68-17 88-46 20-30 24-67 11-100l63-62c33 27 58 62 73 101-49 128-192 192-320 146l46-46c12 5 26 8 39 8z m-214 59l49-49 10-9c-36-28-63-65-80-107 38-97 132-160 235-161 33 0 64 7 94 19l9-10 63-62 27 27-380 379z m118-119l34-32c-5-19 0-39 12-54 12-16 31-24 50-24 5 0 10 0 14 1l33-33c-14-7-30-11-47-11-37 0-71 19-90 50-20 32-22 71-5 104z m92 18l68-69 0 4c0 35-29 64-64 64z"/>
<glyph glyph-name="lock" unicode="&#109;" d="M390 318l-15 0 0 63c0 69-55 125-124 125-69 0-125-56-125-125l0-63-17 0c-26 0-47-21-47-47l0-218c0-26 21-47 47-47l281 0c13 0 24 5 33 14 9 9 14 20 14 33l0 218c0 13-5 25-14 34-9 8-20 13-33 13z m-234 63c0 52 42 94 94 94 52 0 94-42 94-94l0-63-188 0z m250-328c0-9-7-16-16-16l-281 0c-9 0-16 7-16 16l0 218c0 9 7 16 16 16l281 0c9 0 16-7 16-16z m-156 182c-23 0-42-19-42-42 0-17 10-32 26-38l0-50c1-8 8-14 16-14 8 0 14 6 15 14l0 50c16 6 26 21 26 38 0 23-18 42-41 42z m0-31c2 0 5-1 7-3 2-2 3-5 3-8 0-2-1-5-3-7-2-2-5-3-7-3-3 0-6 1-8 3-2 2-3 5-3 7 0 6 5 11 11 11z"/>
<glyph glyph-name="logout" unicode="&#110;" d="M495 239l-51-52c-8-8-20-8-28 0-7 7-7 20 0 27l19 19-162 0c-11 0-20 9-20 20 0 11 9 20 20 20l162 0-20 19c-7 8-7 20 1 28 8 7 20 7 28-1l51-52c3-4 6-9 6-14 0-5-2-10-6-14z m-126-122c-11-1-20-9-20-20l0-55-279 0 0 421 279 0 0-54c0-11 9-20 20-20 10 0 19 9 19 20l0 74c0 11-9 19-19 19l-318 0c-5 0-10-2-14-5-3-4-5-9-5-14l0-461c0-10 9-19 19-19l318 0c10 0 19 9 19 20l0 74c0 11-9 19-19 20z"/>
<glyph glyph-name="matrix" unicode="&#111;" d="M256 276c-2 0-4 1-6 2l-233 97c-6 3-9 9-9 15 0 6 3 12 9 14l232 98c4 2 9 2 12 0l233-98c5-2 9-8 9-14 0-6-4-12-9-14l-233-98c-1-1-4-2-6-2z m238 46l-25 10-196-83c-6-2-12-3-18-3-6 0-12 1-18 3l-196 83-24-10c-6-3-9-8-9-15 0-6 3-11 9-14l232-98c2-1 4-1 6-1 2 0 4 0 6 1l232 98c6 3 10 8 10 14 0 7-4 12-10 15z m0-83l-25 10-196-82c-6-3-12-4-18-4-6 0-12 1-18 4l-196 82-24-10c-6-3-9-8-9-14 0-7 3-12 9-15l232-98c2 0 4-1 6-1 2 0 4 1 6 1l232 98c6 3 10 8 10 15 0 6-4 11-10 14z m0-82l-25 10-196-83c-6-2-12-3-18-3-6 0-12 1-18 3l-196 83-24-10c-6-3-9-8-9-15 0-6 3-11 9-14l232-98c2-1 4-1 6-1 2 0 4 0 6 1l232 98c6 3 10 8 10 14 0 7-4 12-10 15z"/>
<glyph glyph-name="notification" unicode="&#112;" d="M217 4c-43 0-78 35-78 78 1 8 7 14 15 14 8 0 15-6 16-14 0-26 21-47 47-47 26 0 47 21 47 47 0 8 7 14 15 14 8 0 15-6 16-14 0-43-35-78-78-78z m171 62l-343 0c-15 0-29 9-34 24-5 14-1 30 11 40l1 1c31 27 48 65 48 106l0 58c0 80 65 145 146 145 3 1 7 1 10 0 8-1 14-9 13-17-1-4-3-8-6-10-4-3-8-4-12-3-2 0-4 0-5 0-31 0-60-13-81-34-22-22-34-51-34-81l0-58c0-51-22-98-60-131-1-1-1-2-1-3 0-3 2-5 5-5l343 0c3 0 5 2 5 5 0 1 0 2-1 3-38 33-60 80-60 131l0 22c-1 6 2 12 7 15 5 4 12 4 17 0 5-3 8-9 7-15l0-22c-1-40 16-79 46-106l1-1c12-10 16-26 11-40-6-15-19-24-34-24z m-26 229c-42 0-80 25-96 64-16 39-7 84 23 113 29 30 74 39 113 23 39-16 64-54 64-96 0-58-46-104-104-104z m0 177c-40 0-73-33-73-73 0-40 33-73 73-73 40 0 73 32 73 73 0 40-32 72-73 73z"/>
<glyph glyph-name="sell" unicode="&#113;" d="M507 9l0 228-56 0 0-133-99 99c59 80 47 192-29 257-75 65-188 61-258-9-71-71-75-184-10-259 65-75 177-88 257-29l99-98-133 0 0-56z m-308 435c71 0 128-57 128-128 0-70-57-128-128-128-70 0-128 58-127 128 0 71 57 128 127 128z"/>
<glyph glyph-name="setting" unicode="&#114;" d="M258 6c-30 0-55 25-55 55l0 16c-12 4-23 8-34 14l-11-11c-22-21-56-21-78 0-21 21-21 56 0 77l11 11c-5 11-10 23-13 35l-16 0c-30 0-54 24-54 54 0 31 24 55 54 55l16 0c4 12 8 23 14 34l-11 12c-16 21-14 52 5 71 20 19 51 21 72 5l12-12c11 6 22 11 34 14l0 16c0 30 24 55 54 55 3 0 7 0 11-1 25-5 43-28 43-54l0-16c12-3 24-8 35-14l11 12c22 19 55 19 76-2 20-21 21-54 1-76l-11-11c6-11 10-22 14-34l16 0c30 0 55-25 55-55 0-30-25-55-55-55l-16 0c-4-12-8-23-14-34l11-11c20-22 19-55-1-76-21-21-54-21-76-2l-11 12c-11-6-23-11-35-14l0-16c0-26-18-48-43-54-4-1-7-1-11-1z m8 18z m-99 102c3 0 6-1 8-2 15-9 30-16 47-20 7-1 12-8 12-15l0-28c0-13 11-23 24-23 1 0 3 0 4 0 5 1 9 3 12 6 5 5 7 11 7 17l0 28c0 7 5 14 12 15 17 4 33 11 47 20 6 4 14 3 19-2l20-20c10-9 24-9 34 0 9 10 9 24 0 34l-20 19c-6 5-7 13-3 19 9 15 16 31 20 48 1 7 8 12 15 12l28 0c12 1 21 11 21 23 0 13-9 23-21 24l-28 0c-7 0-13 5-15 12-4 17-10 32-19 47-4 6-3 13 2 18l19 20c8 10 8 23-1 32-9 9-23 9-32 1l-19-19c-5-5-13-6-20-3-14 10-30 17-47 21-7 1-12 7-12 15l0 27c0 11-8 21-19 23-1 0-3 0-4 0-6 0-12-2-17-7-4-4-7-10-7-16l0-28c0-7-5-13-12-14-17-4-33-11-47-20-6-4-14-3-19 2l-19 19c-5 5-11 8-18 8-6 0-12-3-17-8-4-4-7-10-6-17-1-6 2-12 7-17l20-19c5-5 6-13 2-19-9-14-16-30-20-47-1-7-7-12-15-12l-28 0c-6 0-12-2-16-7-5-5-7-11-7-17 0-6 2-13 7-17 4-5 10-7 17-7l27 0c8 0 14-5 15-12 4-16 11-32 20-46 4-6 3-14-2-19l-21-20c-9-9-9-24 0-33 5-4 11-7 17-6 7-1 13 2 18 6l19 20c3 3 7 5 11 5z m91 21c-61 0-110 49-110 110 0 60 49 109 110 109 3 0 6 0 9 0 57-4 101-52 101-109 0-57-44-105-101-109-3 0-6 0-9 0z m0 188c-43 0-78-35-78-78 0-43 35-78 78-78 2 0 4 0 6 0 41 3 72 37 72 78 0 40-31 74-72 78z"/>
<glyph glyph-name="support" unicode="&#115;" d="M84 29l-34 0 25 25c12 13 21 30 23 48-34 21-59 52-74 88-14 35-16 74-5 110 13 47 42 88 82 116 47 32 102 49 159 49 76 0 139-22 184-63 61-54 80-141 47-216-11-25-27-47-47-65-45-41-109-63-184-63-28 0-56 3-83 10-24-25-58-39-93-40z m176 407c-119 0-194-72-213-143-19-67 8-131 73-170l7-4 0-9c0-16-4-32-11-47 18 6 33 17 45 31l7 7 9-2c27-8 55-12 83-12 150 0 218 90 218 174 0 46-19 90-53 120-40 36-97 55-165 55z"/>
<glyph glyph-name="trading" unicode="&#116;" d="M77 271c12 0 23 5 31 13l44-22c0-2 0-4 0-5 0-18 12-34 28-41 17-6 36-2 49 11 12 13 16 32 8 49l60 59c6-3 12-4 19-4 24 1 43 21 42 44 0 5 0 9-2 14l51 38c17-11 40-9 55 5 15 13 18 36 9 53-10 18-30 27-50 22-20-5-34-22-34-43 1-4 1-9 3-13l-52-39c-13 9-30 10-45 2-14-8-23-22-23-39 0-6 2-13 5-18l-60-60c-17 8-36 5-50-8l-44 21c0 2 0 4 0 6 0 18-11 34-27 41-17 7-36 3-49-10-13-13-16-32-9-49 7-16 23-27 41-27z m416-239l-15 0 0 313c0 9-7 15-15 15l-60 0c-8 0-15-6-15-15l0-313-30 0 0 224c0 4-1 8-4 10-3 3-7 5-10 5l-59 0c-4 0-8-2-11-5-2-2-4-6-4-10l0-224-30 0 0 106c0 8-6 15-15 15l-59 0c-8 0-15-7-15-15l0-106-29 0 0 165c0 8-7 15-15 15l-59 0c-8 0-15-7-15-15l0-165-16 0c-8 0-15-6-15-14 0-9 7-15 15-15l476 0c8 0 15 6 15 15 0 8-7 14-15 14z"/>
<glyph glyph-name="tradinghistory" unicode="&#117;" d="M290 491c-118 0-213-96-213-214l-72 0 93-93 2-3 96 96-72 0c0 80 56 149 134 164 78 16 157-26 187-99 31-74 5-159-61-203-66-44-154-36-211 21l-34-35c69-68 174-81 258-33 84 49 124 147 99 241-25 93-109 158-206 158z m-24-119l0-120 103-60 17 29-83 49 0 102z"/>
<glyph glyph-name="transfer" unicode="&#118;" d="M457 349l-103-103c-8-8-20-10-31-6-10 4-17 14-17 26 0 7 3 14 8 20l55 55-290 0c-14 1-26 14-26 29 0 14 12 27 26 28l290 0-55 55c-11 11-11 29 0 40 5 5 12 8 20 8 7 0 15-3 20-8l103-104c6-5 9-12 9-20 0-7-3-15-9-20z m9-206c0-15-13-28-28-28l-291 0 56-55c11-11 11-29 0-40-11-11-29-11-40 0l-103 103c-11 11-11 29 0 40l104 104c11 11 28 11 39 0 11-11 11-29 0-40l-55-56 290 0c15-1 27-13 28-28z"/>
<glyph glyph-name="wallet" unicode="&#119;" d="M476 165l0-58 7 0c15 0 27 12 27 27l0 71-20-26c-4-5-9-10-14-14z m-32-10l-75 0c-41 0-74 33-74 74 0 40 33 73 74 73l75 0c2 0 4 0 7 0l0 74c0 16-13 28-28 28l-391 0c-15 0-27-12-27-28l0-295c0-16 12-28 27-28l390 0c16 0 28 12 28 28l0 75z m39 303l-390 0c-15 0-28-12-28-28l357 0c30 0 54-23 54-53l0-54 34 45 0 62c0 15-12 28-27 28z m7-158c-5-8-13-14-21-18-8-3-17-5-26-5l-74 0c-26-2-45-23-45-48 0-25 19-46 45-48l75 0c10 0 20 5 27 14l40 52 0 78z m-93-84l-30 0c-5-1-10 1-13 6-3 4-3 9 0 13 3 5 8 7 13 6l30 0c5 1 10-1 13-6 3-4 3-9 0-13-3-5-8-7-13-6z"/>
<glyph glyph-name="withdrawal" unicode="&#120;" d="M243 137c3-4 7-6 12-6 4 0 9 2 12 6l108 125c5 4 6 11 3 17-3 5-8 9-14 9l-62 0 0 203c0 9-7 16-16 16l-62 0c-9 0-16-7-16-16l0-203-63 0c-6 0-11-4-14-9-3-6-2-13 2-18z m184 25l0-94-344 0 0 94-63 0 0-125c0-17 14-31 31-31l407 0c9 0 17 3 22 9 6 6 10 14 10 22l0 125z"/>
<glyph glyph-name="ranking" unicode="&#121;" d="M186 301l-157 0 0-298 157 0z m-98-113l0 28 38 0 0-126-29 0 0 98z m284-54l121 0 0-131-121 0z m-156 77l126 0 0-208-126 0z m-161 132l52 28 53-28-10 58 42 41-58 9-27 53-26-53-58-9 42-41z"/>
</font>
</defs>
</svg>
